G04 #@! TF.FileFunction,Copper,L2,Bot,Signal*
%FSLAX46Y46*%
G04 Gerber Fmt 4.6, Leading zero omitted, Abs format (unit mm)*
G04 Created by KiCad (PCBNEW (2015-08-30 BZR 6134, Git 4e94d52)-product) date 10/20/2015 9:06:23 PM*
%MOMM*%
G01*
G04 APERTURE LIST*
%ADD10C,0.100000*%
%ADD11O,1.600000X1.600000*%
%ADD12R,1.900000X2.000000*%
%ADD13C,1.900000*%
%ADD14R,1.727200X1.727200*%
%ADD15O,1.727200X1.727200*%
%ADD16R,1.727200X2.032000*%
%ADD17O,1.727200X2.032000*%
%ADD18C,1.397000*%
%ADD19C,1.501140*%
%ADD20R,1.400000X1.400000*%
%ADD21C,1.400000*%
%ADD22C,1.998980*%
%ADD23R,6.096000X6.096000*%
%ADD24C,0.600000*%
%ADD25C,0.300000*%
%ADD26C,0.250000*%
%ADD27C,0.500000*%
%ADD28C,0.254000*%
G04 APERTURE END LIST*
D10*
D11*
X53340000Y-53340000D03*
X53340000Y-55880000D03*
X53340000Y-58420000D03*
X53340000Y-60960000D03*
X53340000Y-63500000D03*
X53340000Y-66040000D03*
X53340000Y-68580000D03*
X53340000Y-71120000D03*
X53340000Y-73660000D03*
X53340000Y-76200000D03*
X53340000Y-78740000D03*
X53340000Y-81280000D03*
X53340000Y-83820000D03*
X53340000Y-86360000D03*
X60960000Y-86360000D03*
X60960000Y-83820000D03*
X60960000Y-81280000D03*
X60960000Y-78740000D03*
X60960000Y-76200000D03*
X60960000Y-73660000D03*
X60960000Y-71120000D03*
X60960000Y-68580000D03*
X60960000Y-66040000D03*
X60960000Y-63500000D03*
X60960000Y-60960000D03*
X60960000Y-58420000D03*
X60960000Y-55880000D03*
X60960000Y-53340000D03*
D12*
X100330000Y-74930000D03*
D13*
X102870000Y-74930000D03*
D12*
X106680000Y-74930000D03*
D13*
X109220000Y-74930000D03*
D12*
X113030000Y-74930000D03*
D13*
X115570000Y-74930000D03*
D12*
X119380000Y-74930000D03*
D13*
X121920000Y-74930000D03*
D12*
X125730000Y-74930000D03*
D13*
X128270000Y-74930000D03*
D12*
X132080000Y-74930000D03*
D13*
X134620000Y-74930000D03*
D12*
X138430000Y-74930000D03*
D13*
X140970000Y-74930000D03*
D12*
X144780000Y-74930000D03*
D13*
X147320000Y-74930000D03*
D14*
X85344000Y-90170000D03*
D15*
X85344000Y-92710000D03*
X82804000Y-90170000D03*
X82804000Y-92710000D03*
X80264000Y-90170000D03*
X80264000Y-92710000D03*
D16*
X76962000Y-97536000D03*
D17*
X79502000Y-97536000D03*
X82042000Y-97536000D03*
X84582000Y-97536000D03*
X87122000Y-97536000D03*
X89662000Y-97536000D03*
D18*
X110490000Y-54356000D03*
X110490000Y-59436000D03*
X102870000Y-54356000D03*
X102870000Y-59436000D03*
X102870000Y-95504000D03*
X102870000Y-90424000D03*
X110490000Y-95504000D03*
X110490000Y-90424000D03*
D19*
X59440940Y-91750000D03*
X54559060Y-91750000D03*
D20*
X63500000Y-78500000D03*
D21*
X68500000Y-78500000D03*
D20*
X68500000Y-71250000D03*
D21*
X63500000Y-71250000D03*
D20*
X65500000Y-97000000D03*
D21*
X60500000Y-97000000D03*
D20*
X53250000Y-97000000D03*
D21*
X58250000Y-97000000D03*
D22*
X104709874Y-68514874D03*
X99760126Y-63565126D03*
X104709874Y-81345126D03*
X99760126Y-86294874D03*
X117409874Y-68514874D03*
X112460126Y-63565126D03*
X117409874Y-81345126D03*
X112460126Y-86294874D03*
X130109874Y-68514874D03*
X125160126Y-63565126D03*
X130109874Y-81345126D03*
X125160126Y-86294874D03*
X142809874Y-69149874D03*
X137860126Y-64200126D03*
X142809874Y-81345126D03*
X137860126Y-86294874D03*
X63754000Y-59380000D03*
X63754000Y-52380000D03*
X113086000Y-52070000D03*
X120086000Y-52070000D03*
X114000000Y-95500000D03*
X121000000Y-95500000D03*
D23*
X81534000Y-60960000D03*
X93853000Y-60960000D03*
X69215000Y-60960000D03*
D14*
X134820000Y-53760000D03*
D15*
X134820000Y-56300000D03*
X132280000Y-53760000D03*
X132280000Y-56300000D03*
X129740000Y-53760000D03*
X129740000Y-56300000D03*
X127200000Y-53760000D03*
X127200000Y-56300000D03*
D24*
X57100000Y-72200000D03*
X58700000Y-69700000D03*
X80300000Y-80000000D03*
X88100000Y-90200000D03*
X114200000Y-67400000D03*
X109200000Y-67400000D03*
X109900000Y-80100000D03*
X96400000Y-78350010D03*
X68700000Y-59400000D03*
X69000000Y-67500000D03*
X94000000Y-68000000D03*
X93800000Y-59300000D03*
X70750000Y-80500000D03*
X58750000Y-77500000D03*
X68750000Y-85500000D03*
X67750000Y-86750000D03*
X69000000Y-82750000D03*
X66750000Y-81250000D03*
X64000000Y-75000000D03*
X92000000Y-91750000D03*
X106500000Y-56250000D03*
D25*
X60960000Y-68580000D02*
X59820000Y-68580000D01*
X59820000Y-68580000D02*
X58700000Y-69700000D01*
D26*
X63500000Y-78500000D02*
X63500000Y-79600000D01*
X63100000Y-80000000D02*
X59500000Y-80000000D01*
X63500000Y-79600000D02*
X63100000Y-80000000D01*
D25*
X109502172Y-54356000D02*
X102870000Y-54356000D01*
D27*
X110490000Y-54356000D02*
X109502172Y-54356000D01*
D25*
X112776000Y-52070000D02*
X110490000Y-54356000D01*
D27*
X113086000Y-52070000D02*
X112776000Y-52070000D01*
D25*
X88100000Y-90200000D02*
X88100000Y-87800000D01*
X88100000Y-87800000D02*
X80300000Y-80000000D01*
X109200000Y-67400000D02*
X114200000Y-67400000D01*
X108149990Y-78350010D02*
X109899980Y-80100000D01*
X109899980Y-80100000D02*
X109900000Y-80100000D01*
X96400000Y-78350010D02*
X108149990Y-78350010D01*
X55180000Y-68580000D02*
X57720000Y-71120000D01*
X57720000Y-71120000D02*
X60960000Y-71120000D01*
X53340000Y-68580000D02*
X55180000Y-68580000D01*
D27*
X69215000Y-60960000D02*
X69215000Y-67285000D01*
X69215000Y-67285000D02*
X69000000Y-67500000D01*
X93853000Y-60960000D02*
X93853000Y-67853000D01*
X93853000Y-67853000D02*
X94000000Y-68000000D01*
X67635000Y-59380000D02*
X69215000Y-60960000D01*
D25*
X93853000Y-60960000D02*
X92210000Y-60960000D01*
X80264000Y-90170000D02*
X70750000Y-80656000D01*
X70750000Y-80656000D02*
X70750000Y-80500000D01*
X68500000Y-71250000D02*
X68500000Y-70050000D01*
X68500000Y-70050000D02*
X73500000Y-65050000D01*
X69630000Y-52380000D02*
X63754000Y-52380000D01*
X73500000Y-65050000D02*
X73500000Y-56250000D01*
X73500000Y-56250000D02*
X69630000Y-52380000D01*
X54209999Y-52540001D02*
X55369489Y-51380511D01*
X55369489Y-51380511D02*
X62754511Y-51380511D01*
X62754511Y-51380511D02*
X63754000Y-52380000D01*
X53340000Y-53340000D02*
X54139999Y-52540001D01*
X54139999Y-52540001D02*
X54209999Y-52540001D01*
X53340000Y-73660000D02*
X51750000Y-75250000D01*
X51750000Y-75250000D02*
X51750000Y-88000000D01*
X51750000Y-88000000D02*
X53500000Y-89750000D01*
X53500000Y-89750000D02*
X57440940Y-89750000D01*
X57440940Y-89750000D02*
X59440940Y-91750000D01*
X82042000Y-97536000D02*
X82042000Y-97688400D01*
X82042000Y-97688400D02*
X80828399Y-98902001D01*
X80828399Y-98902001D02*
X57902001Y-98902001D01*
X57902001Y-98902001D02*
X50887384Y-91887384D01*
X50887384Y-58332616D02*
X53340000Y-55880000D01*
X50887384Y-91887384D02*
X50887384Y-58332616D01*
X58750000Y-77500000D02*
X58750000Y-77075736D01*
X58750000Y-77075736D02*
X53944265Y-72270001D01*
X52540001Y-59219999D02*
X53340000Y-58420000D01*
X53944265Y-72270001D02*
X52787999Y-72270001D01*
X52787999Y-72270001D02*
X52189999Y-71672001D01*
X52189999Y-71672001D02*
X52189999Y-59570001D01*
X52189999Y-59570001D02*
X52540001Y-59219999D01*
X102870000Y-95504000D02*
X101004000Y-95504000D01*
X55750000Y-63500000D02*
X53340000Y-63500000D01*
X62649997Y-67429999D02*
X59679999Y-67429999D01*
X70219998Y-75000000D02*
X62649997Y-67429999D01*
X59679999Y-67429999D02*
X55750000Y-63500000D01*
X80500000Y-75000000D02*
X70219998Y-75000000D01*
X101004000Y-95504000D02*
X80500000Y-75000000D01*
X68750000Y-85500000D02*
X68220001Y-84970001D01*
X68220001Y-84970001D02*
X54490001Y-84970001D01*
X54490001Y-84970001D02*
X54139999Y-84619999D01*
X54139999Y-84619999D02*
X53340000Y-83820000D01*
X60960000Y-86360000D02*
X67360000Y-86360000D01*
X67360000Y-86360000D02*
X67750000Y-86750000D01*
X69000000Y-82750000D02*
X62030000Y-82750000D01*
X62030000Y-82750000D02*
X60960000Y-83820000D01*
X66750000Y-81250000D02*
X60990000Y-81250000D01*
X60990000Y-81250000D02*
X60960000Y-81280000D01*
X85344000Y-90170000D02*
X84600130Y-90170000D01*
X84600130Y-90170000D02*
X69430130Y-75000000D01*
X69430130Y-75000000D02*
X64000000Y-75000000D01*
X92000000Y-91750000D02*
X91633601Y-91383601D01*
X91633601Y-91383601D02*
X84017601Y-91383601D01*
X84017601Y-91383601D02*
X83667599Y-91033599D01*
X83667599Y-91033599D02*
X82804000Y-90170000D01*
X60960000Y-76200000D02*
X61759999Y-76999999D01*
X61759999Y-76999999D02*
X69633999Y-76999999D01*
X69633999Y-76999999D02*
X81940401Y-89306401D01*
X81940401Y-89306401D02*
X82804000Y-90170000D01*
X106799999Y-56549999D02*
X119885871Y-56549999D01*
X119885871Y-56549999D02*
X125149471Y-51286399D01*
X125149471Y-51286399D02*
X127266399Y-51286399D01*
X127266399Y-51286399D02*
X129740000Y-53760000D01*
D27*
X106500000Y-56250000D02*
X106799999Y-56549999D01*
D28*
G36*
X111701154Y-51142927D02*
X111451794Y-51743453D01*
X111451321Y-52284521D01*
X110713148Y-53022694D01*
X110225914Y-53022269D01*
X109735620Y-53224854D01*
X109485778Y-53474261D01*
X109163497Y-53538367D01*
X109114658Y-53571000D01*
X103970579Y-53571000D01*
X103626353Y-53226173D01*
X103136413Y-53022732D01*
X102605914Y-53022269D01*
X102115620Y-53224854D01*
X101740173Y-53599647D01*
X101536732Y-54089587D01*
X101536269Y-54620086D01*
X101738854Y-55110380D01*
X102113647Y-55485827D01*
X102603587Y-55689268D01*
X103134086Y-55689731D01*
X103624380Y-55487146D01*
X103971130Y-55141000D01*
X109114658Y-55141000D01*
X109163497Y-55173633D01*
X109486044Y-55237792D01*
X109733647Y-55485827D01*
X110223587Y-55689268D01*
X110754086Y-55689731D01*
X111244380Y-55487146D01*
X111619827Y-55112353D01*
X111823268Y-54622413D01*
X111823696Y-54132462D01*
X112400855Y-53555303D01*
X112759453Y-53704206D01*
X113409694Y-53704774D01*
X114010655Y-53456462D01*
X114470846Y-52997073D01*
X114720206Y-52396547D01*
X114720774Y-51746306D01*
X114472462Y-51145345D01*
X114062832Y-50735000D01*
X119109793Y-50735000D01*
X118701154Y-51142927D01*
X118451794Y-51743453D01*
X118451226Y-52393694D01*
X118699538Y-52994655D01*
X119158927Y-53454846D01*
X119759453Y-53704206D01*
X120409694Y-53704774D01*
X121010655Y-53456462D01*
X121470846Y-52997073D01*
X121720206Y-52396547D01*
X121720774Y-51746306D01*
X121472462Y-51145345D01*
X121062832Y-50735000D01*
X124590713Y-50735000D01*
X119560713Y-55764999D01*
X107311273Y-55764999D01*
X107293117Y-55721057D01*
X107030327Y-55457808D01*
X106686799Y-55315162D01*
X106314833Y-55314838D01*
X105971057Y-55456883D01*
X105707808Y-55719673D01*
X105565162Y-56063201D01*
X105564838Y-56435167D01*
X105706883Y-56778943D01*
X105969673Y-57042192D01*
X106090987Y-57092566D01*
X106174210Y-57175789D01*
X106461325Y-57367632D01*
X106799999Y-57435000D01*
X107138674Y-57367632D01*
X107187513Y-57334999D01*
X119885871Y-57334999D01*
X120186278Y-57275244D01*
X120440950Y-57105078D01*
X120887000Y-56659027D01*
X125745032Y-56659027D01*
X125993179Y-57188490D01*
X126425053Y-57582688D01*
X126840974Y-57754958D01*
X127073000Y-57633817D01*
X127073000Y-56427000D01*
X125865531Y-56427000D01*
X125745032Y-56659027D01*
X120887000Y-56659027D01*
X125474628Y-52071399D01*
X126941241Y-52071399D01*
X127118162Y-52248320D01*
X126626511Y-52346115D01*
X126140330Y-52670971D01*
X125815474Y-53157152D01*
X125701400Y-53730641D01*
X125701400Y-53789359D01*
X125815474Y-54362848D01*
X126140330Y-54849029D01*
X126411161Y-55029992D01*
X125993179Y-55411510D01*
X125745032Y-55940973D01*
X125865531Y-56173000D01*
X127073000Y-56173000D01*
X127073000Y-56153000D01*
X127327000Y-56153000D01*
X127327000Y-56173000D01*
X127347000Y-56173000D01*
X127347000Y-56427000D01*
X127327000Y-56427000D01*
X127327000Y-57633817D01*
X127559026Y-57754958D01*
X127974947Y-57582688D01*
X128406821Y-57188490D01*
X128464336Y-57065772D01*
X128680330Y-57389029D01*
X129166511Y-57713885D01*
X129740000Y-57827959D01*
X130313489Y-57713885D01*
X130799670Y-57389029D01*
X131010000Y-57074248D01*
X131220330Y-57389029D01*
X131706511Y-57713885D01*
X132280000Y-57827959D01*
X132853489Y-57713885D01*
X133339670Y-57389029D01*
X133550000Y-57074248D01*
X133760330Y-57389029D01*
X134246511Y-57713885D01*
X134820000Y-57827959D01*
X135393489Y-57713885D01*
X135879670Y-57389029D01*
X136204526Y-56902848D01*
X136318600Y-56329359D01*
X136318600Y-56270641D01*
X136204526Y-55697152D01*
X135893426Y-55231558D01*
X135918917Y-55226762D01*
X136135041Y-55087690D01*
X136280031Y-54875490D01*
X136331040Y-54623600D01*
X136331040Y-52896400D01*
X136286762Y-52661083D01*
X136147690Y-52444959D01*
X135935490Y-52299969D01*
X135683600Y-52248960D01*
X133956400Y-52248960D01*
X133721083Y-52293238D01*
X133504959Y-52432310D01*
X133359969Y-52644510D01*
X133351136Y-52688131D01*
X133339670Y-52670971D01*
X132853489Y-52346115D01*
X132280000Y-52232041D01*
X131706511Y-52346115D01*
X131220330Y-52670971D01*
X131010000Y-52985752D01*
X130799670Y-52670971D01*
X130313489Y-52346115D01*
X129740000Y-52232041D01*
X129391517Y-52301359D01*
X127825158Y-50735000D01*
X139927610Y-50735000D01*
X143540052Y-51453560D01*
X146541163Y-53458837D01*
X148546440Y-56459949D01*
X149265000Y-60072390D01*
X149265000Y-89927610D01*
X148546440Y-93540051D01*
X146541163Y-96541163D01*
X143540052Y-98546440D01*
X139927610Y-99265000D01*
X81575558Y-99265000D01*
X81691026Y-99149532D01*
X82042000Y-99219345D01*
X82615489Y-99105271D01*
X83101670Y-98780415D01*
X83312000Y-98465634D01*
X83522330Y-98780415D01*
X84008511Y-99105271D01*
X84582000Y-99219345D01*
X85155489Y-99105271D01*
X85641670Y-98780415D01*
X85852000Y-98465634D01*
X86062330Y-98780415D01*
X86548511Y-99105271D01*
X87122000Y-99219345D01*
X87695489Y-99105271D01*
X88181670Y-98780415D01*
X88388461Y-98470931D01*
X88759964Y-98886732D01*
X89287209Y-99140709D01*
X89302974Y-99143358D01*
X89535000Y-99022217D01*
X89535000Y-97663000D01*
X89789000Y-97663000D01*
X89789000Y-99022217D01*
X90021026Y-99143358D01*
X90036791Y-99140709D01*
X90564036Y-98886732D01*
X90953954Y-98450320D01*
X91147184Y-97897913D01*
X91002924Y-97663000D01*
X89789000Y-97663000D01*
X89535000Y-97663000D01*
X89515000Y-97663000D01*
X89515000Y-97409000D01*
X89535000Y-97409000D01*
X89535000Y-96049783D01*
X89789000Y-96049783D01*
X89789000Y-97409000D01*
X91002924Y-97409000D01*
X91147184Y-97174087D01*
X90953954Y-96621680D01*
X90564036Y-96185268D01*
X90036791Y-95931291D01*
X90021026Y-95928642D01*
X89789000Y-96049783D01*
X89535000Y-96049783D01*
X89302974Y-95928642D01*
X89287209Y-95931291D01*
X88759964Y-96185268D01*
X88388461Y-96601069D01*
X88181670Y-96291585D01*
X87695489Y-95966729D01*
X87122000Y-95852655D01*
X86548511Y-95966729D01*
X86062330Y-96291585D01*
X85852000Y-96606366D01*
X85641670Y-96291585D01*
X85155489Y-95966729D01*
X84582000Y-95852655D01*
X84008511Y-95966729D01*
X83522330Y-96291585D01*
X83312000Y-96606366D01*
X83101670Y-96291585D01*
X82615489Y-95966729D01*
X82042000Y-95852655D01*
X81468511Y-95966729D01*
X80982330Y-96291585D01*
X80772000Y-96606366D01*
X80561670Y-96291585D01*
X80075489Y-95966729D01*
X79502000Y-95852655D01*
X78928511Y-95966729D01*
X78442330Y-96291585D01*
X78432757Y-96305913D01*
X78428762Y-96284683D01*
X78289690Y-96068559D01*
X78077490Y-95923569D01*
X77825600Y-95872560D01*
X76098400Y-95872560D01*
X75863083Y-95916838D01*
X75646959Y-96055910D01*
X75501969Y-96268110D01*
X75450960Y-96520000D01*
X75450960Y-98117001D01*
X66683616Y-98117001D01*
X66796431Y-97951890D01*
X66847440Y-97700000D01*
X66847440Y-96300000D01*
X66803162Y-96064683D01*
X66664090Y-95848559D01*
X66451890Y-95703569D01*
X66200000Y-95652560D01*
X64800000Y-95652560D01*
X64564683Y-95696838D01*
X64348559Y-95835910D01*
X64203569Y-96048110D01*
X64152560Y-96300000D01*
X64152560Y-97700000D01*
X64196838Y-97935317D01*
X64313748Y-98117001D01*
X61208005Y-98117001D01*
X61255669Y-97935275D01*
X60500000Y-97179605D01*
X59744331Y-97935275D01*
X59791995Y-98117001D01*
X58958005Y-98117001D01*
X59005669Y-97935275D01*
X58250000Y-97179605D01*
X58235858Y-97193748D01*
X58056253Y-97014143D01*
X58070395Y-97000000D01*
X58429605Y-97000000D01*
X59185275Y-97755669D01*
X59375000Y-97705907D01*
X59564725Y-97755669D01*
X60320395Y-97000000D01*
X60679605Y-97000000D01*
X61435275Y-97755669D01*
X61671042Y-97693831D01*
X61847419Y-97192878D01*
X61818664Y-96662560D01*
X61671042Y-96306169D01*
X61435275Y-96244331D01*
X60679605Y-97000000D01*
X60320395Y-97000000D01*
X59564725Y-96244331D01*
X59375000Y-96294093D01*
X59185275Y-96244331D01*
X58429605Y-97000000D01*
X58070395Y-97000000D01*
X57314725Y-96244331D01*
X57078958Y-96306169D01*
X56906408Y-96796251D01*
X56174883Y-96064725D01*
X57494331Y-96064725D01*
X58250000Y-96820395D01*
X59005669Y-96064725D01*
X59744331Y-96064725D01*
X60500000Y-96820395D01*
X61255669Y-96064725D01*
X61193831Y-95828958D01*
X60692878Y-95652581D01*
X60162560Y-95681336D01*
X59806169Y-95828958D01*
X59744331Y-96064725D01*
X59005669Y-96064725D01*
X58943831Y-95828958D01*
X58442878Y-95652581D01*
X57912560Y-95681336D01*
X57556169Y-95828958D01*
X57494331Y-96064725D01*
X56174883Y-96064725D01*
X51672384Y-91562226D01*
X51672384Y-89032542D01*
X52944921Y-90305079D01*
X53199594Y-90475245D01*
X53500000Y-90535000D01*
X53871270Y-90535000D01*
X53775223Y-90574686D01*
X53385116Y-90964113D01*
X53173731Y-91473184D01*
X53173250Y-92024398D01*
X53383746Y-92533837D01*
X53773173Y-92923944D01*
X54282244Y-93135329D01*
X54833458Y-93135810D01*
X55342897Y-92925314D01*
X55733004Y-92535887D01*
X55944389Y-92026816D01*
X55944870Y-91475602D01*
X55734374Y-90966163D01*
X55344947Y-90576056D01*
X55246073Y-90535000D01*
X57115782Y-90535000D01*
X58055610Y-91474828D01*
X58055130Y-92024398D01*
X58265626Y-92533837D01*
X58655053Y-92923944D01*
X59164124Y-93135329D01*
X59715338Y-93135810D01*
X59876965Y-93069027D01*
X78809032Y-93069027D01*
X79057179Y-93598490D01*
X79489053Y-93992688D01*
X79904974Y-94164958D01*
X80137000Y-94043817D01*
X80137000Y-92837000D01*
X78929531Y-92837000D01*
X78809032Y-93069027D01*
X59876965Y-93069027D01*
X60224777Y-92925314D01*
X60614884Y-92535887D01*
X60826269Y-92026816D01*
X60826750Y-91475602D01*
X60616254Y-90966163D01*
X60226827Y-90576056D01*
X59717756Y-90364671D01*
X59166542Y-90364190D01*
X59165655Y-90364557D01*
X57996019Y-89194921D01*
X57741347Y-89024755D01*
X57440940Y-88965000D01*
X53825158Y-88965000D01*
X52535000Y-87674842D01*
X52535000Y-87533598D01*
X52762736Y-87685767D01*
X53311887Y-87795000D01*
X53368113Y-87795000D01*
X53917264Y-87685767D01*
X54382811Y-87374698D01*
X54693880Y-86909151D01*
X54803113Y-86360000D01*
X54693880Y-85810849D01*
X54656564Y-85755001D01*
X59643436Y-85755001D01*
X59606120Y-85810849D01*
X59496887Y-86360000D01*
X59606120Y-86909151D01*
X59917189Y-87374698D01*
X60382736Y-87685767D01*
X60931887Y-87795000D01*
X60988113Y-87795000D01*
X61537264Y-87685767D01*
X62002811Y-87374698D01*
X62156291Y-87145000D01*
X66901539Y-87145000D01*
X66956883Y-87278943D01*
X67219673Y-87542192D01*
X67563201Y-87684838D01*
X67935167Y-87685162D01*
X68278943Y-87543117D01*
X68542192Y-87280327D01*
X68684838Y-86936799D01*
X68685162Y-86564833D01*
X68631474Y-86434897D01*
X68935167Y-86435162D01*
X69278943Y-86293117D01*
X69542192Y-86030327D01*
X69684838Y-85686799D01*
X69685162Y-85314833D01*
X69543117Y-84971057D01*
X69280327Y-84707808D01*
X68936799Y-84565162D01*
X68925310Y-84565152D01*
X68775080Y-84414922D01*
X68520408Y-84244756D01*
X68220001Y-84185001D01*
X62350510Y-84185001D01*
X62423113Y-83820000D01*
X62366423Y-83535000D01*
X68462494Y-83535000D01*
X68469673Y-83542192D01*
X68813201Y-83684838D01*
X69185167Y-83685162D01*
X69528943Y-83543117D01*
X69792192Y-83280327D01*
X69934838Y-82936799D01*
X69935162Y-82564833D01*
X69793117Y-82221057D01*
X69530327Y-81957808D01*
X69186799Y-81815162D01*
X68814833Y-81814838D01*
X68471057Y-81956883D01*
X68462926Y-81965000D01*
X67357196Y-81965000D01*
X67542192Y-81780327D01*
X67684838Y-81436799D01*
X67685162Y-81064833D01*
X67543117Y-80721057D01*
X67280327Y-80457808D01*
X66936799Y-80315162D01*
X66564833Y-80314838D01*
X66221057Y-80456883D01*
X66212926Y-80465000D01*
X62136245Y-80465000D01*
X62002811Y-80265302D01*
X61620725Y-80010000D01*
X62002811Y-79754698D01*
X62212472Y-79440918D01*
X62261673Y-79559699D01*
X62440302Y-79738327D01*
X62673691Y-79835000D01*
X63214250Y-79835000D01*
X63373000Y-79676250D01*
X63373000Y-78627000D01*
X63627000Y-78627000D01*
X63627000Y-79676250D01*
X63785750Y-79835000D01*
X64326309Y-79835000D01*
X64559698Y-79738327D01*
X64738327Y-79559699D01*
X64835000Y-79326310D01*
X64835000Y-78785750D01*
X64676250Y-78627000D01*
X63627000Y-78627000D01*
X63373000Y-78627000D01*
X63353000Y-78627000D01*
X63353000Y-78373000D01*
X63373000Y-78373000D01*
X63373000Y-78353000D01*
X63627000Y-78353000D01*
X63627000Y-78373000D01*
X64676250Y-78373000D01*
X64835000Y-78214250D01*
X64835000Y-77784999D01*
X67351378Y-77784999D01*
X67165232Y-78233287D01*
X67164769Y-78764383D01*
X67367582Y-79255229D01*
X67742796Y-79631098D01*
X68233287Y-79834768D01*
X68764383Y-79835231D01*
X69255229Y-79632418D01*
X69631098Y-79257204D01*
X69834768Y-78766713D01*
X69835165Y-78311323D01*
X71197085Y-79673243D01*
X70936799Y-79565162D01*
X70564833Y-79564838D01*
X70221057Y-79706883D01*
X69957808Y-79969673D01*
X69815162Y-80313201D01*
X69814838Y-80685167D01*
X69956883Y-81028943D01*
X70219673Y-81292192D01*
X70316056Y-81332214D01*
X78824976Y-89841134D01*
X78765400Y-90140641D01*
X78765400Y-90199359D01*
X78879474Y-90772848D01*
X79204330Y-91259029D01*
X79475161Y-91439992D01*
X79057179Y-91821510D01*
X78809032Y-92350973D01*
X78929531Y-92583000D01*
X80137000Y-92583000D01*
X80137000Y-92563000D01*
X80391000Y-92563000D01*
X80391000Y-92583000D01*
X80411000Y-92583000D01*
X80411000Y-92837000D01*
X80391000Y-92837000D01*
X80391000Y-94043817D01*
X80623026Y-94164958D01*
X81038947Y-93992688D01*
X81470821Y-93598490D01*
X81528336Y-93475772D01*
X81744330Y-93799029D01*
X82230511Y-94123885D01*
X82804000Y-94237959D01*
X83377489Y-94123885D01*
X83863670Y-93799029D01*
X84074000Y-93484248D01*
X84284330Y-93799029D01*
X84770511Y-94123885D01*
X85344000Y-94237959D01*
X85917489Y-94123885D01*
X86403670Y-93799029D01*
X86728526Y-93312848D01*
X86842600Y-92739359D01*
X86842600Y-92680641D01*
X86740749Y-92168601D01*
X91161291Y-92168601D01*
X91206883Y-92278943D01*
X91469673Y-92542192D01*
X91813201Y-92684838D01*
X92185167Y-92685162D01*
X92528943Y-92543117D01*
X92792192Y-92280327D01*
X92934838Y-91936799D01*
X92935162Y-91564833D01*
X92793117Y-91221057D01*
X92530327Y-90957808D01*
X92186799Y-90815162D01*
X92168662Y-90815146D01*
X91934008Y-90658356D01*
X91633601Y-90598601D01*
X88946890Y-90598601D01*
X89034838Y-90386799D01*
X89035162Y-90014833D01*
X88893117Y-89671057D01*
X88885000Y-89662926D01*
X88885000Y-87800000D01*
X88825245Y-87499594D01*
X88655079Y-87244921D01*
X81235153Y-79824995D01*
X81235162Y-79814833D01*
X81093117Y-79471057D01*
X80830327Y-79207808D01*
X80486799Y-79065162D01*
X80114833Y-79064838D01*
X79771057Y-79206883D01*
X79507808Y-79469673D01*
X79365162Y-79813201D01*
X79364838Y-80185167D01*
X79506883Y-80528943D01*
X79769673Y-80792192D01*
X80113201Y-80934838D01*
X80124690Y-80934848D01*
X87315000Y-88125158D01*
X87315000Y-89662494D01*
X87307808Y-89669673D01*
X87165162Y-90013201D01*
X87164838Y-90385167D01*
X87253027Y-90598601D01*
X86855040Y-90598601D01*
X86855040Y-89306400D01*
X86810762Y-89071083D01*
X86671690Y-88854959D01*
X86459490Y-88709969D01*
X86207600Y-88658960D01*
X84480400Y-88658960D01*
X84245083Y-88703238D01*
X84244136Y-88703848D01*
X71325288Y-75785000D01*
X80174842Y-75785000D01*
X100448921Y-96059079D01*
X100703594Y-96229245D01*
X101004000Y-96289000D01*
X101769421Y-96289000D01*
X102113647Y-96633827D01*
X102603587Y-96837268D01*
X103134086Y-96837731D01*
X103624380Y-96635146D01*
X103999827Y-96260353D01*
X104203268Y-95770413D01*
X104203270Y-95768086D01*
X109156269Y-95768086D01*
X109358854Y-96258380D01*
X109733647Y-96633827D01*
X110223587Y-96837268D01*
X110754086Y-96837731D01*
X111244380Y-96635146D01*
X111619827Y-96260353D01*
X111801143Y-95823694D01*
X112365226Y-95823694D01*
X112613538Y-96424655D01*
X113072927Y-96884846D01*
X113673453Y-97134206D01*
X114323694Y-97134774D01*
X114924655Y-96886462D01*
X115384846Y-96427073D01*
X115634206Y-95826547D01*
X115634208Y-95823694D01*
X119365226Y-95823694D01*
X119613538Y-96424655D01*
X120072927Y-96884846D01*
X120673453Y-97134206D01*
X121323694Y-97134774D01*
X121924655Y-96886462D01*
X122384846Y-96427073D01*
X122634206Y-95826547D01*
X122634774Y-95176306D01*
X122386462Y-94575345D01*
X121927073Y-94115154D01*
X121326547Y-93865794D01*
X120676306Y-93865226D01*
X120075345Y-94113538D01*
X119615154Y-94572927D01*
X119365794Y-95173453D01*
X119365226Y-95823694D01*
X115634208Y-95823694D01*
X115634774Y-95176306D01*
X115386462Y-94575345D01*
X114927073Y-94115154D01*
X114326547Y-93865794D01*
X113676306Y-93865226D01*
X113075345Y-94113538D01*
X112615154Y-94572927D01*
X112365794Y-95173453D01*
X112365226Y-95823694D01*
X111801143Y-95823694D01*
X111823268Y-95770413D01*
X111823731Y-95239914D01*
X111621146Y-94749620D01*
X111246353Y-94374173D01*
X110756413Y-94170732D01*
X110225914Y-94170269D01*
X109735620Y-94372854D01*
X109360173Y-94747647D01*
X109156732Y-95237587D01*
X109156269Y-95768086D01*
X104203270Y-95768086D01*
X104203731Y-95239914D01*
X104001146Y-94749620D01*
X103626353Y-94374173D01*
X103136413Y-94170732D01*
X102605914Y-94170269D01*
X102115620Y-94372854D01*
X101768870Y-94719000D01*
X101329158Y-94719000D01*
X97968346Y-91358188D01*
X102115417Y-91358188D01*
X102177071Y-91593800D01*
X102677480Y-91769927D01*
X103207199Y-91741148D01*
X103562929Y-91593800D01*
X103624583Y-91358188D01*
X109735417Y-91358188D01*
X109797071Y-91593800D01*
X110297480Y-91769927D01*
X110827199Y-91741148D01*
X111182929Y-91593800D01*
X111244583Y-91358188D01*
X110490000Y-90603605D01*
X109735417Y-91358188D01*
X103624583Y-91358188D01*
X102870000Y-90603605D01*
X102115417Y-91358188D01*
X97968346Y-91358188D01*
X96841638Y-90231480D01*
X101524073Y-90231480D01*
X101552852Y-90761199D01*
X101700200Y-91116929D01*
X101935812Y-91178583D01*
X102690395Y-90424000D01*
X103049605Y-90424000D01*
X103804188Y-91178583D01*
X104039800Y-91116929D01*
X104215927Y-90616520D01*
X104195009Y-90231480D01*
X109144073Y-90231480D01*
X109172852Y-90761199D01*
X109320200Y-91116929D01*
X109555812Y-91178583D01*
X110310395Y-90424000D01*
X110669605Y-90424000D01*
X111424188Y-91178583D01*
X111659800Y-91116929D01*
X111835927Y-90616520D01*
X111807148Y-90086801D01*
X111771194Y-90000000D01*
X141315000Y-90000000D01*
X141595504Y-91410188D01*
X142394312Y-92605688D01*
X143589812Y-93404496D01*
X145000000Y-93685000D01*
X146410188Y-93404496D01*
X147605688Y-92605688D01*
X148404496Y-91410188D01*
X148685000Y-90000000D01*
X148404496Y-88589812D01*
X147605688Y-87394312D01*
X146410188Y-86595504D01*
X145000000Y-86315000D01*
X143589812Y-86595504D01*
X142394312Y-87394312D01*
X141595504Y-88589812D01*
X141315000Y-90000000D01*
X111771194Y-90000000D01*
X111659800Y-89731071D01*
X111424188Y-89669417D01*
X110669605Y-90424000D01*
X110310395Y-90424000D01*
X109555812Y-89669417D01*
X109320200Y-89731071D01*
X109144073Y-90231480D01*
X104195009Y-90231480D01*
X104187148Y-90086801D01*
X104039800Y-89731071D01*
X103804188Y-89669417D01*
X103049605Y-90424000D01*
X102690395Y-90424000D01*
X101935812Y-89669417D01*
X101700200Y-89731071D01*
X101524073Y-90231480D01*
X96841638Y-90231480D01*
X96099970Y-89489812D01*
X102115417Y-89489812D01*
X102870000Y-90244395D01*
X103624583Y-89489812D01*
X109735417Y-89489812D01*
X110490000Y-90244395D01*
X111244583Y-89489812D01*
X111182929Y-89254200D01*
X110682520Y-89078073D01*
X110152801Y-89106852D01*
X109797071Y-89254200D01*
X109735417Y-89489812D01*
X103624583Y-89489812D01*
X103562929Y-89254200D01*
X103062520Y-89078073D01*
X102532801Y-89106852D01*
X102177071Y-89254200D01*
X102115417Y-89489812D01*
X96099970Y-89489812D01*
X93228726Y-86618568D01*
X98125352Y-86618568D01*
X98373664Y-87219529D01*
X98833053Y-87679720D01*
X99433579Y-87929080D01*
X100083820Y-87929648D01*
X100684781Y-87681336D01*
X101144972Y-87221947D01*
X101394332Y-86621421D01*
X101394334Y-86618568D01*
X110825352Y-86618568D01*
X111073664Y-87219529D01*
X111533053Y-87679720D01*
X112133579Y-87929080D01*
X112783820Y-87929648D01*
X113384781Y-87681336D01*
X113844972Y-87221947D01*
X114094332Y-86621421D01*
X114094334Y-86618568D01*
X123525352Y-86618568D01*
X123773664Y-87219529D01*
X124233053Y-87679720D01*
X124833579Y-87929080D01*
X125483820Y-87929648D01*
X126084781Y-87681336D01*
X126544972Y-87221947D01*
X126794332Y-86621421D01*
X126794334Y-86618568D01*
X136225352Y-86618568D01*
X136473664Y-87219529D01*
X136933053Y-87679720D01*
X137533579Y-87929080D01*
X138183820Y-87929648D01*
X138784781Y-87681336D01*
X139244972Y-87221947D01*
X139494332Y-86621421D01*
X139494900Y-85971180D01*
X139246588Y-85370219D01*
X138787199Y-84910028D01*
X138186673Y-84660668D01*
X137536432Y-84660100D01*
X136935471Y-84908412D01*
X136475280Y-85367801D01*
X136225920Y-85968327D01*
X136225352Y-86618568D01*
X126794334Y-86618568D01*
X126794900Y-85971180D01*
X126546588Y-85370219D01*
X126087199Y-84910028D01*
X125486673Y-84660668D01*
X124836432Y-84660100D01*
X124235471Y-84908412D01*
X123775280Y-85367801D01*
X123525920Y-85968327D01*
X123525352Y-86618568D01*
X114094334Y-86618568D01*
X114094900Y-85971180D01*
X113846588Y-85370219D01*
X113387199Y-84910028D01*
X112786673Y-84660668D01*
X112136432Y-84660100D01*
X111535471Y-84908412D01*
X111075280Y-85367801D01*
X110825920Y-85968327D01*
X110825352Y-86618568D01*
X101394334Y-86618568D01*
X101394900Y-85971180D01*
X101146588Y-85370219D01*
X100687199Y-84910028D01*
X100086673Y-84660668D01*
X99436432Y-84660100D01*
X98835471Y-84908412D01*
X98375280Y-85367801D01*
X98125920Y-85968327D01*
X98125352Y-86618568D01*
X93228726Y-86618568D01*
X88278978Y-81668820D01*
X103075100Y-81668820D01*
X103323412Y-82269781D01*
X103782801Y-82729972D01*
X104383327Y-82979332D01*
X105033568Y-82979900D01*
X105634529Y-82731588D01*
X106094720Y-82272199D01*
X106344080Y-81671673D01*
X106344082Y-81668820D01*
X115775100Y-81668820D01*
X116023412Y-82269781D01*
X116482801Y-82729972D01*
X117083327Y-82979332D01*
X117733568Y-82979900D01*
X118334529Y-82731588D01*
X118794720Y-82272199D01*
X119044080Y-81671673D01*
X119044082Y-81668820D01*
X128475100Y-81668820D01*
X128723412Y-82269781D01*
X129182801Y-82729972D01*
X129783327Y-82979332D01*
X130433568Y-82979900D01*
X131034529Y-82731588D01*
X131494720Y-82272199D01*
X131744080Y-81671673D01*
X131744082Y-81668820D01*
X141175100Y-81668820D01*
X141423412Y-82269781D01*
X141882801Y-82729972D01*
X142483327Y-82979332D01*
X143133568Y-82979900D01*
X143734529Y-82731588D01*
X144194720Y-82272199D01*
X144444080Y-81671673D01*
X144444648Y-81021432D01*
X144196336Y-80420471D01*
X143736947Y-79960280D01*
X143136421Y-79710920D01*
X142486180Y-79710352D01*
X141885219Y-79958664D01*
X141425028Y-80418053D01*
X141175668Y-81018579D01*
X141175100Y-81668820D01*
X131744082Y-81668820D01*
X131744648Y-81021432D01*
X131496336Y-80420471D01*
X131036947Y-79960280D01*
X130436421Y-79710920D01*
X129786180Y-79710352D01*
X129185219Y-79958664D01*
X128725028Y-80418053D01*
X128475668Y-81018579D01*
X128475100Y-81668820D01*
X119044082Y-81668820D01*
X119044648Y-81021432D01*
X118796336Y-80420471D01*
X118336947Y-79960280D01*
X117736421Y-79710920D01*
X117086180Y-79710352D01*
X116485219Y-79958664D01*
X116025028Y-80418053D01*
X115775668Y-81018579D01*
X115775100Y-81668820D01*
X106344082Y-81668820D01*
X106344648Y-81021432D01*
X106096336Y-80420471D01*
X105636947Y-79960280D01*
X105036421Y-79710920D01*
X104386180Y-79710352D01*
X103785219Y-79958664D01*
X103325028Y-80418053D01*
X103075668Y-81018579D01*
X103075100Y-81668820D01*
X88278978Y-81668820D01*
X85145335Y-78535177D01*
X95464838Y-78535177D01*
X95606883Y-78878953D01*
X95869673Y-79142202D01*
X96213201Y-79284848D01*
X96585167Y-79285172D01*
X96928943Y-79143127D01*
X96937074Y-79135010D01*
X107824832Y-79135010D01*
X108964847Y-80275025D01*
X108964838Y-80285167D01*
X109106883Y-80628943D01*
X109369673Y-80892192D01*
X109713201Y-81034838D01*
X110085167Y-81035162D01*
X110428943Y-80893117D01*
X110692192Y-80630327D01*
X110834838Y-80286799D01*
X110835162Y-79914833D01*
X110693117Y-79571057D01*
X110430327Y-79307808D01*
X110086799Y-79165162D01*
X110075290Y-79165152D01*
X108705069Y-77794931D01*
X108450397Y-77624765D01*
X108149990Y-77565010D01*
X96937506Y-77565010D01*
X96930327Y-77557818D01*
X96586799Y-77415172D01*
X96214833Y-77414848D01*
X95871057Y-77556893D01*
X95607808Y-77819683D01*
X95465162Y-78163211D01*
X95464838Y-78535177D01*
X85145335Y-78535177D01*
X81825908Y-75215750D01*
X98745000Y-75215750D01*
X98745000Y-76056309D01*
X98841673Y-76289698D01*
X99020301Y-76468327D01*
X99253690Y-76565000D01*
X100044250Y-76565000D01*
X100203000Y-76406250D01*
X100203000Y-75057000D01*
X98903750Y-75057000D01*
X98745000Y-75215750D01*
X81825908Y-75215750D01*
X81055079Y-74444921D01*
X80800407Y-74274755D01*
X80500000Y-74215000D01*
X70545156Y-74215000D01*
X70133847Y-73803691D01*
X98745000Y-73803691D01*
X98745000Y-74644250D01*
X98903750Y-74803000D01*
X100203000Y-74803000D01*
X100203000Y-73453750D01*
X100457000Y-73453750D01*
X100457000Y-74803000D01*
X100477000Y-74803000D01*
X100477000Y-75057000D01*
X100457000Y-75057000D01*
X100457000Y-76406250D01*
X100615750Y-76565000D01*
X101406310Y-76565000D01*
X101639699Y-76468327D01*
X101818327Y-76289698D01*
X101868012Y-76169749D01*
X101970997Y-76272914D01*
X102553341Y-76514724D01*
X103183893Y-76515275D01*
X103766657Y-76274481D01*
X104212914Y-75829003D01*
X104454724Y-75246659D01*
X104454751Y-75215750D01*
X105095000Y-75215750D01*
X105095000Y-76056309D01*
X105191673Y-76289698D01*
X105370301Y-76468327D01*
X105603690Y-76565000D01*
X106394250Y-76565000D01*
X106553000Y-76406250D01*
X106553000Y-75057000D01*
X105253750Y-75057000D01*
X105095000Y-75215750D01*
X104454751Y-75215750D01*
X104455275Y-74616107D01*
X104214481Y-74033343D01*
X103985230Y-73803691D01*
X105095000Y-73803691D01*
X105095000Y-74644250D01*
X105253750Y-74803000D01*
X106553000Y-74803000D01*
X106553000Y-73453750D01*
X106807000Y-73453750D01*
X106807000Y-74803000D01*
X106827000Y-74803000D01*
X106827000Y-75057000D01*
X106807000Y-75057000D01*
X106807000Y-76406250D01*
X106965750Y-76565000D01*
X107756310Y-76565000D01*
X107989699Y-76468327D01*
X108168327Y-76289698D01*
X108218012Y-76169749D01*
X108320997Y-76272914D01*
X108903341Y-76514724D01*
X109533893Y-76515275D01*
X110116657Y-76274481D01*
X110562914Y-75829003D01*
X110804724Y-75246659D01*
X110804751Y-75215750D01*
X111445000Y-75215750D01*
X111445000Y-76056309D01*
X111541673Y-76289698D01*
X111720301Y-76468327D01*
X111953690Y-76565000D01*
X112744250Y-76565000D01*
X112903000Y-76406250D01*
X112903000Y-75057000D01*
X111603750Y-75057000D01*
X111445000Y-75215750D01*
X110804751Y-75215750D01*
X110805275Y-74616107D01*
X110564481Y-74033343D01*
X110335230Y-73803691D01*
X111445000Y-73803691D01*
X111445000Y-74644250D01*
X111603750Y-74803000D01*
X112903000Y-74803000D01*
X112903000Y-73453750D01*
X113157000Y-73453750D01*
X113157000Y-74803000D01*
X113177000Y-74803000D01*
X113177000Y-75057000D01*
X113157000Y-75057000D01*
X113157000Y-76406250D01*
X113315750Y-76565000D01*
X114106310Y-76565000D01*
X114339699Y-76468327D01*
X114518327Y-76289698D01*
X114568012Y-76169749D01*
X114670997Y-76272914D01*
X115253341Y-76514724D01*
X115883893Y-76515275D01*
X116466657Y-76274481D01*
X116912914Y-75829003D01*
X117154724Y-75246659D01*
X117154751Y-75215750D01*
X117795000Y-75215750D01*
X117795000Y-76056309D01*
X117891673Y-76289698D01*
X118070301Y-76468327D01*
X118303690Y-76565000D01*
X119094250Y-76565000D01*
X119253000Y-76406250D01*
X119253000Y-75057000D01*
X117953750Y-75057000D01*
X117795000Y-75215750D01*
X117154751Y-75215750D01*
X117155275Y-74616107D01*
X116914481Y-74033343D01*
X116685230Y-73803691D01*
X117795000Y-73803691D01*
X117795000Y-74644250D01*
X117953750Y-74803000D01*
X119253000Y-74803000D01*
X119253000Y-73453750D01*
X119507000Y-73453750D01*
X119507000Y-74803000D01*
X119527000Y-74803000D01*
X119527000Y-75057000D01*
X119507000Y-75057000D01*
X119507000Y-76406250D01*
X119665750Y-76565000D01*
X120456310Y-76565000D01*
X120689699Y-76468327D01*
X120868327Y-76289698D01*
X120918012Y-76169749D01*
X121020997Y-76272914D01*
X121603341Y-76514724D01*
X122233893Y-76515275D01*
X122816657Y-76274481D01*
X123262914Y-75829003D01*
X123504724Y-75246659D01*
X123504751Y-75215750D01*
X124145000Y-75215750D01*
X124145000Y-76056309D01*
X124241673Y-76289698D01*
X124420301Y-76468327D01*
X124653690Y-76565000D01*
X125444250Y-76565000D01*
X125603000Y-76406250D01*
X125603000Y-75057000D01*
X124303750Y-75057000D01*
X124145000Y-75215750D01*
X123504751Y-75215750D01*
X123505275Y-74616107D01*
X123264481Y-74033343D01*
X123035230Y-73803691D01*
X124145000Y-73803691D01*
X124145000Y-74644250D01*
X124303750Y-74803000D01*
X125603000Y-74803000D01*
X125603000Y-73453750D01*
X125857000Y-73453750D01*
X125857000Y-74803000D01*
X125877000Y-74803000D01*
X125877000Y-75057000D01*
X125857000Y-75057000D01*
X125857000Y-76406250D01*
X126015750Y-76565000D01*
X126806310Y-76565000D01*
X127039699Y-76468327D01*
X127218327Y-76289698D01*
X127268012Y-76169749D01*
X127370997Y-76272914D01*
X127953341Y-76514724D01*
X128583893Y-76515275D01*
X129166657Y-76274481D01*
X129612914Y-75829003D01*
X129854724Y-75246659D01*
X129854751Y-75215750D01*
X130495000Y-75215750D01*
X130495000Y-76056309D01*
X130591673Y-76289698D01*
X130770301Y-76468327D01*
X131003690Y-76565000D01*
X131794250Y-76565000D01*
X131953000Y-76406250D01*
X131953000Y-75057000D01*
X130653750Y-75057000D01*
X130495000Y-75215750D01*
X129854751Y-75215750D01*
X129855275Y-74616107D01*
X129614481Y-74033343D01*
X129385230Y-73803691D01*
X130495000Y-73803691D01*
X130495000Y-74644250D01*
X130653750Y-74803000D01*
X131953000Y-74803000D01*
X131953000Y-73453750D01*
X132207000Y-73453750D01*
X132207000Y-74803000D01*
X132227000Y-74803000D01*
X132227000Y-75057000D01*
X132207000Y-75057000D01*
X132207000Y-76406250D01*
X132365750Y-76565000D01*
X133156310Y-76565000D01*
X133389699Y-76468327D01*
X133568327Y-76289698D01*
X133618012Y-76169749D01*
X133720997Y-76272914D01*
X134303341Y-76514724D01*
X134933893Y-76515275D01*
X135516657Y-76274481D01*
X135962914Y-75829003D01*
X136204724Y-75246659D01*
X136204751Y-75215750D01*
X136845000Y-75215750D01*
X136845000Y-76056309D01*
X136941673Y-76289698D01*
X137120301Y-76468327D01*
X137353690Y-76565000D01*
X138144250Y-76565000D01*
X138303000Y-76406250D01*
X138303000Y-75057000D01*
X137003750Y-75057000D01*
X136845000Y-75215750D01*
X136204751Y-75215750D01*
X136205275Y-74616107D01*
X135964481Y-74033343D01*
X135735230Y-73803691D01*
X136845000Y-73803691D01*
X136845000Y-74644250D01*
X137003750Y-74803000D01*
X138303000Y-74803000D01*
X138303000Y-73453750D01*
X138557000Y-73453750D01*
X138557000Y-74803000D01*
X138577000Y-74803000D01*
X138577000Y-75057000D01*
X138557000Y-75057000D01*
X138557000Y-76406250D01*
X138715750Y-76565000D01*
X139506310Y-76565000D01*
X139739699Y-76468327D01*
X139918327Y-76289698D01*
X139968012Y-76169749D01*
X140070997Y-76272914D01*
X140653341Y-76514724D01*
X141283893Y-76515275D01*
X141866657Y-76274481D01*
X142312914Y-75829003D01*
X142554724Y-75246659D01*
X142554751Y-75215750D01*
X143195000Y-75215750D01*
X143195000Y-76056309D01*
X143291673Y-76289698D01*
X143470301Y-76468327D01*
X143703690Y-76565000D01*
X144494250Y-76565000D01*
X144653000Y-76406250D01*
X144653000Y-75057000D01*
X143353750Y-75057000D01*
X143195000Y-75215750D01*
X142554751Y-75215750D01*
X142555275Y-74616107D01*
X142314481Y-74033343D01*
X142085230Y-73803691D01*
X143195000Y-73803691D01*
X143195000Y-74644250D01*
X143353750Y-74803000D01*
X144653000Y-74803000D01*
X144653000Y-73453750D01*
X144907000Y-73453750D01*
X144907000Y-74803000D01*
X144927000Y-74803000D01*
X144927000Y-75057000D01*
X144907000Y-75057000D01*
X144907000Y-76406250D01*
X145065750Y-76565000D01*
X145856310Y-76565000D01*
X146089699Y-76468327D01*
X146268327Y-76289698D01*
X146318012Y-76169749D01*
X146420997Y-76272914D01*
X147003341Y-76514724D01*
X147633893Y-76515275D01*
X148216657Y-76274481D01*
X148662914Y-75829003D01*
X148904724Y-75246659D01*
X148905275Y-74616107D01*
X148664481Y-74033343D01*
X148219003Y-73587086D01*
X147636659Y-73345276D01*
X147006107Y-73344725D01*
X146423343Y-73585519D01*
X146318133Y-73690545D01*
X146268327Y-73570302D01*
X146089699Y-73391673D01*
X145856310Y-73295000D01*
X145065750Y-73295000D01*
X144907000Y-73453750D01*
X144653000Y-73453750D01*
X144494250Y-73295000D01*
X143703690Y-73295000D01*
X143470301Y-73391673D01*
X143291673Y-73570302D01*
X143195000Y-73803691D01*
X142085230Y-73803691D01*
X141869003Y-73587086D01*
X141286659Y-73345276D01*
X140656107Y-73344725D01*
X140073343Y-73585519D01*
X139968133Y-73690545D01*
X139918327Y-73570302D01*
X139739699Y-73391673D01*
X139506310Y-73295000D01*
X138715750Y-73295000D01*
X138557000Y-73453750D01*
X138303000Y-73453750D01*
X138144250Y-73295000D01*
X137353690Y-73295000D01*
X137120301Y-73391673D01*
X136941673Y-73570302D01*
X136845000Y-73803691D01*
X135735230Y-73803691D01*
X135519003Y-73587086D01*
X134936659Y-73345276D01*
X134306107Y-73344725D01*
X133723343Y-73585519D01*
X133618133Y-73690545D01*
X133568327Y-73570302D01*
X133389699Y-73391673D01*
X133156310Y-73295000D01*
X132365750Y-73295000D01*
X132207000Y-73453750D01*
X131953000Y-73453750D01*
X131794250Y-73295000D01*
X131003690Y-73295000D01*
X130770301Y-73391673D01*
X130591673Y-73570302D01*
X130495000Y-73803691D01*
X129385230Y-73803691D01*
X129169003Y-73587086D01*
X128586659Y-73345276D01*
X127956107Y-73344725D01*
X127373343Y-73585519D01*
X127268133Y-73690545D01*
X127218327Y-73570302D01*
X127039699Y-73391673D01*
X126806310Y-73295000D01*
X126015750Y-73295000D01*
X125857000Y-73453750D01*
X125603000Y-73453750D01*
X125444250Y-73295000D01*
X124653690Y-73295000D01*
X124420301Y-73391673D01*
X124241673Y-73570302D01*
X124145000Y-73803691D01*
X123035230Y-73803691D01*
X122819003Y-73587086D01*
X122236659Y-73345276D01*
X121606107Y-73344725D01*
X121023343Y-73585519D01*
X120918133Y-73690545D01*
X120868327Y-73570302D01*
X120689699Y-73391673D01*
X120456310Y-73295000D01*
X119665750Y-73295000D01*
X119507000Y-73453750D01*
X119253000Y-73453750D01*
X119094250Y-73295000D01*
X118303690Y-73295000D01*
X118070301Y-73391673D01*
X117891673Y-73570302D01*
X117795000Y-73803691D01*
X116685230Y-73803691D01*
X116469003Y-73587086D01*
X115886659Y-73345276D01*
X115256107Y-73344725D01*
X114673343Y-73585519D01*
X114568133Y-73690545D01*
X114518327Y-73570302D01*
X114339699Y-73391673D01*
X114106310Y-73295000D01*
X113315750Y-73295000D01*
X113157000Y-73453750D01*
X112903000Y-73453750D01*
X112744250Y-73295000D01*
X111953690Y-73295000D01*
X111720301Y-73391673D01*
X111541673Y-73570302D01*
X111445000Y-73803691D01*
X110335230Y-73803691D01*
X110119003Y-73587086D01*
X109536659Y-73345276D01*
X108906107Y-73344725D01*
X108323343Y-73585519D01*
X108218133Y-73690545D01*
X108168327Y-73570302D01*
X107989699Y-73391673D01*
X107756310Y-73295000D01*
X106965750Y-73295000D01*
X106807000Y-73453750D01*
X106553000Y-73453750D01*
X106394250Y-73295000D01*
X105603690Y-73295000D01*
X105370301Y-73391673D01*
X105191673Y-73570302D01*
X105095000Y-73803691D01*
X103985230Y-73803691D01*
X103769003Y-73587086D01*
X103186659Y-73345276D01*
X102556107Y-73344725D01*
X101973343Y-73585519D01*
X101868133Y-73690545D01*
X101818327Y-73570302D01*
X101639699Y-73391673D01*
X101406310Y-73295000D01*
X100615750Y-73295000D01*
X100457000Y-73453750D01*
X100203000Y-73453750D01*
X100044250Y-73295000D01*
X99253690Y-73295000D01*
X99020301Y-73391673D01*
X98841673Y-73570302D01*
X98745000Y-73803691D01*
X70133847Y-73803691D01*
X68927596Y-72597440D01*
X69200000Y-72597440D01*
X69435317Y-72553162D01*
X69651441Y-72414090D01*
X69796431Y-72201890D01*
X69847440Y-71950000D01*
X69847440Y-70550000D01*
X69803162Y-70314683D01*
X69664090Y-70098559D01*
X69603202Y-70056956D01*
X74055079Y-65605079D01*
X74225245Y-65350406D01*
X74285000Y-65050000D01*
X74285000Y-61245750D01*
X77851000Y-61245750D01*
X77851000Y-64134310D01*
X77947673Y-64367699D01*
X78126302Y-64546327D01*
X78359691Y-64643000D01*
X81248250Y-64643000D01*
X81407000Y-64484250D01*
X81407000Y-61087000D01*
X81661000Y-61087000D01*
X81661000Y-64484250D01*
X81819750Y-64643000D01*
X84708309Y-64643000D01*
X84941698Y-64546327D01*
X85120327Y-64367699D01*
X85217000Y-64134310D01*
X85217000Y-61245750D01*
X85058250Y-61087000D01*
X81661000Y-61087000D01*
X81407000Y-61087000D01*
X78009750Y-61087000D01*
X77851000Y-61245750D01*
X74285000Y-61245750D01*
X74285000Y-57785690D01*
X77851000Y-57785690D01*
X77851000Y-60674250D01*
X78009750Y-60833000D01*
X81407000Y-60833000D01*
X81407000Y-57435750D01*
X81661000Y-57435750D01*
X81661000Y-60833000D01*
X85058250Y-60833000D01*
X85217000Y-60674250D01*
X85217000Y-57912000D01*
X90157560Y-57912000D01*
X90157560Y-64008000D01*
X90201838Y-64243317D01*
X90340910Y-64459441D01*
X90553110Y-64604431D01*
X90805000Y-64655440D01*
X92968000Y-64655440D01*
X92968000Y-67852995D01*
X92967999Y-67853000D01*
X93017655Y-68102633D01*
X93035367Y-68191675D01*
X93119641Y-68317801D01*
X93206883Y-68528943D01*
X93469673Y-68792192D01*
X93813201Y-68934838D01*
X94185167Y-68935162D01*
X94418942Y-68838568D01*
X103075100Y-68838568D01*
X103323412Y-69439529D01*
X103782801Y-69899720D01*
X104383327Y-70149080D01*
X105033568Y-70149648D01*
X105634529Y-69901336D01*
X106094720Y-69441947D01*
X106344080Y-68841421D01*
X106344082Y-68838568D01*
X115775100Y-68838568D01*
X116023412Y-69439529D01*
X116482801Y-69899720D01*
X117083327Y-70149080D01*
X117733568Y-70149648D01*
X118334529Y-69901336D01*
X118794720Y-69441947D01*
X119044080Y-68841421D01*
X119044082Y-68838568D01*
X128475100Y-68838568D01*
X128723412Y-69439529D01*
X129182801Y-69899720D01*
X129783327Y-70149080D01*
X130433568Y-70149648D01*
X131034529Y-69901336D01*
X131463043Y-69473568D01*
X141175100Y-69473568D01*
X141423412Y-70074529D01*
X141882801Y-70534720D01*
X142483327Y-70784080D01*
X143133568Y-70784648D01*
X143734529Y-70536336D01*
X144194720Y-70076947D01*
X144444080Y-69476421D01*
X144444648Y-68826180D01*
X144196336Y-68225219D01*
X143736947Y-67765028D01*
X143136421Y-67515668D01*
X142486180Y-67515100D01*
X141885219Y-67763412D01*
X141425028Y-68222801D01*
X141175668Y-68823327D01*
X141175100Y-69473568D01*
X131463043Y-69473568D01*
X131494720Y-69441947D01*
X131744080Y-68841421D01*
X131744648Y-68191180D01*
X131496336Y-67590219D01*
X131036947Y-67130028D01*
X130436421Y-66880668D01*
X129786180Y-66880100D01*
X129185219Y-67128412D01*
X128725028Y-67587801D01*
X128475668Y-68188327D01*
X128475100Y-68838568D01*
X119044082Y-68838568D01*
X119044648Y-68191180D01*
X118796336Y-67590219D01*
X118336947Y-67130028D01*
X117736421Y-66880668D01*
X117086180Y-66880100D01*
X116485219Y-67128412D01*
X116025028Y-67587801D01*
X115775668Y-68188327D01*
X115775100Y-68838568D01*
X106344082Y-68838568D01*
X106344648Y-68191180D01*
X106096336Y-67590219D01*
X106091293Y-67585167D01*
X108264838Y-67585167D01*
X108406883Y-67928943D01*
X108669673Y-68192192D01*
X109013201Y-68334838D01*
X109385167Y-68335162D01*
X109728943Y-68193117D01*
X109737074Y-68185000D01*
X113662494Y-68185000D01*
X113669673Y-68192192D01*
X114013201Y-68334838D01*
X114385167Y-68335162D01*
X114728943Y-68193117D01*
X114992192Y-67930327D01*
X115134838Y-67586799D01*
X115135162Y-67214833D01*
X114993117Y-66871057D01*
X114730327Y-66607808D01*
X114386799Y-66465162D01*
X114014833Y-66464838D01*
X113671057Y-66606883D01*
X113662926Y-66615000D01*
X109737506Y-66615000D01*
X109730327Y-66607808D01*
X109386799Y-66465162D01*
X109014833Y-66464838D01*
X108671057Y-66606883D01*
X108407808Y-66869673D01*
X108265162Y-67213201D01*
X108264838Y-67585167D01*
X106091293Y-67585167D01*
X105636947Y-67130028D01*
X105036421Y-66880668D01*
X104386180Y-66880100D01*
X103785219Y-67128412D01*
X103325028Y-67587801D01*
X103075668Y-68188327D01*
X103075100Y-68838568D01*
X94418942Y-68838568D01*
X94528943Y-68793117D01*
X94792192Y-68530327D01*
X94934838Y-68186799D01*
X94935162Y-67814833D01*
X94793117Y-67471057D01*
X94738000Y-67415844D01*
X94738000Y-64655440D01*
X96901000Y-64655440D01*
X97136317Y-64611162D01*
X97352441Y-64472090D01*
X97497431Y-64259890D01*
X97548440Y-64008000D01*
X97548440Y-63888820D01*
X98125352Y-63888820D01*
X98373664Y-64489781D01*
X98833053Y-64949972D01*
X99433579Y-65199332D01*
X100083820Y-65199900D01*
X100684781Y-64951588D01*
X101144972Y-64492199D01*
X101394332Y-63891673D01*
X101394334Y-63888820D01*
X110825352Y-63888820D01*
X111073664Y-64489781D01*
X111533053Y-64949972D01*
X112133579Y-65199332D01*
X112783820Y-65199900D01*
X113384781Y-64951588D01*
X113844972Y-64492199D01*
X114094332Y-63891673D01*
X114094334Y-63888820D01*
X123525352Y-63888820D01*
X123773664Y-64489781D01*
X124233053Y-64949972D01*
X124833579Y-65199332D01*
X125483820Y-65199900D01*
X126084781Y-64951588D01*
X126513295Y-64523820D01*
X136225352Y-64523820D01*
X136473664Y-65124781D01*
X136933053Y-65584972D01*
X137533579Y-65834332D01*
X138183820Y-65834900D01*
X138784781Y-65586588D01*
X139244972Y-65127199D01*
X139494332Y-64526673D01*
X139494900Y-63876432D01*
X139246588Y-63275471D01*
X138787199Y-62815280D01*
X138186673Y-62565920D01*
X137536432Y-62565352D01*
X136935471Y-62813664D01*
X136475280Y-63273053D01*
X136225920Y-63873579D01*
X136225352Y-64523820D01*
X126513295Y-64523820D01*
X126544972Y-64492199D01*
X126794332Y-63891673D01*
X126794900Y-63241432D01*
X126546588Y-62640471D01*
X126087199Y-62180280D01*
X125486673Y-61930920D01*
X124836432Y-61930352D01*
X124235471Y-62178664D01*
X123775280Y-62638053D01*
X123525920Y-63238579D01*
X123525352Y-63888820D01*
X114094334Y-63888820D01*
X114094900Y-63241432D01*
X113846588Y-62640471D01*
X113387199Y-62180280D01*
X112786673Y-61930920D01*
X112136432Y-61930352D01*
X111535471Y-62178664D01*
X111075280Y-62638053D01*
X110825920Y-63238579D01*
X110825352Y-63888820D01*
X101394334Y-63888820D01*
X101394900Y-63241432D01*
X101146588Y-62640471D01*
X100687199Y-62180280D01*
X100086673Y-61930920D01*
X99436432Y-61930352D01*
X98835471Y-62178664D01*
X98375280Y-62638053D01*
X98125920Y-63238579D01*
X98125352Y-63888820D01*
X97548440Y-63888820D01*
X97548440Y-60370188D01*
X102115417Y-60370188D01*
X102177071Y-60605800D01*
X102677480Y-60781927D01*
X103207199Y-60753148D01*
X103562929Y-60605800D01*
X103624583Y-60370188D01*
X109735417Y-60370188D01*
X109797071Y-60605800D01*
X110297480Y-60781927D01*
X110827199Y-60753148D01*
X111182929Y-60605800D01*
X111244583Y-60370188D01*
X110490000Y-59615605D01*
X109735417Y-60370188D01*
X103624583Y-60370188D01*
X102870000Y-59615605D01*
X102115417Y-60370188D01*
X97548440Y-60370188D01*
X97548440Y-59243480D01*
X101524073Y-59243480D01*
X101552852Y-59773199D01*
X101700200Y-60128929D01*
X101935812Y-60190583D01*
X102690395Y-59436000D01*
X103049605Y-59436000D01*
X103804188Y-60190583D01*
X104039800Y-60128929D01*
X104215927Y-59628520D01*
X104195009Y-59243480D01*
X109144073Y-59243480D01*
X109172852Y-59773199D01*
X109320200Y-60128929D01*
X109555812Y-60190583D01*
X110310395Y-59436000D01*
X110669605Y-59436000D01*
X111424188Y-60190583D01*
X111659800Y-60128929D01*
X111705178Y-60000000D01*
X141315000Y-60000000D01*
X141595504Y-61410188D01*
X142394312Y-62605688D01*
X143589812Y-63404496D01*
X145000000Y-63685000D01*
X146410188Y-63404496D01*
X147605688Y-62605688D01*
X148404496Y-61410188D01*
X148685000Y-60000000D01*
X148404496Y-58589812D01*
X147605688Y-57394312D01*
X146410188Y-56595504D01*
X145000000Y-56315000D01*
X143589812Y-56595504D01*
X142394312Y-57394312D01*
X141595504Y-58589812D01*
X141315000Y-60000000D01*
X111705178Y-60000000D01*
X111835927Y-59628520D01*
X111807148Y-59098801D01*
X111659800Y-58743071D01*
X111424188Y-58681417D01*
X110669605Y-59436000D01*
X110310395Y-59436000D01*
X109555812Y-58681417D01*
X109320200Y-58743071D01*
X109144073Y-59243480D01*
X104195009Y-59243480D01*
X104187148Y-59098801D01*
X104039800Y-58743071D01*
X103804188Y-58681417D01*
X103049605Y-59436000D01*
X102690395Y-59436000D01*
X101935812Y-58681417D01*
X101700200Y-58743071D01*
X101524073Y-59243480D01*
X97548440Y-59243480D01*
X97548440Y-58501812D01*
X102115417Y-58501812D01*
X102870000Y-59256395D01*
X103624583Y-58501812D01*
X109735417Y-58501812D01*
X110490000Y-59256395D01*
X111244583Y-58501812D01*
X111182929Y-58266200D01*
X110682520Y-58090073D01*
X110152801Y-58118852D01*
X109797071Y-58266200D01*
X109735417Y-58501812D01*
X103624583Y-58501812D01*
X103562929Y-58266200D01*
X103062520Y-58090073D01*
X102532801Y-58118852D01*
X102177071Y-58266200D01*
X102115417Y-58501812D01*
X97548440Y-58501812D01*
X97548440Y-57912000D01*
X97504162Y-57676683D01*
X97365090Y-57460559D01*
X97152890Y-57315569D01*
X96901000Y-57264560D01*
X90805000Y-57264560D01*
X90569683Y-57308838D01*
X90353559Y-57447910D01*
X90208569Y-57660110D01*
X90157560Y-57912000D01*
X85217000Y-57912000D01*
X85217000Y-57785690D01*
X85120327Y-57552301D01*
X84941698Y-57373673D01*
X84708309Y-57277000D01*
X81819750Y-57277000D01*
X81661000Y-57435750D01*
X81407000Y-57435750D01*
X81248250Y-57277000D01*
X78359691Y-57277000D01*
X78126302Y-57373673D01*
X77947673Y-57552301D01*
X77851000Y-57785690D01*
X74285000Y-57785690D01*
X74285000Y-56250000D01*
X74225245Y-55949594D01*
X74055079Y-55694921D01*
X74055076Y-55694919D01*
X70185079Y-51824921D01*
X69930407Y-51654755D01*
X69630000Y-51595000D01*
X65198166Y-51595000D01*
X65140462Y-51455345D01*
X64681073Y-50995154D01*
X64080547Y-50745794D01*
X63430306Y-50745226D01*
X63281545Y-50806693D01*
X63174249Y-50735000D01*
X112109793Y-50735000D01*
X111701154Y-51142927D01*
X111701154Y-51142927D01*
G37*
X111701154Y-51142927D02*
X111451794Y-51743453D01*
X111451321Y-52284521D01*
X110713148Y-53022694D01*
X110225914Y-53022269D01*
X109735620Y-53224854D01*
X109485778Y-53474261D01*
X109163497Y-53538367D01*
X109114658Y-53571000D01*
X103970579Y-53571000D01*
X103626353Y-53226173D01*
X103136413Y-53022732D01*
X102605914Y-53022269D01*
X102115620Y-53224854D01*
X101740173Y-53599647D01*
X101536732Y-54089587D01*
X101536269Y-54620086D01*
X101738854Y-55110380D01*
X102113647Y-55485827D01*
X102603587Y-55689268D01*
X103134086Y-55689731D01*
X103624380Y-55487146D01*
X103971130Y-55141000D01*
X109114658Y-55141000D01*
X109163497Y-55173633D01*
X109486044Y-55237792D01*
X109733647Y-55485827D01*
X110223587Y-55689268D01*
X110754086Y-55689731D01*
X111244380Y-55487146D01*
X111619827Y-55112353D01*
X111823268Y-54622413D01*
X111823696Y-54132462D01*
X112400855Y-53555303D01*
X112759453Y-53704206D01*
X113409694Y-53704774D01*
X114010655Y-53456462D01*
X114470846Y-52997073D01*
X114720206Y-52396547D01*
X114720774Y-51746306D01*
X114472462Y-51145345D01*
X114062832Y-50735000D01*
X119109793Y-50735000D01*
X118701154Y-51142927D01*
X118451794Y-51743453D01*
X118451226Y-52393694D01*
X118699538Y-52994655D01*
X119158927Y-53454846D01*
X119759453Y-53704206D01*
X120409694Y-53704774D01*
X121010655Y-53456462D01*
X121470846Y-52997073D01*
X121720206Y-52396547D01*
X121720774Y-51746306D01*
X121472462Y-51145345D01*
X121062832Y-50735000D01*
X124590713Y-50735000D01*
X119560713Y-55764999D01*
X107311273Y-55764999D01*
X107293117Y-55721057D01*
X107030327Y-55457808D01*
X106686799Y-55315162D01*
X106314833Y-55314838D01*
X105971057Y-55456883D01*
X105707808Y-55719673D01*
X105565162Y-56063201D01*
X105564838Y-56435167D01*
X105706883Y-56778943D01*
X105969673Y-57042192D01*
X106090987Y-57092566D01*
X106174210Y-57175789D01*
X106461325Y-57367632D01*
X106799999Y-57435000D01*
X107138674Y-57367632D01*
X107187513Y-57334999D01*
X119885871Y-57334999D01*
X120186278Y-57275244D01*
X120440950Y-57105078D01*
X120887000Y-56659027D01*
X125745032Y-56659027D01*
X125993179Y-57188490D01*
X126425053Y-57582688D01*
X126840974Y-57754958D01*
X127073000Y-57633817D01*
X127073000Y-56427000D01*
X125865531Y-56427000D01*
X125745032Y-56659027D01*
X120887000Y-56659027D01*
X125474628Y-52071399D01*
X126941241Y-52071399D01*
X127118162Y-52248320D01*
X126626511Y-52346115D01*
X126140330Y-52670971D01*
X125815474Y-53157152D01*
X125701400Y-53730641D01*
X125701400Y-53789359D01*
X125815474Y-54362848D01*
X126140330Y-54849029D01*
X126411161Y-55029992D01*
X125993179Y-55411510D01*
X125745032Y-55940973D01*
X125865531Y-56173000D01*
X127073000Y-56173000D01*
X127073000Y-56153000D01*
X127327000Y-56153000D01*
X127327000Y-56173000D01*
X127347000Y-56173000D01*
X127347000Y-56427000D01*
X127327000Y-56427000D01*
X127327000Y-57633817D01*
X127559026Y-57754958D01*
X127974947Y-57582688D01*
X128406821Y-57188490D01*
X128464336Y-57065772D01*
X128680330Y-57389029D01*
X129166511Y-57713885D01*
X129740000Y-57827959D01*
X130313489Y-57713885D01*
X130799670Y-57389029D01*
X131010000Y-57074248D01*
X131220330Y-57389029D01*
X131706511Y-57713885D01*
X132280000Y-57827959D01*
X132853489Y-57713885D01*
X133339670Y-57389029D01*
X133550000Y-57074248D01*
X133760330Y-57389029D01*
X134246511Y-57713885D01*
X134820000Y-57827959D01*
X135393489Y-57713885D01*
X135879670Y-57389029D01*
X136204526Y-56902848D01*
X136318600Y-56329359D01*
X136318600Y-56270641D01*
X136204526Y-55697152D01*
X135893426Y-55231558D01*
X135918917Y-55226762D01*
X136135041Y-55087690D01*
X136280031Y-54875490D01*
X136331040Y-54623600D01*
X136331040Y-52896400D01*
X136286762Y-52661083D01*
X136147690Y-52444959D01*
X135935490Y-52299969D01*
X135683600Y-52248960D01*
X133956400Y-52248960D01*
X133721083Y-52293238D01*
X133504959Y-52432310D01*
X133359969Y-52644510D01*
X133351136Y-52688131D01*
X133339670Y-52670971D01*
X132853489Y-52346115D01*
X132280000Y-52232041D01*
X131706511Y-52346115D01*
X131220330Y-52670971D01*
X131010000Y-52985752D01*
X130799670Y-52670971D01*
X130313489Y-52346115D01*
X129740000Y-52232041D01*
X129391517Y-52301359D01*
X127825158Y-50735000D01*
X139927610Y-50735000D01*
X143540052Y-51453560D01*
X146541163Y-53458837D01*
X148546440Y-56459949D01*
X149265000Y-60072390D01*
X149265000Y-89927610D01*
X148546440Y-93540051D01*
X146541163Y-96541163D01*
X143540052Y-98546440D01*
X139927610Y-99265000D01*
X81575558Y-99265000D01*
X81691026Y-99149532D01*
X82042000Y-99219345D01*
X82615489Y-99105271D01*
X83101670Y-98780415D01*
X83312000Y-98465634D01*
X83522330Y-98780415D01*
X84008511Y-99105271D01*
X84582000Y-99219345D01*
X85155489Y-99105271D01*
X85641670Y-98780415D01*
X85852000Y-98465634D01*
X86062330Y-98780415D01*
X86548511Y-99105271D01*
X87122000Y-99219345D01*
X87695489Y-99105271D01*
X88181670Y-98780415D01*
X88388461Y-98470931D01*
X88759964Y-98886732D01*
X89287209Y-99140709D01*
X89302974Y-99143358D01*
X89535000Y-99022217D01*
X89535000Y-97663000D01*
X89789000Y-97663000D01*
X89789000Y-99022217D01*
X90021026Y-99143358D01*
X90036791Y-99140709D01*
X90564036Y-98886732D01*
X90953954Y-98450320D01*
X91147184Y-97897913D01*
X91002924Y-97663000D01*
X89789000Y-97663000D01*
X89535000Y-97663000D01*
X89515000Y-97663000D01*
X89515000Y-97409000D01*
X89535000Y-97409000D01*
X89535000Y-96049783D01*
X89789000Y-96049783D01*
X89789000Y-97409000D01*
X91002924Y-97409000D01*
X91147184Y-97174087D01*
X90953954Y-96621680D01*
X90564036Y-96185268D01*
X90036791Y-95931291D01*
X90021026Y-95928642D01*
X89789000Y-96049783D01*
X89535000Y-96049783D01*
X89302974Y-95928642D01*
X89287209Y-95931291D01*
X88759964Y-96185268D01*
X88388461Y-96601069D01*
X88181670Y-96291585D01*
X87695489Y-95966729D01*
X87122000Y-95852655D01*
X86548511Y-95966729D01*
X86062330Y-96291585D01*
X85852000Y-96606366D01*
X85641670Y-96291585D01*
X85155489Y-95966729D01*
X84582000Y-95852655D01*
X84008511Y-95966729D01*
X83522330Y-96291585D01*
X83312000Y-96606366D01*
X83101670Y-96291585D01*
X82615489Y-95966729D01*
X82042000Y-95852655D01*
X81468511Y-95966729D01*
X80982330Y-96291585D01*
X80772000Y-96606366D01*
X80561670Y-96291585D01*
X80075489Y-95966729D01*
X79502000Y-95852655D01*
X78928511Y-95966729D01*
X78442330Y-96291585D01*
X78432757Y-96305913D01*
X78428762Y-96284683D01*
X78289690Y-96068559D01*
X78077490Y-95923569D01*
X77825600Y-95872560D01*
X76098400Y-95872560D01*
X75863083Y-95916838D01*
X75646959Y-96055910D01*
X75501969Y-96268110D01*
X75450960Y-96520000D01*
X75450960Y-98117001D01*
X66683616Y-98117001D01*
X66796431Y-97951890D01*
X66847440Y-97700000D01*
X66847440Y-96300000D01*
X66803162Y-96064683D01*
X66664090Y-95848559D01*
X66451890Y-95703569D01*
X66200000Y-95652560D01*
X64800000Y-95652560D01*
X64564683Y-95696838D01*
X64348559Y-95835910D01*
X64203569Y-96048110D01*
X64152560Y-96300000D01*
X64152560Y-97700000D01*
X64196838Y-97935317D01*
X64313748Y-98117001D01*
X61208005Y-98117001D01*
X61255669Y-97935275D01*
X60500000Y-97179605D01*
X59744331Y-97935275D01*
X59791995Y-98117001D01*
X58958005Y-98117001D01*
X59005669Y-97935275D01*
X58250000Y-97179605D01*
X58235858Y-97193748D01*
X58056253Y-97014143D01*
X58070395Y-97000000D01*
X58429605Y-97000000D01*
X59185275Y-97755669D01*
X59375000Y-97705907D01*
X59564725Y-97755669D01*
X60320395Y-97000000D01*
X60679605Y-97000000D01*
X61435275Y-97755669D01*
X61671042Y-97693831D01*
X61847419Y-97192878D01*
X61818664Y-96662560D01*
X61671042Y-96306169D01*
X61435275Y-96244331D01*
X60679605Y-97000000D01*
X60320395Y-97000000D01*
X59564725Y-96244331D01*
X59375000Y-96294093D01*
X59185275Y-96244331D01*
X58429605Y-97000000D01*
X58070395Y-97000000D01*
X57314725Y-96244331D01*
X57078958Y-96306169D01*
X56906408Y-96796251D01*
X56174883Y-96064725D01*
X57494331Y-96064725D01*
X58250000Y-96820395D01*
X59005669Y-96064725D01*
X59744331Y-96064725D01*
X60500000Y-96820395D01*
X61255669Y-96064725D01*
X61193831Y-95828958D01*
X60692878Y-95652581D01*
X60162560Y-95681336D01*
X59806169Y-95828958D01*
X59744331Y-96064725D01*
X59005669Y-96064725D01*
X58943831Y-95828958D01*
X58442878Y-95652581D01*
X57912560Y-95681336D01*
X57556169Y-95828958D01*
X57494331Y-96064725D01*
X56174883Y-96064725D01*
X51672384Y-91562226D01*
X51672384Y-89032542D01*
X52944921Y-90305079D01*
X53199594Y-90475245D01*
X53500000Y-90535000D01*
X53871270Y-90535000D01*
X53775223Y-90574686D01*
X53385116Y-90964113D01*
X53173731Y-91473184D01*
X53173250Y-92024398D01*
X53383746Y-92533837D01*
X53773173Y-92923944D01*
X54282244Y-93135329D01*
X54833458Y-93135810D01*
X55342897Y-92925314D01*
X55733004Y-92535887D01*
X55944389Y-92026816D01*
X55944870Y-91475602D01*
X55734374Y-90966163D01*
X55344947Y-90576056D01*
X55246073Y-90535000D01*
X57115782Y-90535000D01*
X58055610Y-91474828D01*
X58055130Y-92024398D01*
X58265626Y-92533837D01*
X58655053Y-92923944D01*
X59164124Y-93135329D01*
X59715338Y-93135810D01*
X59876965Y-93069027D01*
X78809032Y-93069027D01*
X79057179Y-93598490D01*
X79489053Y-93992688D01*
X79904974Y-94164958D01*
X80137000Y-94043817D01*
X80137000Y-92837000D01*
X78929531Y-92837000D01*
X78809032Y-93069027D01*
X59876965Y-93069027D01*
X60224777Y-92925314D01*
X60614884Y-92535887D01*
X60826269Y-92026816D01*
X60826750Y-91475602D01*
X60616254Y-90966163D01*
X60226827Y-90576056D01*
X59717756Y-90364671D01*
X59166542Y-90364190D01*
X59165655Y-90364557D01*
X57996019Y-89194921D01*
X57741347Y-89024755D01*
X57440940Y-88965000D01*
X53825158Y-88965000D01*
X52535000Y-87674842D01*
X52535000Y-87533598D01*
X52762736Y-87685767D01*
X53311887Y-87795000D01*
X53368113Y-87795000D01*
X53917264Y-87685767D01*
X54382811Y-87374698D01*
X54693880Y-86909151D01*
X54803113Y-86360000D01*
X54693880Y-85810849D01*
X54656564Y-85755001D01*
X59643436Y-85755001D01*
X59606120Y-85810849D01*
X59496887Y-86360000D01*
X59606120Y-86909151D01*
X59917189Y-87374698D01*
X60382736Y-87685767D01*
X60931887Y-87795000D01*
X60988113Y-87795000D01*
X61537264Y-87685767D01*
X62002811Y-87374698D01*
X62156291Y-87145000D01*
X66901539Y-87145000D01*
X66956883Y-87278943D01*
X67219673Y-87542192D01*
X67563201Y-87684838D01*
X67935167Y-87685162D01*
X68278943Y-87543117D01*
X68542192Y-87280327D01*
X68684838Y-86936799D01*
X68685162Y-86564833D01*
X68631474Y-86434897D01*
X68935167Y-86435162D01*
X69278943Y-86293117D01*
X69542192Y-86030327D01*
X69684838Y-85686799D01*
X69685162Y-85314833D01*
X69543117Y-84971057D01*
X69280327Y-84707808D01*
X68936799Y-84565162D01*
X68925310Y-84565152D01*
X68775080Y-84414922D01*
X68520408Y-84244756D01*
X68220001Y-84185001D01*
X62350510Y-84185001D01*
X62423113Y-83820000D01*
X62366423Y-83535000D01*
X68462494Y-83535000D01*
X68469673Y-83542192D01*
X68813201Y-83684838D01*
X69185167Y-83685162D01*
X69528943Y-83543117D01*
X69792192Y-83280327D01*
X69934838Y-82936799D01*
X69935162Y-82564833D01*
X69793117Y-82221057D01*
X69530327Y-81957808D01*
X69186799Y-81815162D01*
X68814833Y-81814838D01*
X68471057Y-81956883D01*
X68462926Y-81965000D01*
X67357196Y-81965000D01*
X67542192Y-81780327D01*
X67684838Y-81436799D01*
X67685162Y-81064833D01*
X67543117Y-80721057D01*
X67280327Y-80457808D01*
X66936799Y-80315162D01*
X66564833Y-80314838D01*
X66221057Y-80456883D01*
X66212926Y-80465000D01*
X62136245Y-80465000D01*
X62002811Y-80265302D01*
X61620725Y-80010000D01*
X62002811Y-79754698D01*
X62212472Y-79440918D01*
X62261673Y-79559699D01*
X62440302Y-79738327D01*
X62673691Y-79835000D01*
X63214250Y-79835000D01*
X63373000Y-79676250D01*
X63373000Y-78627000D01*
X63627000Y-78627000D01*
X63627000Y-79676250D01*
X63785750Y-79835000D01*
X64326309Y-79835000D01*
X64559698Y-79738327D01*
X64738327Y-79559699D01*
X64835000Y-79326310D01*
X64835000Y-78785750D01*
X64676250Y-78627000D01*
X63627000Y-78627000D01*
X63373000Y-78627000D01*
X63353000Y-78627000D01*
X63353000Y-78373000D01*
X63373000Y-78373000D01*
X63373000Y-78353000D01*
X63627000Y-78353000D01*
X63627000Y-78373000D01*
X64676250Y-78373000D01*
X64835000Y-78214250D01*
X64835000Y-77784999D01*
X67351378Y-77784999D01*
X67165232Y-78233287D01*
X67164769Y-78764383D01*
X67367582Y-79255229D01*
X67742796Y-79631098D01*
X68233287Y-79834768D01*
X68764383Y-79835231D01*
X69255229Y-79632418D01*
X69631098Y-79257204D01*
X69834768Y-78766713D01*
X69835165Y-78311323D01*
X71197085Y-79673243D01*
X70936799Y-79565162D01*
X70564833Y-79564838D01*
X70221057Y-79706883D01*
X69957808Y-79969673D01*
X69815162Y-80313201D01*
X69814838Y-80685167D01*
X69956883Y-81028943D01*
X70219673Y-81292192D01*
X70316056Y-81332214D01*
X78824976Y-89841134D01*
X78765400Y-90140641D01*
X78765400Y-90199359D01*
X78879474Y-90772848D01*
X79204330Y-91259029D01*
X79475161Y-91439992D01*
X79057179Y-91821510D01*
X78809032Y-92350973D01*
X78929531Y-92583000D01*
X80137000Y-92583000D01*
X80137000Y-92563000D01*
X80391000Y-92563000D01*
X80391000Y-92583000D01*
X80411000Y-92583000D01*
X80411000Y-92837000D01*
X80391000Y-92837000D01*
X80391000Y-94043817D01*
X80623026Y-94164958D01*
X81038947Y-93992688D01*
X81470821Y-93598490D01*
X81528336Y-93475772D01*
X81744330Y-93799029D01*
X82230511Y-94123885D01*
X82804000Y-94237959D01*
X83377489Y-94123885D01*
X83863670Y-93799029D01*
X84074000Y-93484248D01*
X84284330Y-93799029D01*
X84770511Y-94123885D01*
X85344000Y-94237959D01*
X85917489Y-94123885D01*
X86403670Y-93799029D01*
X86728526Y-93312848D01*
X86842600Y-92739359D01*
X86842600Y-92680641D01*
X86740749Y-92168601D01*
X91161291Y-92168601D01*
X91206883Y-92278943D01*
X91469673Y-92542192D01*
X91813201Y-92684838D01*
X92185167Y-92685162D01*
X92528943Y-92543117D01*
X92792192Y-92280327D01*
X92934838Y-91936799D01*
X92935162Y-91564833D01*
X92793117Y-91221057D01*
X92530327Y-90957808D01*
X92186799Y-90815162D01*
X92168662Y-90815146D01*
X91934008Y-90658356D01*
X91633601Y-90598601D01*
X88946890Y-90598601D01*
X89034838Y-90386799D01*
X89035162Y-90014833D01*
X88893117Y-89671057D01*
X88885000Y-89662926D01*
X88885000Y-87800000D01*
X88825245Y-87499594D01*
X88655079Y-87244921D01*
X81235153Y-79824995D01*
X81235162Y-79814833D01*
X81093117Y-79471057D01*
X80830327Y-79207808D01*
X80486799Y-79065162D01*
X80114833Y-79064838D01*
X79771057Y-79206883D01*
X79507808Y-79469673D01*
X79365162Y-79813201D01*
X79364838Y-80185167D01*
X79506883Y-80528943D01*
X79769673Y-80792192D01*
X80113201Y-80934838D01*
X80124690Y-80934848D01*
X87315000Y-88125158D01*
X87315000Y-89662494D01*
X87307808Y-89669673D01*
X87165162Y-90013201D01*
X87164838Y-90385167D01*
X87253027Y-90598601D01*
X86855040Y-90598601D01*
X86855040Y-89306400D01*
X86810762Y-89071083D01*
X86671690Y-88854959D01*
X86459490Y-88709969D01*
X86207600Y-88658960D01*
X84480400Y-88658960D01*
X84245083Y-88703238D01*
X84244136Y-88703848D01*
X71325288Y-75785000D01*
X80174842Y-75785000D01*
X100448921Y-96059079D01*
X100703594Y-96229245D01*
X101004000Y-96289000D01*
X101769421Y-96289000D01*
X102113647Y-96633827D01*
X102603587Y-96837268D01*
X103134086Y-96837731D01*
X103624380Y-96635146D01*
X103999827Y-96260353D01*
X104203268Y-95770413D01*
X104203270Y-95768086D01*
X109156269Y-95768086D01*
X109358854Y-96258380D01*
X109733647Y-96633827D01*
X110223587Y-96837268D01*
X110754086Y-96837731D01*
X111244380Y-96635146D01*
X111619827Y-96260353D01*
X111801143Y-95823694D01*
X112365226Y-95823694D01*
X112613538Y-96424655D01*
X113072927Y-96884846D01*
X113673453Y-97134206D01*
X114323694Y-97134774D01*
X114924655Y-96886462D01*
X115384846Y-96427073D01*
X115634206Y-95826547D01*
X115634208Y-95823694D01*
X119365226Y-95823694D01*
X119613538Y-96424655D01*
X120072927Y-96884846D01*
X120673453Y-97134206D01*
X121323694Y-97134774D01*
X121924655Y-96886462D01*
X122384846Y-96427073D01*
X122634206Y-95826547D01*
X122634774Y-95176306D01*
X122386462Y-94575345D01*
X121927073Y-94115154D01*
X121326547Y-93865794D01*
X120676306Y-93865226D01*
X120075345Y-94113538D01*
X119615154Y-94572927D01*
X119365794Y-95173453D01*
X119365226Y-95823694D01*
X115634208Y-95823694D01*
X115634774Y-95176306D01*
X115386462Y-94575345D01*
X114927073Y-94115154D01*
X114326547Y-93865794D01*
X113676306Y-93865226D01*
X113075345Y-94113538D01*
X112615154Y-94572927D01*
X112365794Y-95173453D01*
X112365226Y-95823694D01*
X111801143Y-95823694D01*
X111823268Y-95770413D01*
X111823731Y-95239914D01*
X111621146Y-94749620D01*
X111246353Y-94374173D01*
X110756413Y-94170732D01*
X110225914Y-94170269D01*
X109735620Y-94372854D01*
X109360173Y-94747647D01*
X109156732Y-95237587D01*
X109156269Y-95768086D01*
X104203270Y-95768086D01*
X104203731Y-95239914D01*
X104001146Y-94749620D01*
X103626353Y-94374173D01*
X103136413Y-94170732D01*
X102605914Y-94170269D01*
X102115620Y-94372854D01*
X101768870Y-94719000D01*
X101329158Y-94719000D01*
X97968346Y-91358188D01*
X102115417Y-91358188D01*
X102177071Y-91593800D01*
X102677480Y-91769927D01*
X103207199Y-91741148D01*
X103562929Y-91593800D01*
X103624583Y-91358188D01*
X109735417Y-91358188D01*
X109797071Y-91593800D01*
X110297480Y-91769927D01*
X110827199Y-91741148D01*
X111182929Y-91593800D01*
X111244583Y-91358188D01*
X110490000Y-90603605D01*
X109735417Y-91358188D01*
X103624583Y-91358188D01*
X102870000Y-90603605D01*
X102115417Y-91358188D01*
X97968346Y-91358188D01*
X96841638Y-90231480D01*
X101524073Y-90231480D01*
X101552852Y-90761199D01*
X101700200Y-91116929D01*
X101935812Y-91178583D01*
X102690395Y-90424000D01*
X103049605Y-90424000D01*
X103804188Y-91178583D01*
X104039800Y-91116929D01*
X104215927Y-90616520D01*
X104195009Y-90231480D01*
X109144073Y-90231480D01*
X109172852Y-90761199D01*
X109320200Y-91116929D01*
X109555812Y-91178583D01*
X110310395Y-90424000D01*
X110669605Y-90424000D01*
X111424188Y-91178583D01*
X111659800Y-91116929D01*
X111835927Y-90616520D01*
X111807148Y-90086801D01*
X111771194Y-90000000D01*
X141315000Y-90000000D01*
X141595504Y-91410188D01*
X142394312Y-92605688D01*
X143589812Y-93404496D01*
X145000000Y-93685000D01*
X146410188Y-93404496D01*
X147605688Y-92605688D01*
X148404496Y-91410188D01*
X148685000Y-90000000D01*
X148404496Y-88589812D01*
X147605688Y-87394312D01*
X146410188Y-86595504D01*
X145000000Y-86315000D01*
X143589812Y-86595504D01*
X142394312Y-87394312D01*
X141595504Y-88589812D01*
X141315000Y-90000000D01*
X111771194Y-90000000D01*
X111659800Y-89731071D01*
X111424188Y-89669417D01*
X110669605Y-90424000D01*
X110310395Y-90424000D01*
X109555812Y-89669417D01*
X109320200Y-89731071D01*
X109144073Y-90231480D01*
X104195009Y-90231480D01*
X104187148Y-90086801D01*
X104039800Y-89731071D01*
X103804188Y-89669417D01*
X103049605Y-90424000D01*
X102690395Y-90424000D01*
X101935812Y-89669417D01*
X101700200Y-89731071D01*
X101524073Y-90231480D01*
X96841638Y-90231480D01*
X96099970Y-89489812D01*
X102115417Y-89489812D01*
X102870000Y-90244395D01*
X103624583Y-89489812D01*
X109735417Y-89489812D01*
X110490000Y-90244395D01*
X111244583Y-89489812D01*
X111182929Y-89254200D01*
X110682520Y-89078073D01*
X110152801Y-89106852D01*
X109797071Y-89254200D01*
X109735417Y-89489812D01*
X103624583Y-89489812D01*
X103562929Y-89254200D01*
X103062520Y-89078073D01*
X102532801Y-89106852D01*
X102177071Y-89254200D01*
X102115417Y-89489812D01*
X96099970Y-89489812D01*
X93228726Y-86618568D01*
X98125352Y-86618568D01*
X98373664Y-87219529D01*
X98833053Y-87679720D01*
X99433579Y-87929080D01*
X100083820Y-87929648D01*
X100684781Y-87681336D01*
X101144972Y-87221947D01*
X101394332Y-86621421D01*
X101394334Y-86618568D01*
X110825352Y-86618568D01*
X111073664Y-87219529D01*
X111533053Y-87679720D01*
X112133579Y-87929080D01*
X112783820Y-87929648D01*
X113384781Y-87681336D01*
X113844972Y-87221947D01*
X114094332Y-86621421D01*
X114094334Y-86618568D01*
X123525352Y-86618568D01*
X123773664Y-87219529D01*
X124233053Y-87679720D01*
X124833579Y-87929080D01*
X125483820Y-87929648D01*
X126084781Y-87681336D01*
X126544972Y-87221947D01*
X126794332Y-86621421D01*
X126794334Y-86618568D01*
X136225352Y-86618568D01*
X136473664Y-87219529D01*
X136933053Y-87679720D01*
X137533579Y-87929080D01*
X138183820Y-87929648D01*
X138784781Y-87681336D01*
X139244972Y-87221947D01*
X139494332Y-86621421D01*
X139494900Y-85971180D01*
X139246588Y-85370219D01*
X138787199Y-84910028D01*
X138186673Y-84660668D01*
X137536432Y-84660100D01*
X136935471Y-84908412D01*
X136475280Y-85367801D01*
X136225920Y-85968327D01*
X136225352Y-86618568D01*
X126794334Y-86618568D01*
X126794900Y-85971180D01*
X126546588Y-85370219D01*
X126087199Y-84910028D01*
X125486673Y-84660668D01*
X124836432Y-84660100D01*
X124235471Y-84908412D01*
X123775280Y-85367801D01*
X123525920Y-85968327D01*
X123525352Y-86618568D01*
X114094334Y-86618568D01*
X114094900Y-85971180D01*
X113846588Y-85370219D01*
X113387199Y-84910028D01*
X112786673Y-84660668D01*
X112136432Y-84660100D01*
X111535471Y-84908412D01*
X111075280Y-85367801D01*
X110825920Y-85968327D01*
X110825352Y-86618568D01*
X101394334Y-86618568D01*
X101394900Y-85971180D01*
X101146588Y-85370219D01*
X100687199Y-84910028D01*
X100086673Y-84660668D01*
X99436432Y-84660100D01*
X98835471Y-84908412D01*
X98375280Y-85367801D01*
X98125920Y-85968327D01*
X98125352Y-86618568D01*
X93228726Y-86618568D01*
X88278978Y-81668820D01*
X103075100Y-81668820D01*
X103323412Y-82269781D01*
X103782801Y-82729972D01*
X104383327Y-82979332D01*
X105033568Y-82979900D01*
X105634529Y-82731588D01*
X106094720Y-82272199D01*
X106344080Y-81671673D01*
X106344082Y-81668820D01*
X115775100Y-81668820D01*
X116023412Y-82269781D01*
X116482801Y-82729972D01*
X117083327Y-82979332D01*
X117733568Y-82979900D01*
X118334529Y-82731588D01*
X118794720Y-82272199D01*
X119044080Y-81671673D01*
X119044082Y-81668820D01*
X128475100Y-81668820D01*
X128723412Y-82269781D01*
X129182801Y-82729972D01*
X129783327Y-82979332D01*
X130433568Y-82979900D01*
X131034529Y-82731588D01*
X131494720Y-82272199D01*
X131744080Y-81671673D01*
X131744082Y-81668820D01*
X141175100Y-81668820D01*
X141423412Y-82269781D01*
X141882801Y-82729972D01*
X142483327Y-82979332D01*
X143133568Y-82979900D01*
X143734529Y-82731588D01*
X144194720Y-82272199D01*
X144444080Y-81671673D01*
X144444648Y-81021432D01*
X144196336Y-80420471D01*
X143736947Y-79960280D01*
X143136421Y-79710920D01*
X142486180Y-79710352D01*
X141885219Y-79958664D01*
X141425028Y-80418053D01*
X141175668Y-81018579D01*
X141175100Y-81668820D01*
X131744082Y-81668820D01*
X131744648Y-81021432D01*
X131496336Y-80420471D01*
X131036947Y-79960280D01*
X130436421Y-79710920D01*
X129786180Y-79710352D01*
X129185219Y-79958664D01*
X128725028Y-80418053D01*
X128475668Y-81018579D01*
X128475100Y-81668820D01*
X119044082Y-81668820D01*
X119044648Y-81021432D01*
X118796336Y-80420471D01*
X118336947Y-79960280D01*
X117736421Y-79710920D01*
X117086180Y-79710352D01*
X116485219Y-79958664D01*
X116025028Y-80418053D01*
X115775668Y-81018579D01*
X115775100Y-81668820D01*
X106344082Y-81668820D01*
X106344648Y-81021432D01*
X106096336Y-80420471D01*
X105636947Y-79960280D01*
X105036421Y-79710920D01*
X104386180Y-79710352D01*
X103785219Y-79958664D01*
X103325028Y-80418053D01*
X103075668Y-81018579D01*
X103075100Y-81668820D01*
X88278978Y-81668820D01*
X85145335Y-78535177D01*
X95464838Y-78535177D01*
X95606883Y-78878953D01*
X95869673Y-79142202D01*
X96213201Y-79284848D01*
X96585167Y-79285172D01*
X96928943Y-79143127D01*
X96937074Y-79135010D01*
X107824832Y-79135010D01*
X108964847Y-80275025D01*
X108964838Y-80285167D01*
X109106883Y-80628943D01*
X109369673Y-80892192D01*
X109713201Y-81034838D01*
X110085167Y-81035162D01*
X110428943Y-80893117D01*
X110692192Y-80630327D01*
X110834838Y-80286799D01*
X110835162Y-79914833D01*
X110693117Y-79571057D01*
X110430327Y-79307808D01*
X110086799Y-79165162D01*
X110075290Y-79165152D01*
X108705069Y-77794931D01*
X108450397Y-77624765D01*
X108149990Y-77565010D01*
X96937506Y-77565010D01*
X96930327Y-77557818D01*
X96586799Y-77415172D01*
X96214833Y-77414848D01*
X95871057Y-77556893D01*
X95607808Y-77819683D01*
X95465162Y-78163211D01*
X95464838Y-78535177D01*
X85145335Y-78535177D01*
X81825908Y-75215750D01*
X98745000Y-75215750D01*
X98745000Y-76056309D01*
X98841673Y-76289698D01*
X99020301Y-76468327D01*
X99253690Y-76565000D01*
X100044250Y-76565000D01*
X100203000Y-76406250D01*
X100203000Y-75057000D01*
X98903750Y-75057000D01*
X98745000Y-75215750D01*
X81825908Y-75215750D01*
X81055079Y-74444921D01*
X80800407Y-74274755D01*
X80500000Y-74215000D01*
X70545156Y-74215000D01*
X70133847Y-73803691D01*
X98745000Y-73803691D01*
X98745000Y-74644250D01*
X98903750Y-74803000D01*
X100203000Y-74803000D01*
X100203000Y-73453750D01*
X100457000Y-73453750D01*
X100457000Y-74803000D01*
X100477000Y-74803000D01*
X100477000Y-75057000D01*
X100457000Y-75057000D01*
X100457000Y-76406250D01*
X100615750Y-76565000D01*
X101406310Y-76565000D01*
X101639699Y-76468327D01*
X101818327Y-76289698D01*
X101868012Y-76169749D01*
X101970997Y-76272914D01*
X102553341Y-76514724D01*
X103183893Y-76515275D01*
X103766657Y-76274481D01*
X104212914Y-75829003D01*
X104454724Y-75246659D01*
X104454751Y-75215750D01*
X105095000Y-75215750D01*
X105095000Y-76056309D01*
X105191673Y-76289698D01*
X105370301Y-76468327D01*
X105603690Y-76565000D01*
X106394250Y-76565000D01*
X106553000Y-76406250D01*
X106553000Y-75057000D01*
X105253750Y-75057000D01*
X105095000Y-75215750D01*
X104454751Y-75215750D01*
X104455275Y-74616107D01*
X104214481Y-74033343D01*
X103985230Y-73803691D01*
X105095000Y-73803691D01*
X105095000Y-74644250D01*
X105253750Y-74803000D01*
X106553000Y-74803000D01*
X106553000Y-73453750D01*
X106807000Y-73453750D01*
X106807000Y-74803000D01*
X106827000Y-74803000D01*
X106827000Y-75057000D01*
X106807000Y-75057000D01*
X106807000Y-76406250D01*
X106965750Y-76565000D01*
X107756310Y-76565000D01*
X107989699Y-76468327D01*
X108168327Y-76289698D01*
X108218012Y-76169749D01*
X108320997Y-76272914D01*
X108903341Y-76514724D01*
X109533893Y-76515275D01*
X110116657Y-76274481D01*
X110562914Y-75829003D01*
X110804724Y-75246659D01*
X110804751Y-75215750D01*
X111445000Y-75215750D01*
X111445000Y-76056309D01*
X111541673Y-76289698D01*
X111720301Y-76468327D01*
X111953690Y-76565000D01*
X112744250Y-76565000D01*
X112903000Y-76406250D01*
X112903000Y-75057000D01*
X111603750Y-75057000D01*
X111445000Y-75215750D01*
X110804751Y-75215750D01*
X110805275Y-74616107D01*
X110564481Y-74033343D01*
X110335230Y-73803691D01*
X111445000Y-73803691D01*
X111445000Y-74644250D01*
X111603750Y-74803000D01*
X112903000Y-74803000D01*
X112903000Y-73453750D01*
X113157000Y-73453750D01*
X113157000Y-74803000D01*
X113177000Y-74803000D01*
X113177000Y-75057000D01*
X113157000Y-75057000D01*
X113157000Y-76406250D01*
X113315750Y-76565000D01*
X114106310Y-76565000D01*
X114339699Y-76468327D01*
X114518327Y-76289698D01*
X114568012Y-76169749D01*
X114670997Y-76272914D01*
X115253341Y-76514724D01*
X115883893Y-76515275D01*
X116466657Y-76274481D01*
X116912914Y-75829003D01*
X117154724Y-75246659D01*
X117154751Y-75215750D01*
X117795000Y-75215750D01*
X117795000Y-76056309D01*
X117891673Y-76289698D01*
X118070301Y-76468327D01*
X118303690Y-76565000D01*
X119094250Y-76565000D01*
X119253000Y-76406250D01*
X119253000Y-75057000D01*
X117953750Y-75057000D01*
X117795000Y-75215750D01*
X117154751Y-75215750D01*
X117155275Y-74616107D01*
X116914481Y-74033343D01*
X116685230Y-73803691D01*
X117795000Y-73803691D01*
X117795000Y-74644250D01*
X117953750Y-74803000D01*
X119253000Y-74803000D01*
X119253000Y-73453750D01*
X119507000Y-73453750D01*
X119507000Y-74803000D01*
X119527000Y-74803000D01*
X119527000Y-75057000D01*
X119507000Y-75057000D01*
X119507000Y-76406250D01*
X119665750Y-76565000D01*
X120456310Y-76565000D01*
X120689699Y-76468327D01*
X120868327Y-76289698D01*
X120918012Y-76169749D01*
X121020997Y-76272914D01*
X121603341Y-76514724D01*
X122233893Y-76515275D01*
X122816657Y-76274481D01*
X123262914Y-75829003D01*
X123504724Y-75246659D01*
X123504751Y-75215750D01*
X124145000Y-75215750D01*
X124145000Y-76056309D01*
X124241673Y-76289698D01*
X124420301Y-76468327D01*
X124653690Y-76565000D01*
X125444250Y-76565000D01*
X125603000Y-76406250D01*
X125603000Y-75057000D01*
X124303750Y-75057000D01*
X124145000Y-75215750D01*
X123504751Y-75215750D01*
X123505275Y-74616107D01*
X123264481Y-74033343D01*
X123035230Y-73803691D01*
X124145000Y-73803691D01*
X124145000Y-74644250D01*
X124303750Y-74803000D01*
X125603000Y-74803000D01*
X125603000Y-73453750D01*
X125857000Y-73453750D01*
X125857000Y-74803000D01*
X125877000Y-74803000D01*
X125877000Y-75057000D01*
X125857000Y-75057000D01*
X125857000Y-76406250D01*
X126015750Y-76565000D01*
X126806310Y-76565000D01*
X127039699Y-76468327D01*
X127218327Y-76289698D01*
X127268012Y-76169749D01*
X127370997Y-76272914D01*
X127953341Y-76514724D01*
X128583893Y-76515275D01*
X129166657Y-76274481D01*
X129612914Y-75829003D01*
X129854724Y-75246659D01*
X129854751Y-75215750D01*
X130495000Y-75215750D01*
X130495000Y-76056309D01*
X130591673Y-76289698D01*
X130770301Y-76468327D01*
X131003690Y-76565000D01*
X131794250Y-76565000D01*
X131953000Y-76406250D01*
X131953000Y-75057000D01*
X130653750Y-75057000D01*
X130495000Y-75215750D01*
X129854751Y-75215750D01*
X129855275Y-74616107D01*
X129614481Y-74033343D01*
X129385230Y-73803691D01*
X130495000Y-73803691D01*
X130495000Y-74644250D01*
X130653750Y-74803000D01*
X131953000Y-74803000D01*
X131953000Y-73453750D01*
X132207000Y-73453750D01*
X132207000Y-74803000D01*
X132227000Y-74803000D01*
X132227000Y-75057000D01*
X132207000Y-75057000D01*
X132207000Y-76406250D01*
X132365750Y-76565000D01*
X133156310Y-76565000D01*
X133389699Y-76468327D01*
X133568327Y-76289698D01*
X133618012Y-76169749D01*
X133720997Y-76272914D01*
X134303341Y-76514724D01*
X134933893Y-76515275D01*
X135516657Y-76274481D01*
X135962914Y-75829003D01*
X136204724Y-75246659D01*
X136204751Y-75215750D01*
X136845000Y-75215750D01*
X136845000Y-76056309D01*
X136941673Y-76289698D01*
X137120301Y-76468327D01*
X137353690Y-76565000D01*
X138144250Y-76565000D01*
X138303000Y-76406250D01*
X138303000Y-75057000D01*
X137003750Y-75057000D01*
X136845000Y-75215750D01*
X136204751Y-75215750D01*
X136205275Y-74616107D01*
X135964481Y-74033343D01*
X135735230Y-73803691D01*
X136845000Y-73803691D01*
X136845000Y-74644250D01*
X137003750Y-74803000D01*
X138303000Y-74803000D01*
X138303000Y-73453750D01*
X138557000Y-73453750D01*
X138557000Y-74803000D01*
X138577000Y-74803000D01*
X138577000Y-75057000D01*
X138557000Y-75057000D01*
X138557000Y-76406250D01*
X138715750Y-76565000D01*
X139506310Y-76565000D01*
X139739699Y-76468327D01*
X139918327Y-76289698D01*
X139968012Y-76169749D01*
X140070997Y-76272914D01*
X140653341Y-76514724D01*
X141283893Y-76515275D01*
X141866657Y-76274481D01*
X142312914Y-75829003D01*
X142554724Y-75246659D01*
X142554751Y-75215750D01*
X143195000Y-75215750D01*
X143195000Y-76056309D01*
X143291673Y-76289698D01*
X143470301Y-76468327D01*
X143703690Y-76565000D01*
X144494250Y-76565000D01*
X144653000Y-76406250D01*
X144653000Y-75057000D01*
X143353750Y-75057000D01*
X143195000Y-75215750D01*
X142554751Y-75215750D01*
X142555275Y-74616107D01*
X142314481Y-74033343D01*
X142085230Y-73803691D01*
X143195000Y-73803691D01*
X143195000Y-74644250D01*
X143353750Y-74803000D01*
X144653000Y-74803000D01*
X144653000Y-73453750D01*
X144907000Y-73453750D01*
X144907000Y-74803000D01*
X144927000Y-74803000D01*
X144927000Y-75057000D01*
X144907000Y-75057000D01*
X144907000Y-76406250D01*
X145065750Y-76565000D01*
X145856310Y-76565000D01*
X146089699Y-76468327D01*
X146268327Y-76289698D01*
X146318012Y-76169749D01*
X146420997Y-76272914D01*
X147003341Y-76514724D01*
X147633893Y-76515275D01*
X148216657Y-76274481D01*
X148662914Y-75829003D01*
X148904724Y-75246659D01*
X148905275Y-74616107D01*
X148664481Y-74033343D01*
X148219003Y-73587086D01*
X147636659Y-73345276D01*
X147006107Y-73344725D01*
X146423343Y-73585519D01*
X146318133Y-73690545D01*
X146268327Y-73570302D01*
X146089699Y-73391673D01*
X145856310Y-73295000D01*
X145065750Y-73295000D01*
X144907000Y-73453750D01*
X144653000Y-73453750D01*
X144494250Y-73295000D01*
X143703690Y-73295000D01*
X143470301Y-73391673D01*
X143291673Y-73570302D01*
X143195000Y-73803691D01*
X142085230Y-73803691D01*
X141869003Y-73587086D01*
X141286659Y-73345276D01*
X140656107Y-73344725D01*
X140073343Y-73585519D01*
X139968133Y-73690545D01*
X139918327Y-73570302D01*
X139739699Y-73391673D01*
X139506310Y-73295000D01*
X138715750Y-73295000D01*
X138557000Y-73453750D01*
X138303000Y-73453750D01*
X138144250Y-73295000D01*
X137353690Y-73295000D01*
X137120301Y-73391673D01*
X136941673Y-73570302D01*
X136845000Y-73803691D01*
X135735230Y-73803691D01*
X135519003Y-73587086D01*
X134936659Y-73345276D01*
X134306107Y-73344725D01*
X133723343Y-73585519D01*
X133618133Y-73690545D01*
X133568327Y-73570302D01*
X133389699Y-73391673D01*
X133156310Y-73295000D01*
X132365750Y-73295000D01*
X132207000Y-73453750D01*
X131953000Y-73453750D01*
X131794250Y-73295000D01*
X131003690Y-73295000D01*
X130770301Y-73391673D01*
X130591673Y-73570302D01*
X130495000Y-73803691D01*
X129385230Y-73803691D01*
X129169003Y-73587086D01*
X128586659Y-73345276D01*
X127956107Y-73344725D01*
X127373343Y-73585519D01*
X127268133Y-73690545D01*
X127218327Y-73570302D01*
X127039699Y-73391673D01*
X126806310Y-73295000D01*
X126015750Y-73295000D01*
X125857000Y-73453750D01*
X125603000Y-73453750D01*
X125444250Y-73295000D01*
X124653690Y-73295000D01*
X124420301Y-73391673D01*
X124241673Y-73570302D01*
X124145000Y-73803691D01*
X123035230Y-73803691D01*
X122819003Y-73587086D01*
X122236659Y-73345276D01*
X121606107Y-73344725D01*
X121023343Y-73585519D01*
X120918133Y-73690545D01*
X120868327Y-73570302D01*
X120689699Y-73391673D01*
X120456310Y-73295000D01*
X119665750Y-73295000D01*
X119507000Y-73453750D01*
X119253000Y-73453750D01*
X119094250Y-73295000D01*
X118303690Y-73295000D01*
X118070301Y-73391673D01*
X117891673Y-73570302D01*
X117795000Y-73803691D01*
X116685230Y-73803691D01*
X116469003Y-73587086D01*
X115886659Y-73345276D01*
X115256107Y-73344725D01*
X114673343Y-73585519D01*
X114568133Y-73690545D01*
X114518327Y-73570302D01*
X114339699Y-73391673D01*
X114106310Y-73295000D01*
X113315750Y-73295000D01*
X113157000Y-73453750D01*
X112903000Y-73453750D01*
X112744250Y-73295000D01*
X111953690Y-73295000D01*
X111720301Y-73391673D01*
X111541673Y-73570302D01*
X111445000Y-73803691D01*
X110335230Y-73803691D01*
X110119003Y-73587086D01*
X109536659Y-73345276D01*
X108906107Y-73344725D01*
X108323343Y-73585519D01*
X108218133Y-73690545D01*
X108168327Y-73570302D01*
X107989699Y-73391673D01*
X107756310Y-73295000D01*
X106965750Y-73295000D01*
X106807000Y-73453750D01*
X106553000Y-73453750D01*
X106394250Y-73295000D01*
X105603690Y-73295000D01*
X105370301Y-73391673D01*
X105191673Y-73570302D01*
X105095000Y-73803691D01*
X103985230Y-73803691D01*
X103769003Y-73587086D01*
X103186659Y-73345276D01*
X102556107Y-73344725D01*
X101973343Y-73585519D01*
X101868133Y-73690545D01*
X101818327Y-73570302D01*
X101639699Y-73391673D01*
X101406310Y-73295000D01*
X100615750Y-73295000D01*
X100457000Y-73453750D01*
X100203000Y-73453750D01*
X100044250Y-73295000D01*
X99253690Y-73295000D01*
X99020301Y-73391673D01*
X98841673Y-73570302D01*
X98745000Y-73803691D01*
X70133847Y-73803691D01*
X68927596Y-72597440D01*
X69200000Y-72597440D01*
X69435317Y-72553162D01*
X69651441Y-72414090D01*
X69796431Y-72201890D01*
X69847440Y-71950000D01*
X69847440Y-70550000D01*
X69803162Y-70314683D01*
X69664090Y-70098559D01*
X69603202Y-70056956D01*
X74055079Y-65605079D01*
X74225245Y-65350406D01*
X74285000Y-65050000D01*
X74285000Y-61245750D01*
X77851000Y-61245750D01*
X77851000Y-64134310D01*
X77947673Y-64367699D01*
X78126302Y-64546327D01*
X78359691Y-64643000D01*
X81248250Y-64643000D01*
X81407000Y-64484250D01*
X81407000Y-61087000D01*
X81661000Y-61087000D01*
X81661000Y-64484250D01*
X81819750Y-64643000D01*
X84708309Y-64643000D01*
X84941698Y-64546327D01*
X85120327Y-64367699D01*
X85217000Y-64134310D01*
X85217000Y-61245750D01*
X85058250Y-61087000D01*
X81661000Y-61087000D01*
X81407000Y-61087000D01*
X78009750Y-61087000D01*
X77851000Y-61245750D01*
X74285000Y-61245750D01*
X74285000Y-57785690D01*
X77851000Y-57785690D01*
X77851000Y-60674250D01*
X78009750Y-60833000D01*
X81407000Y-60833000D01*
X81407000Y-57435750D01*
X81661000Y-57435750D01*
X81661000Y-60833000D01*
X85058250Y-60833000D01*
X85217000Y-60674250D01*
X85217000Y-57912000D01*
X90157560Y-57912000D01*
X90157560Y-64008000D01*
X90201838Y-64243317D01*
X90340910Y-64459441D01*
X90553110Y-64604431D01*
X90805000Y-64655440D01*
X92968000Y-64655440D01*
X92968000Y-67852995D01*
X92967999Y-67853000D01*
X93017655Y-68102633D01*
X93035367Y-68191675D01*
X93119641Y-68317801D01*
X93206883Y-68528943D01*
X93469673Y-68792192D01*
X93813201Y-68934838D01*
X94185167Y-68935162D01*
X94418942Y-68838568D01*
X103075100Y-68838568D01*
X103323412Y-69439529D01*
X103782801Y-69899720D01*
X104383327Y-70149080D01*
X105033568Y-70149648D01*
X105634529Y-69901336D01*
X106094720Y-69441947D01*
X106344080Y-68841421D01*
X106344082Y-68838568D01*
X115775100Y-68838568D01*
X116023412Y-69439529D01*
X116482801Y-69899720D01*
X117083327Y-70149080D01*
X117733568Y-70149648D01*
X118334529Y-69901336D01*
X118794720Y-69441947D01*
X119044080Y-68841421D01*
X119044082Y-68838568D01*
X128475100Y-68838568D01*
X128723412Y-69439529D01*
X129182801Y-69899720D01*
X129783327Y-70149080D01*
X130433568Y-70149648D01*
X131034529Y-69901336D01*
X131463043Y-69473568D01*
X141175100Y-69473568D01*
X141423412Y-70074529D01*
X141882801Y-70534720D01*
X142483327Y-70784080D01*
X143133568Y-70784648D01*
X143734529Y-70536336D01*
X144194720Y-70076947D01*
X144444080Y-69476421D01*
X144444648Y-68826180D01*
X144196336Y-68225219D01*
X143736947Y-67765028D01*
X143136421Y-67515668D01*
X142486180Y-67515100D01*
X141885219Y-67763412D01*
X141425028Y-68222801D01*
X141175668Y-68823327D01*
X141175100Y-69473568D01*
X131463043Y-69473568D01*
X131494720Y-69441947D01*
X131744080Y-68841421D01*
X131744648Y-68191180D01*
X131496336Y-67590219D01*
X131036947Y-67130028D01*
X130436421Y-66880668D01*
X129786180Y-66880100D01*
X129185219Y-67128412D01*
X128725028Y-67587801D01*
X128475668Y-68188327D01*
X128475100Y-68838568D01*
X119044082Y-68838568D01*
X119044648Y-68191180D01*
X118796336Y-67590219D01*
X118336947Y-67130028D01*
X117736421Y-66880668D01*
X117086180Y-66880100D01*
X116485219Y-67128412D01*
X116025028Y-67587801D01*
X115775668Y-68188327D01*
X115775100Y-68838568D01*
X106344082Y-68838568D01*
X106344648Y-68191180D01*
X106096336Y-67590219D01*
X106091293Y-67585167D01*
X108264838Y-67585167D01*
X108406883Y-67928943D01*
X108669673Y-68192192D01*
X109013201Y-68334838D01*
X109385167Y-68335162D01*
X109728943Y-68193117D01*
X109737074Y-68185000D01*
X113662494Y-68185000D01*
X113669673Y-68192192D01*
X114013201Y-68334838D01*
X114385167Y-68335162D01*
X114728943Y-68193117D01*
X114992192Y-67930327D01*
X115134838Y-67586799D01*
X115135162Y-67214833D01*
X114993117Y-66871057D01*
X114730327Y-66607808D01*
X114386799Y-66465162D01*
X114014833Y-66464838D01*
X113671057Y-66606883D01*
X113662926Y-66615000D01*
X109737506Y-66615000D01*
X109730327Y-66607808D01*
X109386799Y-66465162D01*
X109014833Y-66464838D01*
X108671057Y-66606883D01*
X108407808Y-66869673D01*
X108265162Y-67213201D01*
X108264838Y-67585167D01*
X106091293Y-67585167D01*
X105636947Y-67130028D01*
X105036421Y-66880668D01*
X104386180Y-66880100D01*
X103785219Y-67128412D01*
X103325028Y-67587801D01*
X103075668Y-68188327D01*
X103075100Y-68838568D01*
X94418942Y-68838568D01*
X94528943Y-68793117D01*
X94792192Y-68530327D01*
X94934838Y-68186799D01*
X94935162Y-67814833D01*
X94793117Y-67471057D01*
X94738000Y-67415844D01*
X94738000Y-64655440D01*
X96901000Y-64655440D01*
X97136317Y-64611162D01*
X97352441Y-64472090D01*
X97497431Y-64259890D01*
X97548440Y-64008000D01*
X97548440Y-63888820D01*
X98125352Y-63888820D01*
X98373664Y-64489781D01*
X98833053Y-64949972D01*
X99433579Y-65199332D01*
X100083820Y-65199900D01*
X100684781Y-64951588D01*
X101144972Y-64492199D01*
X101394332Y-63891673D01*
X101394334Y-63888820D01*
X110825352Y-63888820D01*
X111073664Y-64489781D01*
X111533053Y-64949972D01*
X112133579Y-65199332D01*
X112783820Y-65199900D01*
X113384781Y-64951588D01*
X113844972Y-64492199D01*
X114094332Y-63891673D01*
X114094334Y-63888820D01*
X123525352Y-63888820D01*
X123773664Y-64489781D01*
X124233053Y-64949972D01*
X124833579Y-65199332D01*
X125483820Y-65199900D01*
X126084781Y-64951588D01*
X126513295Y-64523820D01*
X136225352Y-64523820D01*
X136473664Y-65124781D01*
X136933053Y-65584972D01*
X137533579Y-65834332D01*
X138183820Y-65834900D01*
X138784781Y-65586588D01*
X139244972Y-65127199D01*
X139494332Y-64526673D01*
X139494900Y-63876432D01*
X139246588Y-63275471D01*
X138787199Y-62815280D01*
X138186673Y-62565920D01*
X137536432Y-62565352D01*
X136935471Y-62813664D01*
X136475280Y-63273053D01*
X136225920Y-63873579D01*
X136225352Y-64523820D01*
X126513295Y-64523820D01*
X126544972Y-64492199D01*
X126794332Y-63891673D01*
X126794900Y-63241432D01*
X126546588Y-62640471D01*
X126087199Y-62180280D01*
X125486673Y-61930920D01*
X124836432Y-61930352D01*
X124235471Y-62178664D01*
X123775280Y-62638053D01*
X123525920Y-63238579D01*
X123525352Y-63888820D01*
X114094334Y-63888820D01*
X114094900Y-63241432D01*
X113846588Y-62640471D01*
X113387199Y-62180280D01*
X112786673Y-61930920D01*
X112136432Y-61930352D01*
X111535471Y-62178664D01*
X111075280Y-62638053D01*
X110825920Y-63238579D01*
X110825352Y-63888820D01*
X101394334Y-63888820D01*
X101394900Y-63241432D01*
X101146588Y-62640471D01*
X100687199Y-62180280D01*
X100086673Y-61930920D01*
X99436432Y-61930352D01*
X98835471Y-62178664D01*
X98375280Y-62638053D01*
X98125920Y-63238579D01*
X98125352Y-63888820D01*
X97548440Y-63888820D01*
X97548440Y-60370188D01*
X102115417Y-60370188D01*
X102177071Y-60605800D01*
X102677480Y-60781927D01*
X103207199Y-60753148D01*
X103562929Y-60605800D01*
X103624583Y-60370188D01*
X109735417Y-60370188D01*
X109797071Y-60605800D01*
X110297480Y-60781927D01*
X110827199Y-60753148D01*
X111182929Y-60605800D01*
X111244583Y-60370188D01*
X110490000Y-59615605D01*
X109735417Y-60370188D01*
X103624583Y-60370188D01*
X102870000Y-59615605D01*
X102115417Y-60370188D01*
X97548440Y-60370188D01*
X97548440Y-59243480D01*
X101524073Y-59243480D01*
X101552852Y-59773199D01*
X101700200Y-60128929D01*
X101935812Y-60190583D01*
X102690395Y-59436000D01*
X103049605Y-59436000D01*
X103804188Y-60190583D01*
X104039800Y-60128929D01*
X104215927Y-59628520D01*
X104195009Y-59243480D01*
X109144073Y-59243480D01*
X109172852Y-59773199D01*
X109320200Y-60128929D01*
X109555812Y-60190583D01*
X110310395Y-59436000D01*
X110669605Y-59436000D01*
X111424188Y-60190583D01*
X111659800Y-60128929D01*
X111705178Y-60000000D01*
X141315000Y-60000000D01*
X141595504Y-61410188D01*
X142394312Y-62605688D01*
X143589812Y-63404496D01*
X145000000Y-63685000D01*
X146410188Y-63404496D01*
X147605688Y-62605688D01*
X148404496Y-61410188D01*
X148685000Y-60000000D01*
X148404496Y-58589812D01*
X147605688Y-57394312D01*
X146410188Y-56595504D01*
X145000000Y-56315000D01*
X143589812Y-56595504D01*
X142394312Y-57394312D01*
X141595504Y-58589812D01*
X141315000Y-60000000D01*
X111705178Y-60000000D01*
X111835927Y-59628520D01*
X111807148Y-59098801D01*
X111659800Y-58743071D01*
X111424188Y-58681417D01*
X110669605Y-59436000D01*
X110310395Y-59436000D01*
X109555812Y-58681417D01*
X109320200Y-58743071D01*
X109144073Y-59243480D01*
X104195009Y-59243480D01*
X104187148Y-59098801D01*
X104039800Y-58743071D01*
X103804188Y-58681417D01*
X103049605Y-59436000D01*
X102690395Y-59436000D01*
X101935812Y-58681417D01*
X101700200Y-58743071D01*
X101524073Y-59243480D01*
X97548440Y-59243480D01*
X97548440Y-58501812D01*
X102115417Y-58501812D01*
X102870000Y-59256395D01*
X103624583Y-58501812D01*
X109735417Y-58501812D01*
X110490000Y-59256395D01*
X111244583Y-58501812D01*
X111182929Y-58266200D01*
X110682520Y-58090073D01*
X110152801Y-58118852D01*
X109797071Y-58266200D01*
X109735417Y-58501812D01*
X103624583Y-58501812D01*
X103562929Y-58266200D01*
X103062520Y-58090073D01*
X102532801Y-58118852D01*
X102177071Y-58266200D01*
X102115417Y-58501812D01*
X97548440Y-58501812D01*
X97548440Y-57912000D01*
X97504162Y-57676683D01*
X97365090Y-57460559D01*
X97152890Y-57315569D01*
X96901000Y-57264560D01*
X90805000Y-57264560D01*
X90569683Y-57308838D01*
X90353559Y-57447910D01*
X90208569Y-57660110D01*
X90157560Y-57912000D01*
X85217000Y-57912000D01*
X85217000Y-57785690D01*
X85120327Y-57552301D01*
X84941698Y-57373673D01*
X84708309Y-57277000D01*
X81819750Y-57277000D01*
X81661000Y-57435750D01*
X81407000Y-57435750D01*
X81248250Y-57277000D01*
X78359691Y-57277000D01*
X78126302Y-57373673D01*
X77947673Y-57552301D01*
X77851000Y-57785690D01*
X74285000Y-57785690D01*
X74285000Y-56250000D01*
X74225245Y-55949594D01*
X74055079Y-55694921D01*
X74055076Y-55694919D01*
X70185079Y-51824921D01*
X69930407Y-51654755D01*
X69630000Y-51595000D01*
X65198166Y-51595000D01*
X65140462Y-51455345D01*
X64681073Y-50995154D01*
X64080547Y-50745794D01*
X63430306Y-50745226D01*
X63281545Y-50806693D01*
X63174249Y-50735000D01*
X112109793Y-50735000D01*
X111701154Y-51142927D01*
G36*
X57164921Y-71675079D02*
X57419594Y-71845245D01*
X57720000Y-71905000D01*
X59763709Y-71905000D01*
X59917189Y-72134698D01*
X60299275Y-72390000D01*
X59917189Y-72645302D01*
X59606120Y-73110849D01*
X59496887Y-73660000D01*
X59606120Y-74209151D01*
X59917189Y-74674698D01*
X60299275Y-74930000D01*
X59917189Y-75185302D01*
X59606120Y-75650849D01*
X59496887Y-76200000D01*
X59606120Y-76749151D01*
X59917189Y-77214698D01*
X60299275Y-77470000D01*
X59917189Y-77725302D01*
X59606120Y-78190849D01*
X59496887Y-78740000D01*
X59606120Y-79289151D01*
X59917189Y-79754698D01*
X60299275Y-80010000D01*
X59917189Y-80265302D01*
X59606120Y-80730849D01*
X59496887Y-81280000D01*
X59606120Y-81829151D01*
X59917189Y-82294698D01*
X60299275Y-82550000D01*
X59917189Y-82805302D01*
X59606120Y-83270849D01*
X59496887Y-83820000D01*
X59569490Y-84185001D01*
X54815159Y-84185001D01*
X54744554Y-84114396D01*
X54803113Y-83820000D01*
X54693880Y-83270849D01*
X54382811Y-82805302D01*
X54000725Y-82550000D01*
X54382811Y-82294698D01*
X54693880Y-81829151D01*
X54803113Y-81280000D01*
X54693880Y-80730849D01*
X54382811Y-80265302D01*
X54000725Y-80010000D01*
X54382811Y-79754698D01*
X54693880Y-79289151D01*
X54803113Y-78740000D01*
X54693880Y-78190849D01*
X54382811Y-77725302D01*
X54000725Y-77470000D01*
X54382811Y-77214698D01*
X54693880Y-76749151D01*
X54803113Y-76200000D01*
X54693880Y-75650849D01*
X54382811Y-75185302D01*
X54000725Y-74930000D01*
X54382811Y-74674698D01*
X54693880Y-74209151D01*
X54707049Y-74142943D01*
X57833396Y-77269290D01*
X57815162Y-77313201D01*
X57814838Y-77685167D01*
X57956883Y-78028943D01*
X58219673Y-78292192D01*
X58563201Y-78434838D01*
X58935167Y-78435162D01*
X59278943Y-78293117D01*
X59542192Y-78030327D01*
X59684838Y-77686799D01*
X59685162Y-77314833D01*
X59543117Y-76971057D01*
X59506977Y-76934854D01*
X59475245Y-76775330D01*
X59305079Y-76520657D01*
X54591778Y-71807356D01*
X54731904Y-71469039D01*
X54609915Y-71247000D01*
X53467000Y-71247000D01*
X53467000Y-71267000D01*
X53213000Y-71267000D01*
X53213000Y-71247000D01*
X53193000Y-71247000D01*
X53193000Y-70993000D01*
X53213000Y-70993000D01*
X53213000Y-70973000D01*
X53467000Y-70973000D01*
X53467000Y-70993000D01*
X54609915Y-70993000D01*
X54731904Y-70770961D01*
X54571041Y-70382577D01*
X54195134Y-69967611D01*
X53978297Y-69864986D01*
X54382811Y-69594698D01*
X54536291Y-69365000D01*
X54854842Y-69365000D01*
X57164921Y-71675079D01*
X57164921Y-71675079D01*
G37*
X57164921Y-71675079D02*
X57419594Y-71845245D01*
X57720000Y-71905000D01*
X59763709Y-71905000D01*
X59917189Y-72134698D01*
X60299275Y-72390000D01*
X59917189Y-72645302D01*
X59606120Y-73110849D01*
X59496887Y-73660000D01*
X59606120Y-74209151D01*
X59917189Y-74674698D01*
X60299275Y-74930000D01*
X59917189Y-75185302D01*
X59606120Y-75650849D01*
X59496887Y-76200000D01*
X59606120Y-76749151D01*
X59917189Y-77214698D01*
X60299275Y-77470000D01*
X59917189Y-77725302D01*
X59606120Y-78190849D01*
X59496887Y-78740000D01*
X59606120Y-79289151D01*
X59917189Y-79754698D01*
X60299275Y-80010000D01*
X59917189Y-80265302D01*
X59606120Y-80730849D01*
X59496887Y-81280000D01*
X59606120Y-81829151D01*
X59917189Y-82294698D01*
X60299275Y-82550000D01*
X59917189Y-82805302D01*
X59606120Y-83270849D01*
X59496887Y-83820000D01*
X59569490Y-84185001D01*
X54815159Y-84185001D01*
X54744554Y-84114396D01*
X54803113Y-83820000D01*
X54693880Y-83270849D01*
X54382811Y-82805302D01*
X54000725Y-82550000D01*
X54382811Y-82294698D01*
X54693880Y-81829151D01*
X54803113Y-81280000D01*
X54693880Y-80730849D01*
X54382811Y-80265302D01*
X54000725Y-80010000D01*
X54382811Y-79754698D01*
X54693880Y-79289151D01*
X54803113Y-78740000D01*
X54693880Y-78190849D01*
X54382811Y-77725302D01*
X54000725Y-77470000D01*
X54382811Y-77214698D01*
X54693880Y-76749151D01*
X54803113Y-76200000D01*
X54693880Y-75650849D01*
X54382811Y-75185302D01*
X54000725Y-74930000D01*
X54382811Y-74674698D01*
X54693880Y-74209151D01*
X54707049Y-74142943D01*
X57833396Y-77269290D01*
X57815162Y-77313201D01*
X57814838Y-77685167D01*
X57956883Y-78028943D01*
X58219673Y-78292192D01*
X58563201Y-78434838D01*
X58935167Y-78435162D01*
X59278943Y-78293117D01*
X59542192Y-78030327D01*
X59684838Y-77686799D01*
X59685162Y-77314833D01*
X59543117Y-76971057D01*
X59506977Y-76934854D01*
X59475245Y-76775330D01*
X59305079Y-76520657D01*
X54591778Y-71807356D01*
X54731904Y-71469039D01*
X54609915Y-71247000D01*
X53467000Y-71247000D01*
X53467000Y-71267000D01*
X53213000Y-71267000D01*
X53213000Y-71247000D01*
X53193000Y-71247000D01*
X53193000Y-70993000D01*
X53213000Y-70993000D01*
X53213000Y-70973000D01*
X53467000Y-70973000D01*
X53467000Y-70993000D01*
X54609915Y-70993000D01*
X54731904Y-70770961D01*
X54571041Y-70382577D01*
X54195134Y-69967611D01*
X53978297Y-69864986D01*
X54382811Y-69594698D01*
X54536291Y-69365000D01*
X54854842Y-69365000D01*
X57164921Y-71675079D01*
G36*
X59124920Y-67985078D02*
X59379593Y-68155244D01*
X59582722Y-68195649D01*
X59568096Y-68230961D01*
X59690085Y-68453000D01*
X60833000Y-68453000D01*
X60833000Y-68433000D01*
X61087000Y-68433000D01*
X61087000Y-68453000D01*
X62229915Y-68453000D01*
X62347967Y-68238127D01*
X64208531Y-70098691D01*
X63766713Y-69915232D01*
X63235617Y-69914769D01*
X62744771Y-70117582D01*
X62368902Y-70492796D01*
X62321203Y-70607667D01*
X62313880Y-70570849D01*
X62002811Y-70105302D01*
X61598297Y-69835014D01*
X61815134Y-69732389D01*
X62191041Y-69317423D01*
X62351904Y-68929039D01*
X62229915Y-68707000D01*
X61087000Y-68707000D01*
X61087000Y-68727000D01*
X60833000Y-68727000D01*
X60833000Y-68707000D01*
X59690085Y-68707000D01*
X59568096Y-68929039D01*
X59728959Y-69317423D01*
X60104866Y-69732389D01*
X60321703Y-69835014D01*
X59917189Y-70105302D01*
X59763709Y-70335000D01*
X58045158Y-70335000D01*
X55735079Y-68024921D01*
X55480407Y-67854755D01*
X55180000Y-67795000D01*
X54536291Y-67795000D01*
X54382811Y-67565302D01*
X54000725Y-67310000D01*
X54382811Y-67054698D01*
X54693880Y-66589151D01*
X54803113Y-66040000D01*
X54693880Y-65490849D01*
X54382811Y-65025302D01*
X54000725Y-64770000D01*
X54382811Y-64514698D01*
X54536291Y-64285000D01*
X55424842Y-64285000D01*
X59124920Y-67985078D01*
X59124920Y-67985078D01*
G37*
X59124920Y-67985078D02*
X59379593Y-68155244D01*
X59582722Y-68195649D01*
X59568096Y-68230961D01*
X59690085Y-68453000D01*
X60833000Y-68453000D01*
X60833000Y-68433000D01*
X61087000Y-68433000D01*
X61087000Y-68453000D01*
X62229915Y-68453000D01*
X62347967Y-68238127D01*
X64208531Y-70098691D01*
X63766713Y-69915232D01*
X63235617Y-69914769D01*
X62744771Y-70117582D01*
X62368902Y-70492796D01*
X62321203Y-70607667D01*
X62313880Y-70570849D01*
X62002811Y-70105302D01*
X61598297Y-69835014D01*
X61815134Y-69732389D01*
X62191041Y-69317423D01*
X62351904Y-68929039D01*
X62229915Y-68707000D01*
X61087000Y-68707000D01*
X61087000Y-68727000D01*
X60833000Y-68727000D01*
X60833000Y-68707000D01*
X59690085Y-68707000D01*
X59568096Y-68929039D01*
X59728959Y-69317423D01*
X60104866Y-69732389D01*
X60321703Y-69835014D01*
X59917189Y-70105302D01*
X59763709Y-70335000D01*
X58045158Y-70335000D01*
X55735079Y-68024921D01*
X55480407Y-67854755D01*
X55180000Y-67795000D01*
X54536291Y-67795000D01*
X54382811Y-67565302D01*
X54000725Y-67310000D01*
X54382811Y-67054698D01*
X54693880Y-66589151D01*
X54803113Y-66040000D01*
X54693880Y-65490849D01*
X54382811Y-65025302D01*
X54000725Y-64770000D01*
X54382811Y-64514698D01*
X54536291Y-64285000D01*
X55424842Y-64285000D01*
X59124920Y-67985078D01*
M02*
