M48
;DRILL file {KiCad (2015-08-30 BZR 6134, Git 4e94d52)-product} date 10/20/2015 8:58:08 PM
;FORMAT={-:-/ absolute / inch / decimal}
FMAT,2
INCH,TZ
T1C0.016
T2C0.031
T3C0.032
T4C0.032
T5C0.035
T6C0.039
T7C0.040
%
G90
G05
M72
T1
X2.248Y-2.8425
X2.311Y-2.7441
X2.313Y-3.0512
X2.5197Y-2.9528
X2.628Y-3.1988
X2.6673Y-3.4154
X2.7047Y-2.3386
X2.7067Y-3.3661
X2.7165Y-2.6575
X2.7165Y-3.2579
X2.7854Y-3.1693
X3.1614Y-3.1496
X3.4685Y-3.5512
X3.622Y-3.6122
X3.6929Y-2.3346
X3.7008Y-2.6772
X3.7953Y-3.0846
X4.1929Y-2.2146
X4.2992Y-2.6535
X4.3268Y-3.1535
X4.4961Y-2.6535
T2
X2.1Y-2.1
X2.1Y-2.2
X2.1Y-2.3
X2.1Y-2.4
X2.1Y-2.5
X2.1Y-2.6
X2.1Y-2.7
X2.1Y-2.8
X2.1Y-2.9
X2.1Y-3.
X2.1Y-3.1
X2.1Y-3.2
X2.1Y-3.3
X2.1Y-3.4
X2.4Y-2.1
X2.4Y-2.2
X2.4Y-2.3
X2.4Y-2.4
X2.4Y-2.5
X2.4Y-2.6
X2.4Y-2.7
X2.4Y-2.8
X2.4Y-2.9
X2.4Y-3.
X2.4Y-3.1
X2.4Y-3.2
X2.4Y-3.3
X2.4Y-3.4
T3
X2.148Y-3.6122
X2.3402Y-3.6122
T4
X4.05Y-2.14
X4.05Y-2.34
X4.05Y-3.56
X4.05Y-3.76
X4.35Y-2.14
X4.35Y-2.34
X4.35Y-3.56
X4.35Y-3.76
T5
X2.0965Y-3.8189
X2.2933Y-3.8189
X2.3819Y-3.8189
X2.5Y-2.8051
X2.5Y-3.0906
X2.5787Y-3.8189
X2.6969Y-2.8051
X2.6969Y-3.0906
T6
X2.51Y-2.0622
X2.51Y-2.3378
X3.9276Y-2.5026
X3.9276Y-3.3974
X3.95Y-2.95
X4.05Y-2.95
X4.1224Y-2.6974
X4.1224Y-3.2026
X4.2Y-2.95
X4.3Y-2.95
X4.4276Y-2.5026
X4.4276Y-3.3974
X4.45Y-2.95
X4.4522Y-2.05
X4.4882Y-3.7598
X4.55Y-2.95
X4.6224Y-2.6974
X4.6224Y-3.2026
X4.7Y-2.95
X4.7278Y-2.05
X4.7638Y-3.7598
X4.8Y-2.95
X4.9276Y-2.5026
X4.9276Y-3.3974
X4.95Y-2.95
X5.05Y-2.95
X5.1224Y-2.6974
X5.1224Y-3.2026
X5.2Y-2.95
X5.3Y-2.95
X5.4276Y-2.5276
X5.4276Y-3.3974
X5.45Y-2.95
X5.55Y-2.95
X5.6224Y-2.7224
X5.6224Y-3.2026
X5.7Y-2.95
X5.8Y-2.95
T7
X3.03Y-3.84
X3.13Y-3.84
X3.16Y-3.55
X3.16Y-3.65
X3.23Y-3.84
X3.26Y-3.55
X3.26Y-3.65
X3.33Y-3.84
X3.36Y-3.55
X3.36Y-3.65
X3.43Y-3.84
X3.53Y-3.84
X5.0079Y-2.1165
X5.0079Y-2.2165
X5.1079Y-2.1165
X5.1079Y-2.2165
X5.2079Y-2.1165
X5.2079Y-2.2165
X5.3079Y-2.1165
X5.3079Y-2.2165
T0
M30
