G04 #@! TF.FileFunction,Soldermask,Bot*
%FSLAX46Y46*%
G04 Gerber Fmt 4.6, Leading zero omitted, Abs format (unit mm)*
G04 Created by KiCad (PCBNEW (2015-08-30 BZR 6134, Git 4e94d52)-product) date 10/20/2015 9:06:24 PM*
%MOMM*%
G01*
G04 APERTURE LIST*
%ADD10C,0.100000*%
%ADD11O,2.000000X2.000000*%
%ADD12R,2.300000X2.400000*%
%ADD13C,2.300000*%
%ADD14R,2.127200X2.127200*%
%ADD15O,2.127200X2.127200*%
%ADD16R,2.127200X2.432000*%
%ADD17O,2.127200X2.432000*%
%ADD18C,1.797000*%
%ADD19C,1.901140*%
%ADD20R,1.800000X1.800000*%
%ADD21C,1.800000*%
%ADD22C,2.398980*%
%ADD23R,6.496000X6.496000*%
G04 APERTURE END LIST*
D10*
D11*
X53340000Y-53340000D03*
X53340000Y-55880000D03*
X53340000Y-58420000D03*
X53340000Y-60960000D03*
X53340000Y-63500000D03*
X53340000Y-66040000D03*
X53340000Y-68580000D03*
X53340000Y-71120000D03*
X53340000Y-73660000D03*
X53340000Y-76200000D03*
X53340000Y-78740000D03*
X53340000Y-81280000D03*
X53340000Y-83820000D03*
X53340000Y-86360000D03*
X60960000Y-86360000D03*
X60960000Y-83820000D03*
X60960000Y-81280000D03*
X60960000Y-78740000D03*
X60960000Y-76200000D03*
X60960000Y-73660000D03*
X60960000Y-71120000D03*
X60960000Y-68580000D03*
X60960000Y-66040000D03*
X60960000Y-63500000D03*
X60960000Y-60960000D03*
X60960000Y-58420000D03*
X60960000Y-55880000D03*
X60960000Y-53340000D03*
D12*
X100330000Y-74930000D03*
D13*
X102870000Y-74930000D03*
D12*
X106680000Y-74930000D03*
D13*
X109220000Y-74930000D03*
D12*
X113030000Y-74930000D03*
D13*
X115570000Y-74930000D03*
D12*
X119380000Y-74930000D03*
D13*
X121920000Y-74930000D03*
D12*
X125730000Y-74930000D03*
D13*
X128270000Y-74930000D03*
D12*
X132080000Y-74930000D03*
D13*
X134620000Y-74930000D03*
D12*
X138430000Y-74930000D03*
D13*
X140970000Y-74930000D03*
D12*
X144780000Y-74930000D03*
D13*
X147320000Y-74930000D03*
D14*
X85344000Y-90170000D03*
D15*
X85344000Y-92710000D03*
X82804000Y-90170000D03*
X82804000Y-92710000D03*
X80264000Y-90170000D03*
X80264000Y-92710000D03*
D16*
X76962000Y-97536000D03*
D17*
X79502000Y-97536000D03*
X82042000Y-97536000D03*
X84582000Y-97536000D03*
X87122000Y-97536000D03*
X89662000Y-97536000D03*
D18*
X110490000Y-54356000D03*
X110490000Y-59436000D03*
X102870000Y-54356000D03*
X102870000Y-59436000D03*
X102870000Y-95504000D03*
X102870000Y-90424000D03*
X110490000Y-95504000D03*
X110490000Y-90424000D03*
D19*
X59440940Y-91750000D03*
X54559060Y-91750000D03*
D20*
X63500000Y-78500000D03*
D21*
X68500000Y-78500000D03*
D20*
X68500000Y-71250000D03*
D21*
X63500000Y-71250000D03*
D20*
X65500000Y-97000000D03*
D21*
X60500000Y-97000000D03*
D20*
X53250000Y-97000000D03*
D21*
X58250000Y-97000000D03*
D22*
X104709874Y-68514874D03*
X99760126Y-63565126D03*
X104709874Y-81345126D03*
X99760126Y-86294874D03*
X117409874Y-68514874D03*
X112460126Y-63565126D03*
X117409874Y-81345126D03*
X112460126Y-86294874D03*
X130109874Y-68514874D03*
X125160126Y-63565126D03*
X130109874Y-81345126D03*
X125160126Y-86294874D03*
X142809874Y-69149874D03*
X137860126Y-64200126D03*
X142809874Y-81345126D03*
X137860126Y-86294874D03*
X63754000Y-59380000D03*
X63754000Y-52380000D03*
X113086000Y-52070000D03*
X120086000Y-52070000D03*
X114000000Y-95500000D03*
X121000000Y-95500000D03*
D23*
X81534000Y-60960000D03*
X93853000Y-60960000D03*
X69215000Y-60960000D03*
D14*
X134820000Y-53760000D03*
D15*
X134820000Y-56300000D03*
X132280000Y-53760000D03*
X132280000Y-56300000D03*
X129740000Y-53760000D03*
X129740000Y-56300000D03*
X127200000Y-53760000D03*
X127200000Y-56300000D03*
M02*
