G04 #@! TF.FileFunction,Copper,L1,Top,Signal*
%FSLAX46Y46*%
G04 Gerber Fmt 4.6, Leading zero omitted, Abs format (unit mm)*
G04 Created by KiCad (PCBNEW (2015-08-30 BZR 6134, Git 4e94d52)-product) date 10/20/2015 9:06:21 PM*
%MOMM*%
G01*
G04 APERTURE LIST*
%ADD10C,0.100000*%
%ADD11O,1.600000X1.600000*%
%ADD12R,1.900000X2.000000*%
%ADD13C,1.900000*%
%ADD14R,1.727200X1.727200*%
%ADD15O,1.727200X1.727200*%
%ADD16R,1.727200X2.032000*%
%ADD17O,1.727200X2.032000*%
%ADD18C,1.397000*%
%ADD19C,1.501140*%
%ADD20R,1.400000X1.400000*%
%ADD21C,1.400000*%
%ADD22C,1.998980*%
%ADD23C,0.600000*%
%ADD24C,0.300000*%
%ADD25C,0.500000*%
%ADD26C,0.250000*%
%ADD27C,0.254000*%
G04 APERTURE END LIST*
D10*
D11*
X53340000Y-53340000D03*
X53340000Y-55880000D03*
X53340000Y-58420000D03*
X53340000Y-60960000D03*
X53340000Y-63500000D03*
X53340000Y-66040000D03*
X53340000Y-68580000D03*
X53340000Y-71120000D03*
X53340000Y-73660000D03*
X53340000Y-76200000D03*
X53340000Y-78740000D03*
X53340000Y-81280000D03*
X53340000Y-83820000D03*
X53340000Y-86360000D03*
X60960000Y-86360000D03*
X60960000Y-83820000D03*
X60960000Y-81280000D03*
X60960000Y-78740000D03*
X60960000Y-76200000D03*
X60960000Y-73660000D03*
X60960000Y-71120000D03*
X60960000Y-68580000D03*
X60960000Y-66040000D03*
X60960000Y-63500000D03*
X60960000Y-60960000D03*
X60960000Y-58420000D03*
X60960000Y-55880000D03*
X60960000Y-53340000D03*
D12*
X100330000Y-74930000D03*
D13*
X102870000Y-74930000D03*
D12*
X106680000Y-74930000D03*
D13*
X109220000Y-74930000D03*
D12*
X113030000Y-74930000D03*
D13*
X115570000Y-74930000D03*
D12*
X119380000Y-74930000D03*
D13*
X121920000Y-74930000D03*
D12*
X125730000Y-74930000D03*
D13*
X128270000Y-74930000D03*
D12*
X132080000Y-74930000D03*
D13*
X134620000Y-74930000D03*
D12*
X138430000Y-74930000D03*
D13*
X140970000Y-74930000D03*
D12*
X144780000Y-74930000D03*
D13*
X147320000Y-74930000D03*
D14*
X85344000Y-90170000D03*
D15*
X85344000Y-92710000D03*
X82804000Y-90170000D03*
X82804000Y-92710000D03*
X80264000Y-90170000D03*
X80264000Y-92710000D03*
D16*
X76962000Y-97536000D03*
D17*
X79502000Y-97536000D03*
X82042000Y-97536000D03*
X84582000Y-97536000D03*
X87122000Y-97536000D03*
X89662000Y-97536000D03*
D18*
X110490000Y-54356000D03*
X110490000Y-59436000D03*
X102870000Y-54356000D03*
X102870000Y-59436000D03*
X102870000Y-95504000D03*
X102870000Y-90424000D03*
X110490000Y-95504000D03*
X110490000Y-90424000D03*
D19*
X59440940Y-91750000D03*
X54559060Y-91750000D03*
D20*
X63500000Y-78500000D03*
D21*
X68500000Y-78500000D03*
D20*
X68500000Y-71250000D03*
D21*
X63500000Y-71250000D03*
D20*
X65500000Y-97000000D03*
D21*
X60500000Y-97000000D03*
D20*
X53250000Y-97000000D03*
D21*
X58250000Y-97000000D03*
D22*
X104709874Y-68514874D03*
X99760126Y-63565126D03*
X104709874Y-81345126D03*
X99760126Y-86294874D03*
X117409874Y-68514874D03*
X112460126Y-63565126D03*
X117409874Y-81345126D03*
X112460126Y-86294874D03*
X130109874Y-68514874D03*
X125160126Y-63565126D03*
X130109874Y-81345126D03*
X125160126Y-86294874D03*
X142809874Y-69149874D03*
X137860126Y-64200126D03*
X142809874Y-81345126D03*
X137860126Y-86294874D03*
X63754000Y-59380000D03*
X63754000Y-52380000D03*
X113086000Y-52070000D03*
X120086000Y-52070000D03*
X114000000Y-95500000D03*
X121000000Y-95500000D03*
D14*
X134820000Y-53760000D03*
D15*
X134820000Y-56300000D03*
X132280000Y-53760000D03*
X132280000Y-56300000D03*
X129740000Y-53760000D03*
X129740000Y-56300000D03*
X127200000Y-53760000D03*
X127200000Y-56300000D03*
D23*
X57100000Y-72200000D03*
X58700000Y-69700000D03*
X80300000Y-80000000D03*
X88100000Y-90200000D03*
X114200000Y-67400000D03*
X109200000Y-67400000D03*
X109900000Y-80100000D03*
X96400000Y-78350010D03*
X68700000Y-59400000D03*
X69000000Y-67500000D03*
X94000000Y-68000000D03*
X93800000Y-59300000D03*
X70750000Y-80500000D03*
X58750000Y-77500000D03*
X68750000Y-85500000D03*
X67750000Y-86750000D03*
X69000000Y-82750000D03*
X66750000Y-81250000D03*
X64000000Y-75000000D03*
X92000000Y-91750000D03*
X106500000Y-56250000D03*
D24*
X58700000Y-69700000D02*
X57100000Y-71300000D01*
X57100000Y-71300000D02*
X57100000Y-72200000D01*
X57169999Y-57130001D02*
X54139999Y-60160001D01*
X54139999Y-60160001D02*
X53340000Y-60960000D01*
X102870000Y-55343828D02*
X101083827Y-57130001D01*
X101083827Y-57130001D02*
X57169999Y-57130001D01*
X102870000Y-54356000D02*
X102870000Y-55343828D01*
X87090000Y-92710000D02*
X88100000Y-91700000D01*
X88100000Y-91700000D02*
X88100000Y-90200000D01*
X85344000Y-92710000D02*
X87090000Y-92710000D01*
X98600000Y-66600000D02*
X108400000Y-66600000D01*
X108400000Y-66600000D02*
X109200000Y-67400000D01*
X97200000Y-68000000D02*
X98600000Y-66600000D01*
X94000000Y-68000000D02*
X97200000Y-68000000D01*
X94000000Y-68000000D02*
X94000000Y-75950010D01*
X94000000Y-75950010D02*
X96400000Y-78350010D01*
X63754000Y-59380000D02*
X62340508Y-59380000D01*
X62340508Y-59380000D02*
X62020508Y-59700000D01*
X62020508Y-59700000D02*
X57800000Y-59700000D01*
X57800000Y-59700000D02*
X55400000Y-62100000D01*
X55400000Y-62100000D02*
X55400000Y-66520000D01*
X55400000Y-66520000D02*
X53340000Y-68580000D01*
X63754000Y-59380000D02*
X68680000Y-59380000D01*
X68680000Y-59380000D02*
X68700000Y-59400000D01*
D25*
X60960000Y-71120000D02*
X61927998Y-71120000D01*
X65547998Y-67500000D02*
X68575736Y-67500000D01*
X61927998Y-71120000D02*
X65547998Y-67500000D01*
X68575736Y-67500000D02*
X69000000Y-67500000D01*
D24*
X70750000Y-80500000D02*
X70750000Y-72500000D01*
X70750000Y-72500000D02*
X69500000Y-71250000D01*
X69500000Y-71250000D02*
X68500000Y-71250000D01*
X65750000Y-87687600D02*
X65750000Y-73500000D01*
X65750000Y-73500000D02*
X63500000Y-71250000D01*
X76962000Y-97536000D02*
X75598400Y-97536000D01*
X75598400Y-97536000D02*
X65750000Y-87687600D01*
X65500000Y-97000000D02*
X65500000Y-95800000D01*
X65500000Y-95800000D02*
X61450000Y-91750000D01*
D25*
X60502406Y-91750000D02*
X59440940Y-91750000D01*
D24*
X61450000Y-91750000D02*
X60502406Y-91750000D01*
X51750000Y-77790000D02*
X51750000Y-88940940D01*
X51750000Y-88940940D02*
X54559060Y-91750000D01*
X53340000Y-76200000D02*
X51750000Y-77790000D01*
X53250000Y-97000000D02*
X53250000Y-93059060D01*
X53250000Y-93059060D02*
X54559060Y-91750000D01*
X102870000Y-74930000D02*
X102870000Y-70354748D01*
X102870000Y-70354748D02*
X104709874Y-68514874D01*
X109220000Y-74930000D02*
X109220000Y-76835000D01*
X109220000Y-76835000D02*
X104709874Y-81345126D01*
X115570000Y-74930000D02*
X115570000Y-70354748D01*
X115570000Y-70354748D02*
X117409874Y-68514874D01*
X121920000Y-74930000D02*
X121920000Y-76835000D01*
X121920000Y-76835000D02*
X117409874Y-81345126D01*
X128270000Y-74930000D02*
X128270000Y-70354748D01*
X128270000Y-70354748D02*
X130109874Y-68514874D01*
X134620000Y-74930000D02*
X134620000Y-76835000D01*
X134620000Y-76835000D02*
X130109874Y-81345126D01*
X140970000Y-74930000D02*
X140970000Y-70989748D01*
X140970000Y-70989748D02*
X142809874Y-69149874D01*
X147320000Y-74930000D02*
X147320000Y-76835000D01*
X147320000Y-76835000D02*
X142809874Y-81345126D01*
X72402001Y-98902001D02*
X71799999Y-98902001D01*
X71799999Y-98902001D02*
X58750000Y-85852002D01*
X58750000Y-85852002D02*
X58750000Y-77500000D01*
X79502000Y-97536000D02*
X79502000Y-97688400D01*
X79502000Y-97688400D02*
X78288399Y-98902001D01*
X78288399Y-98902001D02*
X72402001Y-98902001D01*
D26*
X110490000Y-95504000D02*
X102870000Y-95504000D01*
X114000000Y-95500000D02*
X110494000Y-95500000D01*
X110494000Y-95500000D02*
X110490000Y-95504000D01*
D24*
X56250000Y-70500000D02*
X56250000Y-78370000D01*
X56250000Y-78370000D02*
X53340000Y-81280000D01*
X59320001Y-67429999D02*
X56250000Y-70500000D01*
X66684874Y-63565126D02*
X62820001Y-67429999D01*
X62820001Y-67429999D02*
X59320001Y-67429999D01*
X99760126Y-63565126D02*
X66684874Y-63565126D01*
X99760126Y-86294874D02*
X69544874Y-86294874D01*
X69544874Y-86294874D02*
X68750000Y-85500000D01*
X57000000Y-73377998D02*
X57000000Y-82700000D01*
X57000000Y-82700000D02*
X53340000Y-86360000D01*
X61750000Y-69750000D02*
X60627998Y-69750000D01*
X60627998Y-69750000D02*
X57000000Y-73377998D01*
X66000000Y-65500000D02*
X61750000Y-69750000D01*
X109111760Y-65500000D02*
X66000000Y-65500000D01*
X112460126Y-63565126D02*
X111046634Y-63565126D01*
X111046634Y-63565126D02*
X109111760Y-65500000D01*
X111460637Y-85295385D02*
X112460126Y-86294874D01*
X110515240Y-84349988D02*
X111460637Y-85295385D01*
X67750000Y-86750000D02*
X67450001Y-86450001D01*
X68230888Y-84349988D02*
X110515240Y-84349988D01*
X67450001Y-86450001D02*
X67450001Y-85130875D01*
X67450001Y-85130875D02*
X68230888Y-84349988D01*
X115685385Y-64564615D02*
X114465383Y-64564615D01*
X114465383Y-64564615D02*
X105379999Y-73649999D01*
X105379999Y-73649999D02*
X105379999Y-74870001D01*
X105379999Y-74870001D02*
X97500000Y-82750000D01*
X97500000Y-82750000D02*
X69000000Y-82750000D01*
X125160126Y-63565126D02*
X124160637Y-64564615D01*
X124160637Y-64564615D02*
X115685385Y-64564615D01*
X70746399Y-91496399D02*
X66750000Y-87500000D01*
X66750000Y-87500000D02*
X66750000Y-81250000D01*
X82804000Y-92710000D02*
X81590399Y-91496399D01*
X81590399Y-91496399D02*
X70746399Y-91496399D01*
X83667599Y-91846401D02*
X82804000Y-92710000D01*
X84017601Y-91496399D02*
X83667599Y-91846401D01*
X84017601Y-88482399D02*
X84017601Y-91496399D01*
X122972601Y-88482399D02*
X84017601Y-88482399D01*
X125160126Y-86294874D02*
X122972601Y-88482399D01*
X64000000Y-75000000D02*
X64000000Y-75700000D01*
X64000000Y-75700000D02*
X60960000Y-78740000D01*
X136750000Y-80250000D02*
X136750000Y-65310252D01*
X136750000Y-65310252D02*
X137860126Y-64200126D01*
X127624501Y-89375499D02*
X136750000Y-80250000D01*
X86507600Y-90170000D02*
X87302101Y-89375499D01*
X85344000Y-90170000D02*
X86507600Y-90170000D01*
X87302101Y-89375499D02*
X127624501Y-89375499D01*
X137860126Y-86294874D02*
X132405000Y-91750000D01*
X132405000Y-91750000D02*
X92000000Y-91750000D01*
X134820000Y-56300000D02*
X134820000Y-58080000D01*
X134820000Y-58080000D02*
X130684365Y-62215635D01*
X130684365Y-62215635D02*
X64784365Y-62215635D01*
X64784365Y-62215635D02*
X60960000Y-66040000D01*
X60960000Y-63500000D02*
X62744376Y-61715624D01*
X62744376Y-61715624D02*
X129984376Y-61715624D01*
X133493601Y-58206399D02*
X133493601Y-54973601D01*
X129984376Y-61715624D02*
X133493601Y-58206399D01*
X133143599Y-54623599D02*
X132280000Y-53760000D01*
X133493601Y-54973601D02*
X133143599Y-54623599D01*
X132280000Y-57720000D02*
X129040000Y-60960000D01*
X129040000Y-60960000D02*
X110665782Y-60960000D01*
X132280000Y-56300000D02*
X132280000Y-57720000D01*
X60960000Y-60960000D02*
X110665782Y-60960000D01*
X60960000Y-58420000D02*
X62091370Y-58420000D01*
X62091370Y-58420000D02*
X62580861Y-57930509D01*
X62580861Y-57930509D02*
X104819491Y-57930509D01*
X104819491Y-57930509D02*
X106500000Y-56250000D01*
X109700000Y-57500000D02*
X116370752Y-57500000D01*
X116370752Y-57500000D02*
X118470752Y-59600000D01*
X105407499Y-53207499D02*
X109700000Y-57500000D01*
X102318719Y-53207499D02*
X105407499Y-53207499D01*
X128876401Y-58223599D02*
X128876401Y-57163599D01*
X128876401Y-57163599D02*
X129740000Y-56300000D01*
X128876401Y-58223599D02*
X127500000Y-59600000D01*
X127500000Y-59600000D02*
X118470752Y-59600000D01*
X102318719Y-53207499D02*
X99646218Y-55880000D01*
X99646218Y-55880000D02*
X60960000Y-55880000D01*
X112160000Y-53760000D02*
X110700000Y-52300000D01*
X110700000Y-52300000D02*
X101400000Y-52300000D01*
X127200000Y-53760000D02*
X112160000Y-53760000D01*
X99560001Y-54139999D02*
X101400000Y-52300000D01*
X60960000Y-53340000D02*
X61759999Y-54139999D01*
X61759999Y-54139999D02*
X99560001Y-54139999D01*
D27*
G36*
X119113443Y-50917837D02*
X120086000Y-51890395D01*
X121058557Y-50917837D01*
X120990988Y-50735000D01*
X139927610Y-50735000D01*
X143540052Y-51453560D01*
X146541163Y-53458837D01*
X148546440Y-56459949D01*
X149265000Y-60072390D01*
X149265000Y-89927610D01*
X148546440Y-93540051D01*
X146541163Y-96541163D01*
X143540052Y-98546440D01*
X139927610Y-99265000D01*
X79035558Y-99265000D01*
X79151026Y-99149532D01*
X79502000Y-99219345D01*
X80075489Y-99105271D01*
X80561670Y-98780415D01*
X80772000Y-98465634D01*
X80982330Y-98780415D01*
X81468511Y-99105271D01*
X82042000Y-99219345D01*
X82615489Y-99105271D01*
X83101670Y-98780415D01*
X83308461Y-98470931D01*
X83679964Y-98886732D01*
X84207209Y-99140709D01*
X84222974Y-99143358D01*
X84455000Y-99022217D01*
X84455000Y-97663000D01*
X84435000Y-97663000D01*
X84435000Y-97409000D01*
X84455000Y-97409000D01*
X84455000Y-96049783D01*
X84709000Y-96049783D01*
X84709000Y-97409000D01*
X84729000Y-97409000D01*
X84729000Y-97663000D01*
X84709000Y-97663000D01*
X84709000Y-99022217D01*
X84941026Y-99143358D01*
X84956791Y-99140709D01*
X85484036Y-98886732D01*
X85855539Y-98470931D01*
X86062330Y-98780415D01*
X86548511Y-99105271D01*
X87122000Y-99219345D01*
X87695489Y-99105271D01*
X88181670Y-98780415D01*
X88392000Y-98465634D01*
X88602330Y-98780415D01*
X89088511Y-99105271D01*
X89662000Y-99219345D01*
X90235489Y-99105271D01*
X90721670Y-98780415D01*
X91046526Y-98294234D01*
X91160600Y-97720745D01*
X91160600Y-97351255D01*
X91046526Y-96777766D01*
X90721670Y-96291585D01*
X90235489Y-95966729D01*
X89662000Y-95852655D01*
X89088511Y-95966729D01*
X88602330Y-96291585D01*
X88392000Y-96606366D01*
X88181670Y-96291585D01*
X87695489Y-95966729D01*
X87122000Y-95852655D01*
X86548511Y-95966729D01*
X86062330Y-96291585D01*
X85855539Y-96601069D01*
X85484036Y-96185268D01*
X84956791Y-95931291D01*
X84941026Y-95928642D01*
X84709000Y-96049783D01*
X84455000Y-96049783D01*
X84222974Y-95928642D01*
X84207209Y-95931291D01*
X83679964Y-96185268D01*
X83308461Y-96601069D01*
X83101670Y-96291585D01*
X82615489Y-95966729D01*
X82042000Y-95852655D01*
X81468511Y-95966729D01*
X80982330Y-96291585D01*
X80772000Y-96606366D01*
X80561670Y-96291585D01*
X80075489Y-95966729D01*
X79502000Y-95852655D01*
X78928511Y-95966729D01*
X78442330Y-96291585D01*
X78432757Y-96305913D01*
X78428762Y-96284683D01*
X78289690Y-96068559D01*
X78077490Y-95923569D01*
X77825600Y-95872560D01*
X76098400Y-95872560D01*
X75863083Y-95916838D01*
X75646959Y-96055910D01*
X75501969Y-96268110D01*
X75491646Y-96319088D01*
X74940644Y-95768086D01*
X101536269Y-95768086D01*
X101738854Y-96258380D01*
X102113647Y-96633827D01*
X102603587Y-96837268D01*
X103134086Y-96837731D01*
X103624380Y-96635146D01*
X103996174Y-96264000D01*
X109364464Y-96264000D01*
X109733647Y-96633827D01*
X110223587Y-96837268D01*
X110754086Y-96837731D01*
X111244380Y-96635146D01*
X111619827Y-96260353D01*
X111619974Y-96260000D01*
X112545504Y-96260000D01*
X112613538Y-96424655D01*
X113072927Y-96884846D01*
X113673453Y-97134206D01*
X114323694Y-97134774D01*
X114924655Y-96886462D01*
X115159363Y-96652163D01*
X120027443Y-96652163D01*
X120126042Y-96918965D01*
X120735582Y-97145401D01*
X121385377Y-97121341D01*
X121873958Y-96918965D01*
X121972557Y-96652163D01*
X121000000Y-95679605D01*
X120027443Y-96652163D01*
X115159363Y-96652163D01*
X115384846Y-96427073D01*
X115634206Y-95826547D01*
X115634722Y-95235582D01*
X119354599Y-95235582D01*
X119378659Y-95885377D01*
X119581035Y-96373958D01*
X119847837Y-96472557D01*
X120820395Y-95500000D01*
X121179605Y-95500000D01*
X122152163Y-96472557D01*
X122418965Y-96373958D01*
X122645401Y-95764418D01*
X122621341Y-95114623D01*
X122418965Y-94626042D01*
X122152163Y-94527443D01*
X121179605Y-95500000D01*
X120820395Y-95500000D01*
X119847837Y-94527443D01*
X119581035Y-94626042D01*
X119354599Y-95235582D01*
X115634722Y-95235582D01*
X115634774Y-95176306D01*
X115386462Y-94575345D01*
X115159351Y-94347837D01*
X120027443Y-94347837D01*
X121000000Y-95320395D01*
X121972557Y-94347837D01*
X121873958Y-94081035D01*
X121264418Y-93854599D01*
X120614623Y-93878659D01*
X120126042Y-94081035D01*
X120027443Y-94347837D01*
X115159351Y-94347837D01*
X114927073Y-94115154D01*
X114326547Y-93865794D01*
X113676306Y-93865226D01*
X113075345Y-94113538D01*
X112615154Y-94572927D01*
X112545779Y-94740000D01*
X111611543Y-94740000D01*
X111246353Y-94374173D01*
X110756413Y-94170732D01*
X110225914Y-94170269D01*
X109735620Y-94372854D01*
X109363826Y-94744000D01*
X103995536Y-94744000D01*
X103626353Y-94374173D01*
X103136413Y-94170732D01*
X102605914Y-94170269D01*
X102115620Y-94372854D01*
X101740173Y-94747647D01*
X101536732Y-95237587D01*
X101536269Y-95768086D01*
X74940644Y-95768086D01*
X71453957Y-92281399D01*
X78844814Y-92281399D01*
X78765400Y-92680641D01*
X78765400Y-92739359D01*
X78879474Y-93312848D01*
X79204330Y-93799029D01*
X79690511Y-94123885D01*
X80264000Y-94237959D01*
X80837489Y-94123885D01*
X81323670Y-93799029D01*
X81534000Y-93484248D01*
X81744330Y-93799029D01*
X82230511Y-94123885D01*
X82804000Y-94237959D01*
X83377489Y-94123885D01*
X83863670Y-93799029D01*
X84079664Y-93475772D01*
X84137179Y-93598490D01*
X84569053Y-93992688D01*
X84984974Y-94164958D01*
X85217000Y-94043817D01*
X85217000Y-92837000D01*
X85471000Y-92837000D01*
X85471000Y-94043817D01*
X85703026Y-94164958D01*
X86118947Y-93992688D01*
X86550821Y-93598490D01*
X86798968Y-93069027D01*
X86678469Y-92837000D01*
X85471000Y-92837000D01*
X85217000Y-92837000D01*
X85197000Y-92837000D01*
X85197000Y-92583000D01*
X85217000Y-92583000D01*
X85217000Y-92563000D01*
X85471000Y-92563000D01*
X85471000Y-92583000D01*
X86678469Y-92583000D01*
X86798968Y-92350973D01*
X86550821Y-91821510D01*
X86364567Y-91651505D01*
X86442917Y-91636762D01*
X86659041Y-91497690D01*
X86804031Y-91285490D01*
X86855040Y-91033600D01*
X86855040Y-90863819D01*
X87062679Y-90725079D01*
X87627259Y-90160499D01*
X101536729Y-90160499D01*
X101536269Y-90688086D01*
X101650687Y-90965000D01*
X92537506Y-90965000D01*
X92530327Y-90957808D01*
X92186799Y-90815162D01*
X91814833Y-90814838D01*
X91471057Y-90956883D01*
X91207808Y-91219673D01*
X91065162Y-91563201D01*
X91064838Y-91935167D01*
X91206883Y-92278943D01*
X91469673Y-92542192D01*
X91813201Y-92684838D01*
X92185167Y-92685162D01*
X92528943Y-92543117D01*
X92537074Y-92535000D01*
X132405000Y-92535000D01*
X132705407Y-92475245D01*
X132960079Y-92305079D01*
X135265158Y-90000000D01*
X141315000Y-90000000D01*
X141595504Y-91410188D01*
X142394312Y-92605688D01*
X143589812Y-93404496D01*
X145000000Y-93685000D01*
X146410188Y-93404496D01*
X147605688Y-92605688D01*
X148404496Y-91410188D01*
X148685000Y-90000000D01*
X148404496Y-88589812D01*
X147605688Y-87394312D01*
X146410188Y-86595504D01*
X145000000Y-86315000D01*
X143589812Y-86595504D01*
X142394312Y-87394312D01*
X141595504Y-88589812D01*
X141315000Y-90000000D01*
X135265158Y-90000000D01*
X137394026Y-87871132D01*
X137533579Y-87929080D01*
X138183820Y-87929648D01*
X138784781Y-87681336D01*
X139244972Y-87221947D01*
X139494332Y-86621421D01*
X139494900Y-85971180D01*
X139246588Y-85370219D01*
X138787199Y-84910028D01*
X138186673Y-84660668D01*
X137536432Y-84660100D01*
X136935471Y-84908412D01*
X136475280Y-85367801D01*
X136225920Y-85968327D01*
X136225352Y-86618568D01*
X136284098Y-86760744D01*
X132079842Y-90965000D01*
X111709249Y-90965000D01*
X111823268Y-90690413D01*
X111823730Y-90160499D01*
X127624501Y-90160499D01*
X127924908Y-90100744D01*
X128179580Y-89930578D01*
X136441338Y-81668820D01*
X141175100Y-81668820D01*
X141423412Y-82269781D01*
X141882801Y-82729972D01*
X142483327Y-82979332D01*
X143133568Y-82979900D01*
X143734529Y-82731588D01*
X144194720Y-82272199D01*
X144444080Y-81671673D01*
X144444648Y-81021432D01*
X144385902Y-80879256D01*
X147875079Y-77390079D01*
X148045245Y-77135407D01*
X148105000Y-76835000D01*
X148105000Y-76320617D01*
X148216657Y-76274481D01*
X148662914Y-75829003D01*
X148904724Y-75246659D01*
X148905275Y-74616107D01*
X148664481Y-74033343D01*
X148219003Y-73587086D01*
X147636659Y-73345276D01*
X147006107Y-73344725D01*
X146423343Y-73585519D01*
X146325663Y-73683029D01*
X146194090Y-73478559D01*
X145981890Y-73333569D01*
X145730000Y-73282560D01*
X143830000Y-73282560D01*
X143594683Y-73326838D01*
X143378559Y-73465910D01*
X143233569Y-73678110D01*
X143182560Y-73930000D01*
X143182560Y-75930000D01*
X143226838Y-76165317D01*
X143365910Y-76381441D01*
X143578110Y-76526431D01*
X143830000Y-76577440D01*
X145730000Y-76577440D01*
X145965317Y-76533162D01*
X146181441Y-76394090D01*
X146326431Y-76181890D01*
X146327055Y-76178808D01*
X146420997Y-76272914D01*
X146535000Y-76320252D01*
X146535000Y-76509842D01*
X143275974Y-79768868D01*
X143136421Y-79710920D01*
X142486180Y-79710352D01*
X141885219Y-79958664D01*
X141425028Y-80418053D01*
X141175668Y-81018579D01*
X141175100Y-81668820D01*
X136441338Y-81668820D01*
X137305079Y-80805079D01*
X137315123Y-80790047D01*
X137475245Y-80550406D01*
X137535000Y-80250000D01*
X137535000Y-76577440D01*
X139380000Y-76577440D01*
X139615317Y-76533162D01*
X139831441Y-76394090D01*
X139976431Y-76181890D01*
X139977055Y-76178808D01*
X140070997Y-76272914D01*
X140653341Y-76514724D01*
X141283893Y-76515275D01*
X141866657Y-76274481D01*
X142312914Y-75829003D01*
X142554724Y-75246659D01*
X142555275Y-74616107D01*
X142314481Y-74033343D01*
X141869003Y-73587086D01*
X141755000Y-73539748D01*
X141755000Y-71314906D01*
X142343774Y-70726132D01*
X142483327Y-70784080D01*
X143133568Y-70784648D01*
X143734529Y-70536336D01*
X144194720Y-70076947D01*
X144444080Y-69476421D01*
X144444648Y-68826180D01*
X144196336Y-68225219D01*
X143736947Y-67765028D01*
X143136421Y-67515668D01*
X142486180Y-67515100D01*
X141885219Y-67763412D01*
X141425028Y-68222801D01*
X141175668Y-68823327D01*
X141175100Y-69473568D01*
X141233846Y-69615744D01*
X140414921Y-70434669D01*
X140244755Y-70689341D01*
X140200897Y-70909827D01*
X140185000Y-70989748D01*
X140185000Y-73539383D01*
X140073343Y-73585519D01*
X139975663Y-73683029D01*
X139844090Y-73478559D01*
X139631890Y-73333569D01*
X139380000Y-73282560D01*
X137535000Y-73282560D01*
X137535000Y-65834333D01*
X138183820Y-65834900D01*
X138784781Y-65586588D01*
X139244972Y-65127199D01*
X139494332Y-64526673D01*
X139494900Y-63876432D01*
X139246588Y-63275471D01*
X138787199Y-62815280D01*
X138186673Y-62565920D01*
X137536432Y-62565352D01*
X136935471Y-62813664D01*
X136475280Y-63273053D01*
X136225920Y-63873579D01*
X136225352Y-64523820D01*
X136284098Y-64665996D01*
X136194921Y-64755173D01*
X136024755Y-65009845D01*
X135969056Y-65289860D01*
X135965000Y-65310252D01*
X135965000Y-74034599D01*
X135964481Y-74033343D01*
X135519003Y-73587086D01*
X134936659Y-73345276D01*
X134306107Y-73344725D01*
X133723343Y-73585519D01*
X133625663Y-73683029D01*
X133494090Y-73478559D01*
X133281890Y-73333569D01*
X133030000Y-73282560D01*
X131130000Y-73282560D01*
X130894683Y-73326838D01*
X130678559Y-73465910D01*
X130533569Y-73678110D01*
X130482560Y-73930000D01*
X130482560Y-75930000D01*
X130526838Y-76165317D01*
X130665910Y-76381441D01*
X130878110Y-76526431D01*
X131130000Y-76577440D01*
X133030000Y-76577440D01*
X133265317Y-76533162D01*
X133481441Y-76394090D01*
X133626431Y-76181890D01*
X133627055Y-76178808D01*
X133720997Y-76272914D01*
X133835000Y-76320252D01*
X133835000Y-76509842D01*
X130575974Y-79768868D01*
X130436421Y-79710920D01*
X129786180Y-79710352D01*
X129185219Y-79958664D01*
X128725028Y-80418053D01*
X128475668Y-81018579D01*
X128475100Y-81668820D01*
X128723412Y-82269781D01*
X129182801Y-82729972D01*
X129783327Y-82979332D01*
X130433568Y-82979900D01*
X131034529Y-82731588D01*
X131494720Y-82272199D01*
X131744080Y-81671673D01*
X131744648Y-81021432D01*
X131685902Y-80879256D01*
X135175079Y-77390079D01*
X135345245Y-77135407D01*
X135405000Y-76835000D01*
X135405000Y-76320617D01*
X135516657Y-76274481D01*
X135962914Y-75829003D01*
X135965000Y-75823979D01*
X135965000Y-79924842D01*
X127299343Y-88590499D01*
X123974659Y-88590499D01*
X124694025Y-87871132D01*
X124833579Y-87929080D01*
X125483820Y-87929648D01*
X126084781Y-87681336D01*
X126544972Y-87221947D01*
X126794332Y-86621421D01*
X126794900Y-85971180D01*
X126546588Y-85370219D01*
X126087199Y-84910028D01*
X125486673Y-84660668D01*
X124836432Y-84660100D01*
X124235471Y-84908412D01*
X123775280Y-85367801D01*
X123525920Y-85968327D01*
X123525352Y-86618568D01*
X123584098Y-86760744D01*
X122647443Y-87697399D01*
X113345906Y-87697399D01*
X113384781Y-87681336D01*
X113844972Y-87221947D01*
X114094332Y-86621421D01*
X114094900Y-85971180D01*
X113846588Y-85370219D01*
X113387199Y-84910028D01*
X112786673Y-84660668D01*
X112136432Y-84660100D01*
X111994256Y-84718846D01*
X111070319Y-83794909D01*
X110815647Y-83624743D01*
X110515240Y-83564988D01*
X69476011Y-83564988D01*
X69528943Y-83543117D01*
X69537074Y-83535000D01*
X97500000Y-83535000D01*
X97800407Y-83475245D01*
X98055079Y-83305079D01*
X105153463Y-76206694D01*
X105265910Y-76381441D01*
X105478110Y-76526431D01*
X105730000Y-76577440D01*
X107630000Y-76577440D01*
X107865317Y-76533162D01*
X108081441Y-76394090D01*
X108226431Y-76181890D01*
X108227055Y-76178808D01*
X108320997Y-76272914D01*
X108435000Y-76320252D01*
X108435000Y-76509842D01*
X105175974Y-79768868D01*
X105036421Y-79710920D01*
X104386180Y-79710352D01*
X103785219Y-79958664D01*
X103325028Y-80418053D01*
X103075668Y-81018579D01*
X103075100Y-81668820D01*
X103323412Y-82269781D01*
X103782801Y-82729972D01*
X104383327Y-82979332D01*
X105033568Y-82979900D01*
X105634529Y-82731588D01*
X106094720Y-82272199D01*
X106344080Y-81671673D01*
X106344082Y-81668820D01*
X115775100Y-81668820D01*
X116023412Y-82269781D01*
X116482801Y-82729972D01*
X117083327Y-82979332D01*
X117733568Y-82979900D01*
X118334529Y-82731588D01*
X118794720Y-82272199D01*
X119044080Y-81671673D01*
X119044648Y-81021432D01*
X118985902Y-80879256D01*
X122475079Y-77390079D01*
X122645245Y-77135407D01*
X122705000Y-76835000D01*
X122705000Y-76320617D01*
X122816657Y-76274481D01*
X123262914Y-75829003D01*
X123504724Y-75246659D01*
X123505275Y-74616107D01*
X123264481Y-74033343D01*
X123161319Y-73930000D01*
X124132560Y-73930000D01*
X124132560Y-75930000D01*
X124176838Y-76165317D01*
X124315910Y-76381441D01*
X124528110Y-76526431D01*
X124780000Y-76577440D01*
X126680000Y-76577440D01*
X126915317Y-76533162D01*
X127131441Y-76394090D01*
X127276431Y-76181890D01*
X127277055Y-76178808D01*
X127370997Y-76272914D01*
X127953341Y-76514724D01*
X128583893Y-76515275D01*
X129166657Y-76274481D01*
X129612914Y-75829003D01*
X129854724Y-75246659D01*
X129855275Y-74616107D01*
X129614481Y-74033343D01*
X129169003Y-73587086D01*
X129055000Y-73539748D01*
X129055000Y-70679906D01*
X129643774Y-70091132D01*
X129783327Y-70149080D01*
X130433568Y-70149648D01*
X131034529Y-69901336D01*
X131494720Y-69441947D01*
X131744080Y-68841421D01*
X131744648Y-68191180D01*
X131496336Y-67590219D01*
X131036947Y-67130028D01*
X130436421Y-66880668D01*
X129786180Y-66880100D01*
X129185219Y-67128412D01*
X128725028Y-67587801D01*
X128475668Y-68188327D01*
X128475100Y-68838568D01*
X128533846Y-68980744D01*
X127714921Y-69799669D01*
X127544755Y-70054341D01*
X127515862Y-70199594D01*
X127485000Y-70354748D01*
X127485000Y-73539383D01*
X127373343Y-73585519D01*
X127275663Y-73683029D01*
X127144090Y-73478559D01*
X126931890Y-73333569D01*
X126680000Y-73282560D01*
X124780000Y-73282560D01*
X124544683Y-73326838D01*
X124328559Y-73465910D01*
X124183569Y-73678110D01*
X124132560Y-73930000D01*
X123161319Y-73930000D01*
X122819003Y-73587086D01*
X122236659Y-73345276D01*
X121606107Y-73344725D01*
X121023343Y-73585519D01*
X120925663Y-73683029D01*
X120794090Y-73478559D01*
X120581890Y-73333569D01*
X120330000Y-73282560D01*
X118430000Y-73282560D01*
X118194683Y-73326838D01*
X117978559Y-73465910D01*
X117833569Y-73678110D01*
X117782560Y-73930000D01*
X117782560Y-75930000D01*
X117826838Y-76165317D01*
X117965910Y-76381441D01*
X118178110Y-76526431D01*
X118430000Y-76577440D01*
X120330000Y-76577440D01*
X120565317Y-76533162D01*
X120781441Y-76394090D01*
X120926431Y-76181890D01*
X120927055Y-76178808D01*
X121020997Y-76272914D01*
X121135000Y-76320252D01*
X121135000Y-76509842D01*
X117875974Y-79768868D01*
X117736421Y-79710920D01*
X117086180Y-79710352D01*
X116485219Y-79958664D01*
X116025028Y-80418053D01*
X115775668Y-81018579D01*
X115775100Y-81668820D01*
X106344082Y-81668820D01*
X106344648Y-81021432D01*
X106285902Y-80879256D01*
X109775079Y-77390079D01*
X109945245Y-77135407D01*
X110005000Y-76835000D01*
X110005000Y-76320617D01*
X110116657Y-76274481D01*
X110562914Y-75829003D01*
X110804724Y-75246659D01*
X110805275Y-74616107D01*
X110564481Y-74033343D01*
X110461319Y-73930000D01*
X111432560Y-73930000D01*
X111432560Y-75930000D01*
X111476838Y-76165317D01*
X111615910Y-76381441D01*
X111828110Y-76526431D01*
X112080000Y-76577440D01*
X113980000Y-76577440D01*
X114215317Y-76533162D01*
X114431441Y-76394090D01*
X114576431Y-76181890D01*
X114577055Y-76178808D01*
X114670997Y-76272914D01*
X115253341Y-76514724D01*
X115883893Y-76515275D01*
X116466657Y-76274481D01*
X116912914Y-75829003D01*
X117154724Y-75246659D01*
X117155275Y-74616107D01*
X116914481Y-74033343D01*
X116469003Y-73587086D01*
X116355000Y-73539748D01*
X116355000Y-70679906D01*
X116943774Y-70091132D01*
X117083327Y-70149080D01*
X117733568Y-70149648D01*
X118334529Y-69901336D01*
X118794720Y-69441947D01*
X119044080Y-68841421D01*
X119044648Y-68191180D01*
X118796336Y-67590219D01*
X118336947Y-67130028D01*
X117736421Y-66880668D01*
X117086180Y-66880100D01*
X116485219Y-67128412D01*
X116025028Y-67587801D01*
X115775668Y-68188327D01*
X115775100Y-68838568D01*
X115833846Y-68980744D01*
X115014921Y-69799669D01*
X114844755Y-70054341D01*
X114815862Y-70199594D01*
X114785000Y-70354748D01*
X114785000Y-73539383D01*
X114673343Y-73585519D01*
X114575663Y-73683029D01*
X114444090Y-73478559D01*
X114231890Y-73333569D01*
X113980000Y-73282560D01*
X112080000Y-73282560D01*
X111844683Y-73326838D01*
X111628559Y-73465910D01*
X111483569Y-73678110D01*
X111432560Y-73930000D01*
X110461319Y-73930000D01*
X110119003Y-73587086D01*
X109536659Y-73345276D01*
X108906107Y-73344725D01*
X108323343Y-73585519D01*
X108225663Y-73683029D01*
X108094090Y-73478559D01*
X107881890Y-73333569D01*
X107630000Y-73282560D01*
X106857596Y-73282560D01*
X114790541Y-65349615D01*
X124160637Y-65349615D01*
X124461044Y-65289860D01*
X124687382Y-65138626D01*
X124833579Y-65199332D01*
X125483820Y-65199900D01*
X126084781Y-64951588D01*
X126544972Y-64492199D01*
X126794332Y-63891673D01*
X126794900Y-63241432D01*
X126695405Y-63000635D01*
X130684365Y-63000635D01*
X130984772Y-62940880D01*
X131239444Y-62770714D01*
X134010158Y-60000000D01*
X141315000Y-60000000D01*
X141595504Y-61410188D01*
X142394312Y-62605688D01*
X143589812Y-63404496D01*
X145000000Y-63685000D01*
X146410188Y-63404496D01*
X147605688Y-62605688D01*
X148404496Y-61410188D01*
X148685000Y-60000000D01*
X148404496Y-58589812D01*
X147605688Y-57394312D01*
X146410188Y-56595504D01*
X145000000Y-56315000D01*
X143589812Y-56595504D01*
X142394312Y-57394312D01*
X141595504Y-58589812D01*
X141315000Y-60000000D01*
X134010158Y-60000000D01*
X135375079Y-58635079D01*
X135545245Y-58380407D01*
X135605000Y-58080000D01*
X135605000Y-57572558D01*
X135879670Y-57389029D01*
X136204526Y-56902848D01*
X136318600Y-56329359D01*
X136318600Y-56270641D01*
X136204526Y-55697152D01*
X135889474Y-55225644D01*
X136043299Y-55161927D01*
X136221927Y-54983298D01*
X136318600Y-54749909D01*
X136318600Y-54045750D01*
X136159850Y-53887000D01*
X134947000Y-53887000D01*
X134947000Y-53907000D01*
X134693000Y-53907000D01*
X134693000Y-53887000D01*
X134673000Y-53887000D01*
X134673000Y-53633000D01*
X134693000Y-53633000D01*
X134693000Y-52420150D01*
X134947000Y-52420150D01*
X134947000Y-53633000D01*
X136159850Y-53633000D01*
X136318600Y-53474250D01*
X136318600Y-52770091D01*
X136221927Y-52536702D01*
X136043299Y-52358073D01*
X135809910Y-52261400D01*
X135105750Y-52261400D01*
X134947000Y-52420150D01*
X134693000Y-52420150D01*
X134534250Y-52261400D01*
X133830090Y-52261400D01*
X133596701Y-52358073D01*
X133418073Y-52536702D01*
X133353737Y-52692023D01*
X133339670Y-52670971D01*
X132853489Y-52346115D01*
X132280000Y-52232041D01*
X131706511Y-52346115D01*
X131220330Y-52670971D01*
X131010000Y-52985752D01*
X130799670Y-52670971D01*
X130313489Y-52346115D01*
X129740000Y-52232041D01*
X129166511Y-52346115D01*
X128680330Y-52670971D01*
X128470000Y-52985752D01*
X128259670Y-52670971D01*
X127773489Y-52346115D01*
X127200000Y-52232041D01*
X126626511Y-52346115D01*
X126140330Y-52670971D01*
X125937184Y-52975000D01*
X121420968Y-52975000D01*
X121504965Y-52943958D01*
X121731401Y-52334418D01*
X121707341Y-51684623D01*
X121504965Y-51196042D01*
X121238163Y-51097443D01*
X120265605Y-52070000D01*
X120279748Y-52084142D01*
X120100142Y-52263748D01*
X120086000Y-52249605D01*
X120071858Y-52263748D01*
X119892252Y-52084142D01*
X119906395Y-52070000D01*
X118933837Y-51097443D01*
X118667035Y-51196042D01*
X118440599Y-51805582D01*
X118464659Y-52455377D01*
X118667035Y-52943958D01*
X118751032Y-52975000D01*
X114480012Y-52975000D01*
X114720206Y-52396547D01*
X114720774Y-51746306D01*
X114472462Y-51145345D01*
X114062832Y-50735000D01*
X119181012Y-50735000D01*
X119113443Y-50917837D01*
X119113443Y-50917837D01*
G37*
X119113443Y-50917837D02*
X120086000Y-51890395D01*
X121058557Y-50917837D01*
X120990988Y-50735000D01*
X139927610Y-50735000D01*
X143540052Y-51453560D01*
X146541163Y-53458837D01*
X148546440Y-56459949D01*
X149265000Y-60072390D01*
X149265000Y-89927610D01*
X148546440Y-93540051D01*
X146541163Y-96541163D01*
X143540052Y-98546440D01*
X139927610Y-99265000D01*
X79035558Y-99265000D01*
X79151026Y-99149532D01*
X79502000Y-99219345D01*
X80075489Y-99105271D01*
X80561670Y-98780415D01*
X80772000Y-98465634D01*
X80982330Y-98780415D01*
X81468511Y-99105271D01*
X82042000Y-99219345D01*
X82615489Y-99105271D01*
X83101670Y-98780415D01*
X83308461Y-98470931D01*
X83679964Y-98886732D01*
X84207209Y-99140709D01*
X84222974Y-99143358D01*
X84455000Y-99022217D01*
X84455000Y-97663000D01*
X84435000Y-97663000D01*
X84435000Y-97409000D01*
X84455000Y-97409000D01*
X84455000Y-96049783D01*
X84709000Y-96049783D01*
X84709000Y-97409000D01*
X84729000Y-97409000D01*
X84729000Y-97663000D01*
X84709000Y-97663000D01*
X84709000Y-99022217D01*
X84941026Y-99143358D01*
X84956791Y-99140709D01*
X85484036Y-98886732D01*
X85855539Y-98470931D01*
X86062330Y-98780415D01*
X86548511Y-99105271D01*
X87122000Y-99219345D01*
X87695489Y-99105271D01*
X88181670Y-98780415D01*
X88392000Y-98465634D01*
X88602330Y-98780415D01*
X89088511Y-99105271D01*
X89662000Y-99219345D01*
X90235489Y-99105271D01*
X90721670Y-98780415D01*
X91046526Y-98294234D01*
X91160600Y-97720745D01*
X91160600Y-97351255D01*
X91046526Y-96777766D01*
X90721670Y-96291585D01*
X90235489Y-95966729D01*
X89662000Y-95852655D01*
X89088511Y-95966729D01*
X88602330Y-96291585D01*
X88392000Y-96606366D01*
X88181670Y-96291585D01*
X87695489Y-95966729D01*
X87122000Y-95852655D01*
X86548511Y-95966729D01*
X86062330Y-96291585D01*
X85855539Y-96601069D01*
X85484036Y-96185268D01*
X84956791Y-95931291D01*
X84941026Y-95928642D01*
X84709000Y-96049783D01*
X84455000Y-96049783D01*
X84222974Y-95928642D01*
X84207209Y-95931291D01*
X83679964Y-96185268D01*
X83308461Y-96601069D01*
X83101670Y-96291585D01*
X82615489Y-95966729D01*
X82042000Y-95852655D01*
X81468511Y-95966729D01*
X80982330Y-96291585D01*
X80772000Y-96606366D01*
X80561670Y-96291585D01*
X80075489Y-95966729D01*
X79502000Y-95852655D01*
X78928511Y-95966729D01*
X78442330Y-96291585D01*
X78432757Y-96305913D01*
X78428762Y-96284683D01*
X78289690Y-96068559D01*
X78077490Y-95923569D01*
X77825600Y-95872560D01*
X76098400Y-95872560D01*
X75863083Y-95916838D01*
X75646959Y-96055910D01*
X75501969Y-96268110D01*
X75491646Y-96319088D01*
X74940644Y-95768086D01*
X101536269Y-95768086D01*
X101738854Y-96258380D01*
X102113647Y-96633827D01*
X102603587Y-96837268D01*
X103134086Y-96837731D01*
X103624380Y-96635146D01*
X103996174Y-96264000D01*
X109364464Y-96264000D01*
X109733647Y-96633827D01*
X110223587Y-96837268D01*
X110754086Y-96837731D01*
X111244380Y-96635146D01*
X111619827Y-96260353D01*
X111619974Y-96260000D01*
X112545504Y-96260000D01*
X112613538Y-96424655D01*
X113072927Y-96884846D01*
X113673453Y-97134206D01*
X114323694Y-97134774D01*
X114924655Y-96886462D01*
X115159363Y-96652163D01*
X120027443Y-96652163D01*
X120126042Y-96918965D01*
X120735582Y-97145401D01*
X121385377Y-97121341D01*
X121873958Y-96918965D01*
X121972557Y-96652163D01*
X121000000Y-95679605D01*
X120027443Y-96652163D01*
X115159363Y-96652163D01*
X115384846Y-96427073D01*
X115634206Y-95826547D01*
X115634722Y-95235582D01*
X119354599Y-95235582D01*
X119378659Y-95885377D01*
X119581035Y-96373958D01*
X119847837Y-96472557D01*
X120820395Y-95500000D01*
X121179605Y-95500000D01*
X122152163Y-96472557D01*
X122418965Y-96373958D01*
X122645401Y-95764418D01*
X122621341Y-95114623D01*
X122418965Y-94626042D01*
X122152163Y-94527443D01*
X121179605Y-95500000D01*
X120820395Y-95500000D01*
X119847837Y-94527443D01*
X119581035Y-94626042D01*
X119354599Y-95235582D01*
X115634722Y-95235582D01*
X115634774Y-95176306D01*
X115386462Y-94575345D01*
X115159351Y-94347837D01*
X120027443Y-94347837D01*
X121000000Y-95320395D01*
X121972557Y-94347837D01*
X121873958Y-94081035D01*
X121264418Y-93854599D01*
X120614623Y-93878659D01*
X120126042Y-94081035D01*
X120027443Y-94347837D01*
X115159351Y-94347837D01*
X114927073Y-94115154D01*
X114326547Y-93865794D01*
X113676306Y-93865226D01*
X113075345Y-94113538D01*
X112615154Y-94572927D01*
X112545779Y-94740000D01*
X111611543Y-94740000D01*
X111246353Y-94374173D01*
X110756413Y-94170732D01*
X110225914Y-94170269D01*
X109735620Y-94372854D01*
X109363826Y-94744000D01*
X103995536Y-94744000D01*
X103626353Y-94374173D01*
X103136413Y-94170732D01*
X102605914Y-94170269D01*
X102115620Y-94372854D01*
X101740173Y-94747647D01*
X101536732Y-95237587D01*
X101536269Y-95768086D01*
X74940644Y-95768086D01*
X71453957Y-92281399D01*
X78844814Y-92281399D01*
X78765400Y-92680641D01*
X78765400Y-92739359D01*
X78879474Y-93312848D01*
X79204330Y-93799029D01*
X79690511Y-94123885D01*
X80264000Y-94237959D01*
X80837489Y-94123885D01*
X81323670Y-93799029D01*
X81534000Y-93484248D01*
X81744330Y-93799029D01*
X82230511Y-94123885D01*
X82804000Y-94237959D01*
X83377489Y-94123885D01*
X83863670Y-93799029D01*
X84079664Y-93475772D01*
X84137179Y-93598490D01*
X84569053Y-93992688D01*
X84984974Y-94164958D01*
X85217000Y-94043817D01*
X85217000Y-92837000D01*
X85471000Y-92837000D01*
X85471000Y-94043817D01*
X85703026Y-94164958D01*
X86118947Y-93992688D01*
X86550821Y-93598490D01*
X86798968Y-93069027D01*
X86678469Y-92837000D01*
X85471000Y-92837000D01*
X85217000Y-92837000D01*
X85197000Y-92837000D01*
X85197000Y-92583000D01*
X85217000Y-92583000D01*
X85217000Y-92563000D01*
X85471000Y-92563000D01*
X85471000Y-92583000D01*
X86678469Y-92583000D01*
X86798968Y-92350973D01*
X86550821Y-91821510D01*
X86364567Y-91651505D01*
X86442917Y-91636762D01*
X86659041Y-91497690D01*
X86804031Y-91285490D01*
X86855040Y-91033600D01*
X86855040Y-90863819D01*
X87062679Y-90725079D01*
X87627259Y-90160499D01*
X101536729Y-90160499D01*
X101536269Y-90688086D01*
X101650687Y-90965000D01*
X92537506Y-90965000D01*
X92530327Y-90957808D01*
X92186799Y-90815162D01*
X91814833Y-90814838D01*
X91471057Y-90956883D01*
X91207808Y-91219673D01*
X91065162Y-91563201D01*
X91064838Y-91935167D01*
X91206883Y-92278943D01*
X91469673Y-92542192D01*
X91813201Y-92684838D01*
X92185167Y-92685162D01*
X92528943Y-92543117D01*
X92537074Y-92535000D01*
X132405000Y-92535000D01*
X132705407Y-92475245D01*
X132960079Y-92305079D01*
X135265158Y-90000000D01*
X141315000Y-90000000D01*
X141595504Y-91410188D01*
X142394312Y-92605688D01*
X143589812Y-93404496D01*
X145000000Y-93685000D01*
X146410188Y-93404496D01*
X147605688Y-92605688D01*
X148404496Y-91410188D01*
X148685000Y-90000000D01*
X148404496Y-88589812D01*
X147605688Y-87394312D01*
X146410188Y-86595504D01*
X145000000Y-86315000D01*
X143589812Y-86595504D01*
X142394312Y-87394312D01*
X141595504Y-88589812D01*
X141315000Y-90000000D01*
X135265158Y-90000000D01*
X137394026Y-87871132D01*
X137533579Y-87929080D01*
X138183820Y-87929648D01*
X138784781Y-87681336D01*
X139244972Y-87221947D01*
X139494332Y-86621421D01*
X139494900Y-85971180D01*
X139246588Y-85370219D01*
X138787199Y-84910028D01*
X138186673Y-84660668D01*
X137536432Y-84660100D01*
X136935471Y-84908412D01*
X136475280Y-85367801D01*
X136225920Y-85968327D01*
X136225352Y-86618568D01*
X136284098Y-86760744D01*
X132079842Y-90965000D01*
X111709249Y-90965000D01*
X111823268Y-90690413D01*
X111823730Y-90160499D01*
X127624501Y-90160499D01*
X127924908Y-90100744D01*
X128179580Y-89930578D01*
X136441338Y-81668820D01*
X141175100Y-81668820D01*
X141423412Y-82269781D01*
X141882801Y-82729972D01*
X142483327Y-82979332D01*
X143133568Y-82979900D01*
X143734529Y-82731588D01*
X144194720Y-82272199D01*
X144444080Y-81671673D01*
X144444648Y-81021432D01*
X144385902Y-80879256D01*
X147875079Y-77390079D01*
X148045245Y-77135407D01*
X148105000Y-76835000D01*
X148105000Y-76320617D01*
X148216657Y-76274481D01*
X148662914Y-75829003D01*
X148904724Y-75246659D01*
X148905275Y-74616107D01*
X148664481Y-74033343D01*
X148219003Y-73587086D01*
X147636659Y-73345276D01*
X147006107Y-73344725D01*
X146423343Y-73585519D01*
X146325663Y-73683029D01*
X146194090Y-73478559D01*
X145981890Y-73333569D01*
X145730000Y-73282560D01*
X143830000Y-73282560D01*
X143594683Y-73326838D01*
X143378559Y-73465910D01*
X143233569Y-73678110D01*
X143182560Y-73930000D01*
X143182560Y-75930000D01*
X143226838Y-76165317D01*
X143365910Y-76381441D01*
X143578110Y-76526431D01*
X143830000Y-76577440D01*
X145730000Y-76577440D01*
X145965317Y-76533162D01*
X146181441Y-76394090D01*
X146326431Y-76181890D01*
X146327055Y-76178808D01*
X146420997Y-76272914D01*
X146535000Y-76320252D01*
X146535000Y-76509842D01*
X143275974Y-79768868D01*
X143136421Y-79710920D01*
X142486180Y-79710352D01*
X141885219Y-79958664D01*
X141425028Y-80418053D01*
X141175668Y-81018579D01*
X141175100Y-81668820D01*
X136441338Y-81668820D01*
X137305079Y-80805079D01*
X137315123Y-80790047D01*
X137475245Y-80550406D01*
X137535000Y-80250000D01*
X137535000Y-76577440D01*
X139380000Y-76577440D01*
X139615317Y-76533162D01*
X139831441Y-76394090D01*
X139976431Y-76181890D01*
X139977055Y-76178808D01*
X140070997Y-76272914D01*
X140653341Y-76514724D01*
X141283893Y-76515275D01*
X141866657Y-76274481D01*
X142312914Y-75829003D01*
X142554724Y-75246659D01*
X142555275Y-74616107D01*
X142314481Y-74033343D01*
X141869003Y-73587086D01*
X141755000Y-73539748D01*
X141755000Y-71314906D01*
X142343774Y-70726132D01*
X142483327Y-70784080D01*
X143133568Y-70784648D01*
X143734529Y-70536336D01*
X144194720Y-70076947D01*
X144444080Y-69476421D01*
X144444648Y-68826180D01*
X144196336Y-68225219D01*
X143736947Y-67765028D01*
X143136421Y-67515668D01*
X142486180Y-67515100D01*
X141885219Y-67763412D01*
X141425028Y-68222801D01*
X141175668Y-68823327D01*
X141175100Y-69473568D01*
X141233846Y-69615744D01*
X140414921Y-70434669D01*
X140244755Y-70689341D01*
X140200897Y-70909827D01*
X140185000Y-70989748D01*
X140185000Y-73539383D01*
X140073343Y-73585519D01*
X139975663Y-73683029D01*
X139844090Y-73478559D01*
X139631890Y-73333569D01*
X139380000Y-73282560D01*
X137535000Y-73282560D01*
X137535000Y-65834333D01*
X138183820Y-65834900D01*
X138784781Y-65586588D01*
X139244972Y-65127199D01*
X139494332Y-64526673D01*
X139494900Y-63876432D01*
X139246588Y-63275471D01*
X138787199Y-62815280D01*
X138186673Y-62565920D01*
X137536432Y-62565352D01*
X136935471Y-62813664D01*
X136475280Y-63273053D01*
X136225920Y-63873579D01*
X136225352Y-64523820D01*
X136284098Y-64665996D01*
X136194921Y-64755173D01*
X136024755Y-65009845D01*
X135969056Y-65289860D01*
X135965000Y-65310252D01*
X135965000Y-74034599D01*
X135964481Y-74033343D01*
X135519003Y-73587086D01*
X134936659Y-73345276D01*
X134306107Y-73344725D01*
X133723343Y-73585519D01*
X133625663Y-73683029D01*
X133494090Y-73478559D01*
X133281890Y-73333569D01*
X133030000Y-73282560D01*
X131130000Y-73282560D01*
X130894683Y-73326838D01*
X130678559Y-73465910D01*
X130533569Y-73678110D01*
X130482560Y-73930000D01*
X130482560Y-75930000D01*
X130526838Y-76165317D01*
X130665910Y-76381441D01*
X130878110Y-76526431D01*
X131130000Y-76577440D01*
X133030000Y-76577440D01*
X133265317Y-76533162D01*
X133481441Y-76394090D01*
X133626431Y-76181890D01*
X133627055Y-76178808D01*
X133720997Y-76272914D01*
X133835000Y-76320252D01*
X133835000Y-76509842D01*
X130575974Y-79768868D01*
X130436421Y-79710920D01*
X129786180Y-79710352D01*
X129185219Y-79958664D01*
X128725028Y-80418053D01*
X128475668Y-81018579D01*
X128475100Y-81668820D01*
X128723412Y-82269781D01*
X129182801Y-82729972D01*
X129783327Y-82979332D01*
X130433568Y-82979900D01*
X131034529Y-82731588D01*
X131494720Y-82272199D01*
X131744080Y-81671673D01*
X131744648Y-81021432D01*
X131685902Y-80879256D01*
X135175079Y-77390079D01*
X135345245Y-77135407D01*
X135405000Y-76835000D01*
X135405000Y-76320617D01*
X135516657Y-76274481D01*
X135962914Y-75829003D01*
X135965000Y-75823979D01*
X135965000Y-79924842D01*
X127299343Y-88590499D01*
X123974659Y-88590499D01*
X124694025Y-87871132D01*
X124833579Y-87929080D01*
X125483820Y-87929648D01*
X126084781Y-87681336D01*
X126544972Y-87221947D01*
X126794332Y-86621421D01*
X126794900Y-85971180D01*
X126546588Y-85370219D01*
X126087199Y-84910028D01*
X125486673Y-84660668D01*
X124836432Y-84660100D01*
X124235471Y-84908412D01*
X123775280Y-85367801D01*
X123525920Y-85968327D01*
X123525352Y-86618568D01*
X123584098Y-86760744D01*
X122647443Y-87697399D01*
X113345906Y-87697399D01*
X113384781Y-87681336D01*
X113844972Y-87221947D01*
X114094332Y-86621421D01*
X114094900Y-85971180D01*
X113846588Y-85370219D01*
X113387199Y-84910028D01*
X112786673Y-84660668D01*
X112136432Y-84660100D01*
X111994256Y-84718846D01*
X111070319Y-83794909D01*
X110815647Y-83624743D01*
X110515240Y-83564988D01*
X69476011Y-83564988D01*
X69528943Y-83543117D01*
X69537074Y-83535000D01*
X97500000Y-83535000D01*
X97800407Y-83475245D01*
X98055079Y-83305079D01*
X105153463Y-76206694D01*
X105265910Y-76381441D01*
X105478110Y-76526431D01*
X105730000Y-76577440D01*
X107630000Y-76577440D01*
X107865317Y-76533162D01*
X108081441Y-76394090D01*
X108226431Y-76181890D01*
X108227055Y-76178808D01*
X108320997Y-76272914D01*
X108435000Y-76320252D01*
X108435000Y-76509842D01*
X105175974Y-79768868D01*
X105036421Y-79710920D01*
X104386180Y-79710352D01*
X103785219Y-79958664D01*
X103325028Y-80418053D01*
X103075668Y-81018579D01*
X103075100Y-81668820D01*
X103323412Y-82269781D01*
X103782801Y-82729972D01*
X104383327Y-82979332D01*
X105033568Y-82979900D01*
X105634529Y-82731588D01*
X106094720Y-82272199D01*
X106344080Y-81671673D01*
X106344082Y-81668820D01*
X115775100Y-81668820D01*
X116023412Y-82269781D01*
X116482801Y-82729972D01*
X117083327Y-82979332D01*
X117733568Y-82979900D01*
X118334529Y-82731588D01*
X118794720Y-82272199D01*
X119044080Y-81671673D01*
X119044648Y-81021432D01*
X118985902Y-80879256D01*
X122475079Y-77390079D01*
X122645245Y-77135407D01*
X122705000Y-76835000D01*
X122705000Y-76320617D01*
X122816657Y-76274481D01*
X123262914Y-75829003D01*
X123504724Y-75246659D01*
X123505275Y-74616107D01*
X123264481Y-74033343D01*
X123161319Y-73930000D01*
X124132560Y-73930000D01*
X124132560Y-75930000D01*
X124176838Y-76165317D01*
X124315910Y-76381441D01*
X124528110Y-76526431D01*
X124780000Y-76577440D01*
X126680000Y-76577440D01*
X126915317Y-76533162D01*
X127131441Y-76394090D01*
X127276431Y-76181890D01*
X127277055Y-76178808D01*
X127370997Y-76272914D01*
X127953341Y-76514724D01*
X128583893Y-76515275D01*
X129166657Y-76274481D01*
X129612914Y-75829003D01*
X129854724Y-75246659D01*
X129855275Y-74616107D01*
X129614481Y-74033343D01*
X129169003Y-73587086D01*
X129055000Y-73539748D01*
X129055000Y-70679906D01*
X129643774Y-70091132D01*
X129783327Y-70149080D01*
X130433568Y-70149648D01*
X131034529Y-69901336D01*
X131494720Y-69441947D01*
X131744080Y-68841421D01*
X131744648Y-68191180D01*
X131496336Y-67590219D01*
X131036947Y-67130028D01*
X130436421Y-66880668D01*
X129786180Y-66880100D01*
X129185219Y-67128412D01*
X128725028Y-67587801D01*
X128475668Y-68188327D01*
X128475100Y-68838568D01*
X128533846Y-68980744D01*
X127714921Y-69799669D01*
X127544755Y-70054341D01*
X127515862Y-70199594D01*
X127485000Y-70354748D01*
X127485000Y-73539383D01*
X127373343Y-73585519D01*
X127275663Y-73683029D01*
X127144090Y-73478559D01*
X126931890Y-73333569D01*
X126680000Y-73282560D01*
X124780000Y-73282560D01*
X124544683Y-73326838D01*
X124328559Y-73465910D01*
X124183569Y-73678110D01*
X124132560Y-73930000D01*
X123161319Y-73930000D01*
X122819003Y-73587086D01*
X122236659Y-73345276D01*
X121606107Y-73344725D01*
X121023343Y-73585519D01*
X120925663Y-73683029D01*
X120794090Y-73478559D01*
X120581890Y-73333569D01*
X120330000Y-73282560D01*
X118430000Y-73282560D01*
X118194683Y-73326838D01*
X117978559Y-73465910D01*
X117833569Y-73678110D01*
X117782560Y-73930000D01*
X117782560Y-75930000D01*
X117826838Y-76165317D01*
X117965910Y-76381441D01*
X118178110Y-76526431D01*
X118430000Y-76577440D01*
X120330000Y-76577440D01*
X120565317Y-76533162D01*
X120781441Y-76394090D01*
X120926431Y-76181890D01*
X120927055Y-76178808D01*
X121020997Y-76272914D01*
X121135000Y-76320252D01*
X121135000Y-76509842D01*
X117875974Y-79768868D01*
X117736421Y-79710920D01*
X117086180Y-79710352D01*
X116485219Y-79958664D01*
X116025028Y-80418053D01*
X115775668Y-81018579D01*
X115775100Y-81668820D01*
X106344082Y-81668820D01*
X106344648Y-81021432D01*
X106285902Y-80879256D01*
X109775079Y-77390079D01*
X109945245Y-77135407D01*
X110005000Y-76835000D01*
X110005000Y-76320617D01*
X110116657Y-76274481D01*
X110562914Y-75829003D01*
X110804724Y-75246659D01*
X110805275Y-74616107D01*
X110564481Y-74033343D01*
X110461319Y-73930000D01*
X111432560Y-73930000D01*
X111432560Y-75930000D01*
X111476838Y-76165317D01*
X111615910Y-76381441D01*
X111828110Y-76526431D01*
X112080000Y-76577440D01*
X113980000Y-76577440D01*
X114215317Y-76533162D01*
X114431441Y-76394090D01*
X114576431Y-76181890D01*
X114577055Y-76178808D01*
X114670997Y-76272914D01*
X115253341Y-76514724D01*
X115883893Y-76515275D01*
X116466657Y-76274481D01*
X116912914Y-75829003D01*
X117154724Y-75246659D01*
X117155275Y-74616107D01*
X116914481Y-74033343D01*
X116469003Y-73587086D01*
X116355000Y-73539748D01*
X116355000Y-70679906D01*
X116943774Y-70091132D01*
X117083327Y-70149080D01*
X117733568Y-70149648D01*
X118334529Y-69901336D01*
X118794720Y-69441947D01*
X119044080Y-68841421D01*
X119044648Y-68191180D01*
X118796336Y-67590219D01*
X118336947Y-67130028D01*
X117736421Y-66880668D01*
X117086180Y-66880100D01*
X116485219Y-67128412D01*
X116025028Y-67587801D01*
X115775668Y-68188327D01*
X115775100Y-68838568D01*
X115833846Y-68980744D01*
X115014921Y-69799669D01*
X114844755Y-70054341D01*
X114815862Y-70199594D01*
X114785000Y-70354748D01*
X114785000Y-73539383D01*
X114673343Y-73585519D01*
X114575663Y-73683029D01*
X114444090Y-73478559D01*
X114231890Y-73333569D01*
X113980000Y-73282560D01*
X112080000Y-73282560D01*
X111844683Y-73326838D01*
X111628559Y-73465910D01*
X111483569Y-73678110D01*
X111432560Y-73930000D01*
X110461319Y-73930000D01*
X110119003Y-73587086D01*
X109536659Y-73345276D01*
X108906107Y-73344725D01*
X108323343Y-73585519D01*
X108225663Y-73683029D01*
X108094090Y-73478559D01*
X107881890Y-73333569D01*
X107630000Y-73282560D01*
X106857596Y-73282560D01*
X114790541Y-65349615D01*
X124160637Y-65349615D01*
X124461044Y-65289860D01*
X124687382Y-65138626D01*
X124833579Y-65199332D01*
X125483820Y-65199900D01*
X126084781Y-64951588D01*
X126544972Y-64492199D01*
X126794332Y-63891673D01*
X126794900Y-63241432D01*
X126695405Y-63000635D01*
X130684365Y-63000635D01*
X130984772Y-62940880D01*
X131239444Y-62770714D01*
X134010158Y-60000000D01*
X141315000Y-60000000D01*
X141595504Y-61410188D01*
X142394312Y-62605688D01*
X143589812Y-63404496D01*
X145000000Y-63685000D01*
X146410188Y-63404496D01*
X147605688Y-62605688D01*
X148404496Y-61410188D01*
X148685000Y-60000000D01*
X148404496Y-58589812D01*
X147605688Y-57394312D01*
X146410188Y-56595504D01*
X145000000Y-56315000D01*
X143589812Y-56595504D01*
X142394312Y-57394312D01*
X141595504Y-58589812D01*
X141315000Y-60000000D01*
X134010158Y-60000000D01*
X135375079Y-58635079D01*
X135545245Y-58380407D01*
X135605000Y-58080000D01*
X135605000Y-57572558D01*
X135879670Y-57389029D01*
X136204526Y-56902848D01*
X136318600Y-56329359D01*
X136318600Y-56270641D01*
X136204526Y-55697152D01*
X135889474Y-55225644D01*
X136043299Y-55161927D01*
X136221927Y-54983298D01*
X136318600Y-54749909D01*
X136318600Y-54045750D01*
X136159850Y-53887000D01*
X134947000Y-53887000D01*
X134947000Y-53907000D01*
X134693000Y-53907000D01*
X134693000Y-53887000D01*
X134673000Y-53887000D01*
X134673000Y-53633000D01*
X134693000Y-53633000D01*
X134693000Y-52420150D01*
X134947000Y-52420150D01*
X134947000Y-53633000D01*
X136159850Y-53633000D01*
X136318600Y-53474250D01*
X136318600Y-52770091D01*
X136221927Y-52536702D01*
X136043299Y-52358073D01*
X135809910Y-52261400D01*
X135105750Y-52261400D01*
X134947000Y-52420150D01*
X134693000Y-52420150D01*
X134534250Y-52261400D01*
X133830090Y-52261400D01*
X133596701Y-52358073D01*
X133418073Y-52536702D01*
X133353737Y-52692023D01*
X133339670Y-52670971D01*
X132853489Y-52346115D01*
X132280000Y-52232041D01*
X131706511Y-52346115D01*
X131220330Y-52670971D01*
X131010000Y-52985752D01*
X130799670Y-52670971D01*
X130313489Y-52346115D01*
X129740000Y-52232041D01*
X129166511Y-52346115D01*
X128680330Y-52670971D01*
X128470000Y-52985752D01*
X128259670Y-52670971D01*
X127773489Y-52346115D01*
X127200000Y-52232041D01*
X126626511Y-52346115D01*
X126140330Y-52670971D01*
X125937184Y-52975000D01*
X121420968Y-52975000D01*
X121504965Y-52943958D01*
X121731401Y-52334418D01*
X121707341Y-51684623D01*
X121504965Y-51196042D01*
X121238163Y-51097443D01*
X120265605Y-52070000D01*
X120279748Y-52084142D01*
X120100142Y-52263748D01*
X120086000Y-52249605D01*
X120071858Y-52263748D01*
X119892252Y-52084142D01*
X119906395Y-52070000D01*
X118933837Y-51097443D01*
X118667035Y-51196042D01*
X118440599Y-51805582D01*
X118464659Y-52455377D01*
X118667035Y-52943958D01*
X118751032Y-52975000D01*
X114480012Y-52975000D01*
X114720206Y-52396547D01*
X114720774Y-51746306D01*
X114472462Y-51145345D01*
X114062832Y-50735000D01*
X119181012Y-50735000D01*
X119113443Y-50917837D01*
G36*
X111701154Y-51142927D02*
X111451794Y-51743453D01*
X111451621Y-51941463D01*
X111255079Y-51744921D01*
X111000407Y-51574755D01*
X110700000Y-51515000D01*
X101400005Y-51515000D01*
X101400000Y-51514999D01*
X101099594Y-51574755D01*
X100844921Y-51744921D01*
X100844919Y-51744924D01*
X99234843Y-53354999D01*
X65090836Y-53354999D01*
X65138846Y-53307073D01*
X65388206Y-52706547D01*
X65388774Y-52056306D01*
X65140462Y-51455345D01*
X64681073Y-50995154D01*
X64080547Y-50745794D01*
X63430306Y-50745226D01*
X62829345Y-50993538D01*
X62369154Y-51452927D01*
X62119794Y-52053453D01*
X62119404Y-52499796D01*
X62002811Y-52325302D01*
X61537264Y-52014233D01*
X60988113Y-51905000D01*
X60931887Y-51905000D01*
X60382736Y-52014233D01*
X59917189Y-52325302D01*
X59606120Y-52790849D01*
X59496887Y-53340000D01*
X59606120Y-53889151D01*
X59917189Y-54354698D01*
X60299275Y-54610000D01*
X59917189Y-54865302D01*
X59606120Y-55330849D01*
X59496887Y-55880000D01*
X59589382Y-56345001D01*
X57169999Y-56345001D01*
X56869592Y-56404756D01*
X56614920Y-56574922D01*
X54797593Y-58392249D01*
X54693880Y-57870849D01*
X54382811Y-57405302D01*
X54000725Y-57150000D01*
X54382811Y-56894698D01*
X54693880Y-56429151D01*
X54803113Y-55880000D01*
X54693880Y-55330849D01*
X54382811Y-54865302D01*
X54000725Y-54610000D01*
X54382811Y-54354698D01*
X54693880Y-53889151D01*
X54803113Y-53340000D01*
X54693880Y-52790849D01*
X54382811Y-52325302D01*
X53917264Y-52014233D01*
X53368113Y-51905000D01*
X53311887Y-51905000D01*
X52762736Y-52014233D01*
X52297189Y-52325302D01*
X51986120Y-52790849D01*
X51876887Y-53340000D01*
X51986120Y-53889151D01*
X52297189Y-54354698D01*
X52679275Y-54610000D01*
X52297189Y-54865302D01*
X51986120Y-55330849D01*
X51876887Y-55880000D01*
X51986120Y-56429151D01*
X52297189Y-56894698D01*
X52679275Y-57150000D01*
X52297189Y-57405302D01*
X51986120Y-57870849D01*
X51876887Y-58420000D01*
X51986120Y-58969151D01*
X52297189Y-59434698D01*
X52679275Y-59690000D01*
X52297189Y-59945302D01*
X51986120Y-60410849D01*
X51876887Y-60960000D01*
X51986120Y-61509151D01*
X52297189Y-61974698D01*
X52679275Y-62230000D01*
X52297189Y-62485302D01*
X51986120Y-62950849D01*
X51876887Y-63500000D01*
X51986120Y-64049151D01*
X52297189Y-64514698D01*
X52679275Y-64770000D01*
X52297189Y-65025302D01*
X51986120Y-65490849D01*
X51876887Y-66040000D01*
X51986120Y-66589151D01*
X52297189Y-67054698D01*
X52701703Y-67324986D01*
X52484866Y-67427611D01*
X52108959Y-67842577D01*
X51948096Y-68230961D01*
X52070085Y-68453000D01*
X53213000Y-68453000D01*
X53213000Y-68433000D01*
X53467000Y-68433000D01*
X53467000Y-68453000D01*
X54609915Y-68453000D01*
X54731904Y-68230961D01*
X54571041Y-67842577D01*
X54195134Y-67427611D01*
X53978297Y-67324986D01*
X54382811Y-67054698D01*
X54693880Y-66589151D01*
X54803113Y-66040000D01*
X54693880Y-65490849D01*
X54382811Y-65025302D01*
X54000725Y-64770000D01*
X54382811Y-64514698D01*
X54693880Y-64049151D01*
X54803113Y-63500000D01*
X54693880Y-62950849D01*
X54382811Y-62485302D01*
X54000725Y-62230000D01*
X54382811Y-61974698D01*
X54693880Y-61509151D01*
X54803113Y-60960000D01*
X54744554Y-60665604D01*
X57495157Y-57915001D01*
X59597338Y-57915001D01*
X59496887Y-58420000D01*
X59606120Y-58969151D01*
X59917189Y-59434698D01*
X60299275Y-59690000D01*
X59917189Y-59945302D01*
X59606120Y-60410849D01*
X59496887Y-60960000D01*
X59606120Y-61509151D01*
X59917189Y-61974698D01*
X60299275Y-62230000D01*
X59917189Y-62485302D01*
X59606120Y-62950849D01*
X59496887Y-63500000D01*
X59606120Y-64049151D01*
X59917189Y-64514698D01*
X60299275Y-64770000D01*
X59917189Y-65025302D01*
X59606120Y-65490849D01*
X59496887Y-66040000D01*
X59606120Y-66589151D01*
X59643436Y-66644999D01*
X59320001Y-66644999D01*
X59019594Y-66704754D01*
X58764922Y-66874920D01*
X55694921Y-69944921D01*
X55524755Y-70199593D01*
X55501862Y-70314683D01*
X55465000Y-70500000D01*
X55465000Y-78044843D01*
X54797593Y-78712250D01*
X54693880Y-78190849D01*
X54382811Y-77725302D01*
X54000725Y-77470000D01*
X54382811Y-77214698D01*
X54693880Y-76749151D01*
X54803113Y-76200000D01*
X54693880Y-75650849D01*
X54382811Y-75185302D01*
X54000725Y-74930000D01*
X54382811Y-74674698D01*
X54693880Y-74209151D01*
X54803113Y-73660000D01*
X54693880Y-73110849D01*
X54382811Y-72645302D01*
X54000725Y-72390000D01*
X54382811Y-72134698D01*
X54693880Y-71669151D01*
X54803113Y-71120000D01*
X54693880Y-70570849D01*
X54382811Y-70105302D01*
X53978297Y-69835014D01*
X54195134Y-69732389D01*
X54571041Y-69317423D01*
X54731904Y-68929039D01*
X54609915Y-68707000D01*
X53467000Y-68707000D01*
X53467000Y-68727000D01*
X53213000Y-68727000D01*
X53213000Y-68707000D01*
X52070085Y-68707000D01*
X51948096Y-68929039D01*
X52108959Y-69317423D01*
X52484866Y-69732389D01*
X52701703Y-69835014D01*
X52297189Y-70105302D01*
X51986120Y-70570849D01*
X51876887Y-71120000D01*
X51986120Y-71669151D01*
X52297189Y-72134698D01*
X52679275Y-72390000D01*
X52297189Y-72645302D01*
X51986120Y-73110849D01*
X51876887Y-73660000D01*
X51986120Y-74209151D01*
X52297189Y-74674698D01*
X52679275Y-74930000D01*
X52297189Y-75185302D01*
X51986120Y-75650849D01*
X51876887Y-76200000D01*
X51935446Y-76494396D01*
X51194921Y-77234921D01*
X51024755Y-77489593D01*
X51009819Y-77564683D01*
X50965000Y-77790000D01*
X50965000Y-88940940D01*
X51024755Y-89241347D01*
X51194921Y-89496019D01*
X53173730Y-91474828D01*
X53173250Y-92024398D01*
X53173617Y-92025285D01*
X52694921Y-92503981D01*
X52524755Y-92758653D01*
X52524755Y-92758654D01*
X52465000Y-93059060D01*
X52465000Y-95668554D01*
X52314683Y-95696838D01*
X52098559Y-95835910D01*
X51953569Y-96048110D01*
X51902560Y-96300000D01*
X51902560Y-97700000D01*
X51946838Y-97935317D01*
X52085910Y-98151441D01*
X52298110Y-98296431D01*
X52550000Y-98347440D01*
X53950000Y-98347440D01*
X54185317Y-98303162D01*
X54401441Y-98164090D01*
X54546431Y-97951890D01*
X54597440Y-97700000D01*
X54597440Y-97264383D01*
X56914769Y-97264383D01*
X57117582Y-97755229D01*
X57492796Y-98131098D01*
X57983287Y-98334768D01*
X58514383Y-98335231D01*
X59005229Y-98132418D01*
X59375316Y-97762976D01*
X59742796Y-98131098D01*
X60233287Y-98334768D01*
X60764383Y-98335231D01*
X61255229Y-98132418D01*
X61631098Y-97757204D01*
X61834768Y-97266713D01*
X61835231Y-96735617D01*
X61632418Y-96244771D01*
X61257204Y-95868902D01*
X60766713Y-95665232D01*
X60235617Y-95664769D01*
X59744771Y-95867582D01*
X59374684Y-96237024D01*
X59007204Y-95868902D01*
X58516713Y-95665232D01*
X57985617Y-95664769D01*
X57494771Y-95867582D01*
X57118902Y-96242796D01*
X56915232Y-96733287D01*
X56914769Y-97264383D01*
X54597440Y-97264383D01*
X54597440Y-96300000D01*
X54553162Y-96064683D01*
X54414090Y-95848559D01*
X54201890Y-95703569D01*
X54035000Y-95669773D01*
X54035000Y-93384218D01*
X54283888Y-93135330D01*
X54833458Y-93135810D01*
X55342897Y-92925314D01*
X55733004Y-92535887D01*
X55944389Y-92026816D01*
X55944391Y-92024398D01*
X58055130Y-92024398D01*
X58265626Y-92533837D01*
X58655053Y-92923944D01*
X59164124Y-93135329D01*
X59715338Y-93135810D01*
X60224777Y-92925314D01*
X60518881Y-92631723D01*
X60841081Y-92567633D01*
X60889920Y-92535000D01*
X61124842Y-92535000D01*
X64395528Y-95805686D01*
X64348559Y-95835910D01*
X64203569Y-96048110D01*
X64152560Y-96300000D01*
X64152560Y-97700000D01*
X64196838Y-97935317D01*
X64335910Y-98151441D01*
X64548110Y-98296431D01*
X64800000Y-98347440D01*
X66200000Y-98347440D01*
X66435317Y-98303162D01*
X66651441Y-98164090D01*
X66796431Y-97951890D01*
X66847440Y-97700000D01*
X66847440Y-96300000D01*
X66803162Y-96064683D01*
X66664090Y-95848559D01*
X66451890Y-95703569D01*
X66258009Y-95664307D01*
X66225245Y-95499594D01*
X66055079Y-95244921D01*
X62005079Y-91194921D01*
X61750407Y-91024755D01*
X61450000Y-90965000D01*
X60889920Y-90965000D01*
X60841081Y-90932367D01*
X60518454Y-90868192D01*
X60226827Y-90576056D01*
X59717756Y-90364671D01*
X59166542Y-90364190D01*
X58657103Y-90574686D01*
X58266996Y-90964113D01*
X58055611Y-91473184D01*
X58055130Y-92024398D01*
X55944391Y-92024398D01*
X55944870Y-91475602D01*
X55734374Y-90966163D01*
X55344947Y-90576056D01*
X54835876Y-90364671D01*
X54284662Y-90364190D01*
X54283775Y-90364557D01*
X52535000Y-88615782D01*
X52535000Y-87533598D01*
X52762736Y-87685767D01*
X53311887Y-87795000D01*
X53368113Y-87795000D01*
X53917264Y-87685767D01*
X54382811Y-87374698D01*
X54693880Y-86909151D01*
X54803113Y-86360000D01*
X54744554Y-86065604D01*
X57555079Y-83255079D01*
X57725245Y-83000406D01*
X57785001Y-82700000D01*
X57785000Y-82699995D01*
X57785000Y-73703156D01*
X59700191Y-71787965D01*
X59728959Y-71857423D01*
X60104866Y-72272389D01*
X60353367Y-72390000D01*
X60104866Y-72507611D01*
X59728959Y-72922577D01*
X59568096Y-73310961D01*
X59690085Y-73533000D01*
X60833000Y-73533000D01*
X60833000Y-71247000D01*
X60813000Y-71247000D01*
X60813000Y-70993000D01*
X60833000Y-70993000D01*
X60833000Y-70973000D01*
X61087000Y-70973000D01*
X61087000Y-70993000D01*
X61107000Y-70993000D01*
X61107000Y-71247000D01*
X61087000Y-71247000D01*
X61087000Y-73533000D01*
X62229915Y-73533000D01*
X62351904Y-73310961D01*
X62191041Y-72922577D01*
X61815134Y-72507611D01*
X61566633Y-72390000D01*
X61815134Y-72272389D01*
X62191041Y-71857423D01*
X62248845Y-71717863D01*
X62367582Y-72005229D01*
X62742796Y-72381098D01*
X63233287Y-72584768D01*
X63725039Y-72585197D01*
X64965000Y-73825157D01*
X64965000Y-87687600D01*
X65024755Y-87988007D01*
X65194921Y-88242679D01*
X75043321Y-98091079D01*
X75082116Y-98117001D01*
X72125157Y-98117001D01*
X61631174Y-87623018D01*
X62002811Y-87374698D01*
X62313880Y-86909151D01*
X62423113Y-86360000D01*
X62313880Y-85810849D01*
X62002811Y-85345302D01*
X61620725Y-85090000D01*
X62002811Y-84834698D01*
X62313880Y-84369151D01*
X62423113Y-83820000D01*
X62313880Y-83270849D01*
X62002811Y-82805302D01*
X61620725Y-82550000D01*
X62002811Y-82294698D01*
X62313880Y-81829151D01*
X62423113Y-81280000D01*
X62313880Y-80730849D01*
X62002811Y-80265302D01*
X61620725Y-80010000D01*
X62002811Y-79754698D01*
X62206344Y-79450090D01*
X62335910Y-79651441D01*
X62548110Y-79796431D01*
X62800000Y-79847440D01*
X64200000Y-79847440D01*
X64435317Y-79803162D01*
X64651441Y-79664090D01*
X64796431Y-79451890D01*
X64847440Y-79200000D01*
X64847440Y-77800000D01*
X64803162Y-77564683D01*
X64664090Y-77348559D01*
X64451890Y-77203569D01*
X64200000Y-77152560D01*
X63657598Y-77152560D01*
X64555079Y-76255079D01*
X64725245Y-76000407D01*
X64785000Y-75700000D01*
X64785000Y-75537506D01*
X64792192Y-75530327D01*
X64934838Y-75186799D01*
X64935162Y-74814833D01*
X64793117Y-74471057D01*
X64530327Y-74207808D01*
X64186799Y-74065162D01*
X63814833Y-74064838D01*
X63471057Y-74206883D01*
X63207808Y-74469673D01*
X63065162Y-74813201D01*
X63064838Y-75185167D01*
X63164200Y-75425642D01*
X62417593Y-76172249D01*
X62313880Y-75650849D01*
X62002811Y-75185302D01*
X61598297Y-74915014D01*
X61815134Y-74812389D01*
X62191041Y-74397423D01*
X62351904Y-74009039D01*
X62229915Y-73787000D01*
X61087000Y-73787000D01*
X61087000Y-73807000D01*
X60833000Y-73807000D01*
X60833000Y-73787000D01*
X59690085Y-73787000D01*
X59568096Y-74009039D01*
X59728959Y-74397423D01*
X60104866Y-74812389D01*
X60321703Y-74915014D01*
X59917189Y-75185302D01*
X59606120Y-75650849D01*
X59496887Y-76200000D01*
X59606120Y-76749151D01*
X59917189Y-77214698D01*
X60299275Y-77470000D01*
X59917189Y-77725302D01*
X59606120Y-78190849D01*
X59535000Y-78548393D01*
X59535000Y-78037506D01*
X59542192Y-78030327D01*
X59684838Y-77686799D01*
X59685162Y-77314833D01*
X59543117Y-76971057D01*
X59280327Y-76707808D01*
X58936799Y-76565162D01*
X58564833Y-76564838D01*
X58221057Y-76706883D01*
X57957808Y-76969673D01*
X57815162Y-77313201D01*
X57814838Y-77685167D01*
X57956883Y-78028943D01*
X57965000Y-78037074D01*
X57965000Y-85852002D01*
X58024755Y-86152409D01*
X58194921Y-86407081D01*
X71052840Y-99265000D01*
X53072391Y-99265000D01*
X52138733Y-99079284D01*
X51408586Y-98591415D01*
X50920716Y-97861267D01*
X50735000Y-96927610D01*
X50735000Y-53072390D01*
X50920716Y-52138733D01*
X51408586Y-51408585D01*
X52138733Y-50920716D01*
X53072391Y-50735000D01*
X112109793Y-50735000D01*
X111701154Y-51142927D01*
X111701154Y-51142927D01*
G37*
X111701154Y-51142927D02*
X111451794Y-51743453D01*
X111451621Y-51941463D01*
X111255079Y-51744921D01*
X111000407Y-51574755D01*
X110700000Y-51515000D01*
X101400005Y-51515000D01*
X101400000Y-51514999D01*
X101099594Y-51574755D01*
X100844921Y-51744921D01*
X100844919Y-51744924D01*
X99234843Y-53354999D01*
X65090836Y-53354999D01*
X65138846Y-53307073D01*
X65388206Y-52706547D01*
X65388774Y-52056306D01*
X65140462Y-51455345D01*
X64681073Y-50995154D01*
X64080547Y-50745794D01*
X63430306Y-50745226D01*
X62829345Y-50993538D01*
X62369154Y-51452927D01*
X62119794Y-52053453D01*
X62119404Y-52499796D01*
X62002811Y-52325302D01*
X61537264Y-52014233D01*
X60988113Y-51905000D01*
X60931887Y-51905000D01*
X60382736Y-52014233D01*
X59917189Y-52325302D01*
X59606120Y-52790849D01*
X59496887Y-53340000D01*
X59606120Y-53889151D01*
X59917189Y-54354698D01*
X60299275Y-54610000D01*
X59917189Y-54865302D01*
X59606120Y-55330849D01*
X59496887Y-55880000D01*
X59589382Y-56345001D01*
X57169999Y-56345001D01*
X56869592Y-56404756D01*
X56614920Y-56574922D01*
X54797593Y-58392249D01*
X54693880Y-57870849D01*
X54382811Y-57405302D01*
X54000725Y-57150000D01*
X54382811Y-56894698D01*
X54693880Y-56429151D01*
X54803113Y-55880000D01*
X54693880Y-55330849D01*
X54382811Y-54865302D01*
X54000725Y-54610000D01*
X54382811Y-54354698D01*
X54693880Y-53889151D01*
X54803113Y-53340000D01*
X54693880Y-52790849D01*
X54382811Y-52325302D01*
X53917264Y-52014233D01*
X53368113Y-51905000D01*
X53311887Y-51905000D01*
X52762736Y-52014233D01*
X52297189Y-52325302D01*
X51986120Y-52790849D01*
X51876887Y-53340000D01*
X51986120Y-53889151D01*
X52297189Y-54354698D01*
X52679275Y-54610000D01*
X52297189Y-54865302D01*
X51986120Y-55330849D01*
X51876887Y-55880000D01*
X51986120Y-56429151D01*
X52297189Y-56894698D01*
X52679275Y-57150000D01*
X52297189Y-57405302D01*
X51986120Y-57870849D01*
X51876887Y-58420000D01*
X51986120Y-58969151D01*
X52297189Y-59434698D01*
X52679275Y-59690000D01*
X52297189Y-59945302D01*
X51986120Y-60410849D01*
X51876887Y-60960000D01*
X51986120Y-61509151D01*
X52297189Y-61974698D01*
X52679275Y-62230000D01*
X52297189Y-62485302D01*
X51986120Y-62950849D01*
X51876887Y-63500000D01*
X51986120Y-64049151D01*
X52297189Y-64514698D01*
X52679275Y-64770000D01*
X52297189Y-65025302D01*
X51986120Y-65490849D01*
X51876887Y-66040000D01*
X51986120Y-66589151D01*
X52297189Y-67054698D01*
X52701703Y-67324986D01*
X52484866Y-67427611D01*
X52108959Y-67842577D01*
X51948096Y-68230961D01*
X52070085Y-68453000D01*
X53213000Y-68453000D01*
X53213000Y-68433000D01*
X53467000Y-68433000D01*
X53467000Y-68453000D01*
X54609915Y-68453000D01*
X54731904Y-68230961D01*
X54571041Y-67842577D01*
X54195134Y-67427611D01*
X53978297Y-67324986D01*
X54382811Y-67054698D01*
X54693880Y-66589151D01*
X54803113Y-66040000D01*
X54693880Y-65490849D01*
X54382811Y-65025302D01*
X54000725Y-64770000D01*
X54382811Y-64514698D01*
X54693880Y-64049151D01*
X54803113Y-63500000D01*
X54693880Y-62950849D01*
X54382811Y-62485302D01*
X54000725Y-62230000D01*
X54382811Y-61974698D01*
X54693880Y-61509151D01*
X54803113Y-60960000D01*
X54744554Y-60665604D01*
X57495157Y-57915001D01*
X59597338Y-57915001D01*
X59496887Y-58420000D01*
X59606120Y-58969151D01*
X59917189Y-59434698D01*
X60299275Y-59690000D01*
X59917189Y-59945302D01*
X59606120Y-60410849D01*
X59496887Y-60960000D01*
X59606120Y-61509151D01*
X59917189Y-61974698D01*
X60299275Y-62230000D01*
X59917189Y-62485302D01*
X59606120Y-62950849D01*
X59496887Y-63500000D01*
X59606120Y-64049151D01*
X59917189Y-64514698D01*
X60299275Y-64770000D01*
X59917189Y-65025302D01*
X59606120Y-65490849D01*
X59496887Y-66040000D01*
X59606120Y-66589151D01*
X59643436Y-66644999D01*
X59320001Y-66644999D01*
X59019594Y-66704754D01*
X58764922Y-66874920D01*
X55694921Y-69944921D01*
X55524755Y-70199593D01*
X55501862Y-70314683D01*
X55465000Y-70500000D01*
X55465000Y-78044843D01*
X54797593Y-78712250D01*
X54693880Y-78190849D01*
X54382811Y-77725302D01*
X54000725Y-77470000D01*
X54382811Y-77214698D01*
X54693880Y-76749151D01*
X54803113Y-76200000D01*
X54693880Y-75650849D01*
X54382811Y-75185302D01*
X54000725Y-74930000D01*
X54382811Y-74674698D01*
X54693880Y-74209151D01*
X54803113Y-73660000D01*
X54693880Y-73110849D01*
X54382811Y-72645302D01*
X54000725Y-72390000D01*
X54382811Y-72134698D01*
X54693880Y-71669151D01*
X54803113Y-71120000D01*
X54693880Y-70570849D01*
X54382811Y-70105302D01*
X53978297Y-69835014D01*
X54195134Y-69732389D01*
X54571041Y-69317423D01*
X54731904Y-68929039D01*
X54609915Y-68707000D01*
X53467000Y-68707000D01*
X53467000Y-68727000D01*
X53213000Y-68727000D01*
X53213000Y-68707000D01*
X52070085Y-68707000D01*
X51948096Y-68929039D01*
X52108959Y-69317423D01*
X52484866Y-69732389D01*
X52701703Y-69835014D01*
X52297189Y-70105302D01*
X51986120Y-70570849D01*
X51876887Y-71120000D01*
X51986120Y-71669151D01*
X52297189Y-72134698D01*
X52679275Y-72390000D01*
X52297189Y-72645302D01*
X51986120Y-73110849D01*
X51876887Y-73660000D01*
X51986120Y-74209151D01*
X52297189Y-74674698D01*
X52679275Y-74930000D01*
X52297189Y-75185302D01*
X51986120Y-75650849D01*
X51876887Y-76200000D01*
X51935446Y-76494396D01*
X51194921Y-77234921D01*
X51024755Y-77489593D01*
X51009819Y-77564683D01*
X50965000Y-77790000D01*
X50965000Y-88940940D01*
X51024755Y-89241347D01*
X51194921Y-89496019D01*
X53173730Y-91474828D01*
X53173250Y-92024398D01*
X53173617Y-92025285D01*
X52694921Y-92503981D01*
X52524755Y-92758653D01*
X52524755Y-92758654D01*
X52465000Y-93059060D01*
X52465000Y-95668554D01*
X52314683Y-95696838D01*
X52098559Y-95835910D01*
X51953569Y-96048110D01*
X51902560Y-96300000D01*
X51902560Y-97700000D01*
X51946838Y-97935317D01*
X52085910Y-98151441D01*
X52298110Y-98296431D01*
X52550000Y-98347440D01*
X53950000Y-98347440D01*
X54185317Y-98303162D01*
X54401441Y-98164090D01*
X54546431Y-97951890D01*
X54597440Y-97700000D01*
X54597440Y-97264383D01*
X56914769Y-97264383D01*
X57117582Y-97755229D01*
X57492796Y-98131098D01*
X57983287Y-98334768D01*
X58514383Y-98335231D01*
X59005229Y-98132418D01*
X59375316Y-97762976D01*
X59742796Y-98131098D01*
X60233287Y-98334768D01*
X60764383Y-98335231D01*
X61255229Y-98132418D01*
X61631098Y-97757204D01*
X61834768Y-97266713D01*
X61835231Y-96735617D01*
X61632418Y-96244771D01*
X61257204Y-95868902D01*
X60766713Y-95665232D01*
X60235617Y-95664769D01*
X59744771Y-95867582D01*
X59374684Y-96237024D01*
X59007204Y-95868902D01*
X58516713Y-95665232D01*
X57985617Y-95664769D01*
X57494771Y-95867582D01*
X57118902Y-96242796D01*
X56915232Y-96733287D01*
X56914769Y-97264383D01*
X54597440Y-97264383D01*
X54597440Y-96300000D01*
X54553162Y-96064683D01*
X54414090Y-95848559D01*
X54201890Y-95703569D01*
X54035000Y-95669773D01*
X54035000Y-93384218D01*
X54283888Y-93135330D01*
X54833458Y-93135810D01*
X55342897Y-92925314D01*
X55733004Y-92535887D01*
X55944389Y-92026816D01*
X55944391Y-92024398D01*
X58055130Y-92024398D01*
X58265626Y-92533837D01*
X58655053Y-92923944D01*
X59164124Y-93135329D01*
X59715338Y-93135810D01*
X60224777Y-92925314D01*
X60518881Y-92631723D01*
X60841081Y-92567633D01*
X60889920Y-92535000D01*
X61124842Y-92535000D01*
X64395528Y-95805686D01*
X64348559Y-95835910D01*
X64203569Y-96048110D01*
X64152560Y-96300000D01*
X64152560Y-97700000D01*
X64196838Y-97935317D01*
X64335910Y-98151441D01*
X64548110Y-98296431D01*
X64800000Y-98347440D01*
X66200000Y-98347440D01*
X66435317Y-98303162D01*
X66651441Y-98164090D01*
X66796431Y-97951890D01*
X66847440Y-97700000D01*
X66847440Y-96300000D01*
X66803162Y-96064683D01*
X66664090Y-95848559D01*
X66451890Y-95703569D01*
X66258009Y-95664307D01*
X66225245Y-95499594D01*
X66055079Y-95244921D01*
X62005079Y-91194921D01*
X61750407Y-91024755D01*
X61450000Y-90965000D01*
X60889920Y-90965000D01*
X60841081Y-90932367D01*
X60518454Y-90868192D01*
X60226827Y-90576056D01*
X59717756Y-90364671D01*
X59166542Y-90364190D01*
X58657103Y-90574686D01*
X58266996Y-90964113D01*
X58055611Y-91473184D01*
X58055130Y-92024398D01*
X55944391Y-92024398D01*
X55944870Y-91475602D01*
X55734374Y-90966163D01*
X55344947Y-90576056D01*
X54835876Y-90364671D01*
X54284662Y-90364190D01*
X54283775Y-90364557D01*
X52535000Y-88615782D01*
X52535000Y-87533598D01*
X52762736Y-87685767D01*
X53311887Y-87795000D01*
X53368113Y-87795000D01*
X53917264Y-87685767D01*
X54382811Y-87374698D01*
X54693880Y-86909151D01*
X54803113Y-86360000D01*
X54744554Y-86065604D01*
X57555079Y-83255079D01*
X57725245Y-83000406D01*
X57785001Y-82700000D01*
X57785000Y-82699995D01*
X57785000Y-73703156D01*
X59700191Y-71787965D01*
X59728959Y-71857423D01*
X60104866Y-72272389D01*
X60353367Y-72390000D01*
X60104866Y-72507611D01*
X59728959Y-72922577D01*
X59568096Y-73310961D01*
X59690085Y-73533000D01*
X60833000Y-73533000D01*
X60833000Y-71247000D01*
X60813000Y-71247000D01*
X60813000Y-70993000D01*
X60833000Y-70993000D01*
X60833000Y-70973000D01*
X61087000Y-70973000D01*
X61087000Y-70993000D01*
X61107000Y-70993000D01*
X61107000Y-71247000D01*
X61087000Y-71247000D01*
X61087000Y-73533000D01*
X62229915Y-73533000D01*
X62351904Y-73310961D01*
X62191041Y-72922577D01*
X61815134Y-72507611D01*
X61566633Y-72390000D01*
X61815134Y-72272389D01*
X62191041Y-71857423D01*
X62248845Y-71717863D01*
X62367582Y-72005229D01*
X62742796Y-72381098D01*
X63233287Y-72584768D01*
X63725039Y-72585197D01*
X64965000Y-73825157D01*
X64965000Y-87687600D01*
X65024755Y-87988007D01*
X65194921Y-88242679D01*
X75043321Y-98091079D01*
X75082116Y-98117001D01*
X72125157Y-98117001D01*
X61631174Y-87623018D01*
X62002811Y-87374698D01*
X62313880Y-86909151D01*
X62423113Y-86360000D01*
X62313880Y-85810849D01*
X62002811Y-85345302D01*
X61620725Y-85090000D01*
X62002811Y-84834698D01*
X62313880Y-84369151D01*
X62423113Y-83820000D01*
X62313880Y-83270849D01*
X62002811Y-82805302D01*
X61620725Y-82550000D01*
X62002811Y-82294698D01*
X62313880Y-81829151D01*
X62423113Y-81280000D01*
X62313880Y-80730849D01*
X62002811Y-80265302D01*
X61620725Y-80010000D01*
X62002811Y-79754698D01*
X62206344Y-79450090D01*
X62335910Y-79651441D01*
X62548110Y-79796431D01*
X62800000Y-79847440D01*
X64200000Y-79847440D01*
X64435317Y-79803162D01*
X64651441Y-79664090D01*
X64796431Y-79451890D01*
X64847440Y-79200000D01*
X64847440Y-77800000D01*
X64803162Y-77564683D01*
X64664090Y-77348559D01*
X64451890Y-77203569D01*
X64200000Y-77152560D01*
X63657598Y-77152560D01*
X64555079Y-76255079D01*
X64725245Y-76000407D01*
X64785000Y-75700000D01*
X64785000Y-75537506D01*
X64792192Y-75530327D01*
X64934838Y-75186799D01*
X64935162Y-74814833D01*
X64793117Y-74471057D01*
X64530327Y-74207808D01*
X64186799Y-74065162D01*
X63814833Y-74064838D01*
X63471057Y-74206883D01*
X63207808Y-74469673D01*
X63065162Y-74813201D01*
X63064838Y-75185167D01*
X63164200Y-75425642D01*
X62417593Y-76172249D01*
X62313880Y-75650849D01*
X62002811Y-75185302D01*
X61598297Y-74915014D01*
X61815134Y-74812389D01*
X62191041Y-74397423D01*
X62351904Y-74009039D01*
X62229915Y-73787000D01*
X61087000Y-73787000D01*
X61087000Y-73807000D01*
X60833000Y-73807000D01*
X60833000Y-73787000D01*
X59690085Y-73787000D01*
X59568096Y-74009039D01*
X59728959Y-74397423D01*
X60104866Y-74812389D01*
X60321703Y-74915014D01*
X59917189Y-75185302D01*
X59606120Y-75650849D01*
X59496887Y-76200000D01*
X59606120Y-76749151D01*
X59917189Y-77214698D01*
X60299275Y-77470000D01*
X59917189Y-77725302D01*
X59606120Y-78190849D01*
X59535000Y-78548393D01*
X59535000Y-78037506D01*
X59542192Y-78030327D01*
X59684838Y-77686799D01*
X59685162Y-77314833D01*
X59543117Y-76971057D01*
X59280327Y-76707808D01*
X58936799Y-76565162D01*
X58564833Y-76564838D01*
X58221057Y-76706883D01*
X57957808Y-76969673D01*
X57815162Y-77313201D01*
X57814838Y-77685167D01*
X57956883Y-78028943D01*
X57965000Y-78037074D01*
X57965000Y-85852002D01*
X58024755Y-86152409D01*
X58194921Y-86407081D01*
X71052840Y-99265000D01*
X53072391Y-99265000D01*
X52138733Y-99079284D01*
X51408586Y-98591415D01*
X50920716Y-97861267D01*
X50735000Y-96927610D01*
X50735000Y-53072390D01*
X50920716Y-52138733D01*
X51408586Y-51408585D01*
X52138733Y-50920716D01*
X53072391Y-50735000D01*
X112109793Y-50735000D01*
X111701154Y-51142927D01*
G36*
X111533053Y-64949972D02*
X112133579Y-65199332D01*
X112719996Y-65199844D01*
X104824920Y-73094920D01*
X104654754Y-73349592D01*
X104654754Y-73349593D01*
X104594999Y-73649999D01*
X104594999Y-74544844D01*
X104455215Y-74684628D01*
X104455275Y-74616107D01*
X104214481Y-74033343D01*
X103769003Y-73587086D01*
X103655000Y-73539748D01*
X103655000Y-70679906D01*
X104243774Y-70091132D01*
X104383327Y-70149080D01*
X105033568Y-70149648D01*
X105634529Y-69901336D01*
X106094720Y-69441947D01*
X106344080Y-68841421D01*
X106344648Y-68191180D01*
X106096336Y-67590219D01*
X105636947Y-67130028D01*
X105036421Y-66880668D01*
X104386180Y-66880100D01*
X103785219Y-67128412D01*
X103325028Y-67587801D01*
X103075668Y-68188327D01*
X103075100Y-68838568D01*
X103133846Y-68980744D01*
X102314921Y-69799669D01*
X102144755Y-70054341D01*
X102115862Y-70199594D01*
X102085000Y-70354748D01*
X102085000Y-73539383D01*
X101973343Y-73585519D01*
X101875663Y-73683029D01*
X101744090Y-73478559D01*
X101531890Y-73333569D01*
X101280000Y-73282560D01*
X99380000Y-73282560D01*
X99144683Y-73326838D01*
X98928559Y-73465910D01*
X98783569Y-73678110D01*
X98732560Y-73930000D01*
X98732560Y-75930000D01*
X98776838Y-76165317D01*
X98915910Y-76381441D01*
X99128110Y-76526431D01*
X99380000Y-76577440D01*
X101280000Y-76577440D01*
X101515317Y-76533162D01*
X101731441Y-76394090D01*
X101876431Y-76181890D01*
X101877055Y-76178808D01*
X101970997Y-76272914D01*
X102553341Y-76514724D01*
X102625056Y-76514787D01*
X97174842Y-81965000D01*
X69537506Y-81965000D01*
X69530327Y-81957808D01*
X69186799Y-81815162D01*
X68814833Y-81814838D01*
X68471057Y-81956883D01*
X68207808Y-82219673D01*
X68065162Y-82563201D01*
X68064838Y-82935167D01*
X68206883Y-83278943D01*
X68469673Y-83542192D01*
X68524572Y-83564988D01*
X68230888Y-83564988D01*
X67930481Y-83624743D01*
X67675809Y-83794909D01*
X67535000Y-83935718D01*
X67535000Y-81787506D01*
X67542192Y-81780327D01*
X67684838Y-81436799D01*
X67685162Y-81064833D01*
X67543117Y-80721057D01*
X67280327Y-80457808D01*
X66936799Y-80315162D01*
X66564833Y-80314838D01*
X66535000Y-80327165D01*
X66535000Y-79435275D01*
X67744331Y-79435275D01*
X67806169Y-79671042D01*
X68307122Y-79847419D01*
X68837440Y-79818664D01*
X69193831Y-79671042D01*
X69255669Y-79435275D01*
X68500000Y-78679605D01*
X67744331Y-79435275D01*
X66535000Y-79435275D01*
X66535000Y-78307122D01*
X67152581Y-78307122D01*
X67181336Y-78837440D01*
X67328958Y-79193831D01*
X67564725Y-79255669D01*
X68320395Y-78500000D01*
X68679605Y-78500000D01*
X69435275Y-79255669D01*
X69671042Y-79193831D01*
X69847419Y-78692878D01*
X69818664Y-78162560D01*
X69671042Y-77806169D01*
X69435275Y-77744331D01*
X68679605Y-78500000D01*
X68320395Y-78500000D01*
X67564725Y-77744331D01*
X67328958Y-77806169D01*
X67152581Y-78307122D01*
X66535000Y-78307122D01*
X66535000Y-77564725D01*
X67744331Y-77564725D01*
X68500000Y-78320395D01*
X69255669Y-77564725D01*
X69193831Y-77328958D01*
X68692878Y-77152581D01*
X68162560Y-77181336D01*
X67806169Y-77328958D01*
X67744331Y-77564725D01*
X66535000Y-77564725D01*
X66535000Y-73500005D01*
X66535001Y-73500000D01*
X66475245Y-73199594D01*
X66415948Y-73110849D01*
X66305079Y-72944921D01*
X66305076Y-72944919D01*
X64834805Y-71474647D01*
X64835231Y-70985617D01*
X64655239Y-70550000D01*
X67152560Y-70550000D01*
X67152560Y-71950000D01*
X67196838Y-72185317D01*
X67335910Y-72401441D01*
X67548110Y-72546431D01*
X67800000Y-72597440D01*
X69200000Y-72597440D01*
X69435317Y-72553162D01*
X69592110Y-72452268D01*
X69965000Y-72825158D01*
X69965000Y-79962494D01*
X69957808Y-79969673D01*
X69815162Y-80313201D01*
X69814838Y-80685167D01*
X69956883Y-81028943D01*
X70219673Y-81292192D01*
X70563201Y-81434838D01*
X70935167Y-81435162D01*
X71278943Y-81293117D01*
X71542192Y-81030327D01*
X71684838Y-80686799D01*
X71685162Y-80314833D01*
X71543117Y-79971057D01*
X71535000Y-79962926D01*
X71535000Y-72500000D01*
X71475245Y-72199594D01*
X71475245Y-72199593D01*
X71305079Y-71944921D01*
X70055079Y-70694921D01*
X69847440Y-70556181D01*
X69847440Y-70550000D01*
X69803162Y-70314683D01*
X69664090Y-70098559D01*
X69451890Y-69953569D01*
X69200000Y-69902560D01*
X67800000Y-69902560D01*
X67564683Y-69946838D01*
X67348559Y-70085910D01*
X67203569Y-70298110D01*
X67152560Y-70550000D01*
X64655239Y-70550000D01*
X64632418Y-70494771D01*
X64257204Y-70118902D01*
X63766713Y-69915232D01*
X63235617Y-69914769D01*
X62744771Y-70117582D01*
X62368902Y-70492796D01*
X62302713Y-70652196D01*
X62191041Y-70382577D01*
X62190307Y-70381767D01*
X62305079Y-70305079D01*
X66325158Y-66285000D01*
X109111760Y-66285000D01*
X109412167Y-66225245D01*
X109666839Y-66055079D01*
X111152831Y-64569087D01*
X111533053Y-64949972D01*
X111533053Y-64949972D01*
G37*
X111533053Y-64949972D02*
X112133579Y-65199332D01*
X112719996Y-65199844D01*
X104824920Y-73094920D01*
X104654754Y-73349592D01*
X104654754Y-73349593D01*
X104594999Y-73649999D01*
X104594999Y-74544844D01*
X104455215Y-74684628D01*
X104455275Y-74616107D01*
X104214481Y-74033343D01*
X103769003Y-73587086D01*
X103655000Y-73539748D01*
X103655000Y-70679906D01*
X104243774Y-70091132D01*
X104383327Y-70149080D01*
X105033568Y-70149648D01*
X105634529Y-69901336D01*
X106094720Y-69441947D01*
X106344080Y-68841421D01*
X106344648Y-68191180D01*
X106096336Y-67590219D01*
X105636947Y-67130028D01*
X105036421Y-66880668D01*
X104386180Y-66880100D01*
X103785219Y-67128412D01*
X103325028Y-67587801D01*
X103075668Y-68188327D01*
X103075100Y-68838568D01*
X103133846Y-68980744D01*
X102314921Y-69799669D01*
X102144755Y-70054341D01*
X102115862Y-70199594D01*
X102085000Y-70354748D01*
X102085000Y-73539383D01*
X101973343Y-73585519D01*
X101875663Y-73683029D01*
X101744090Y-73478559D01*
X101531890Y-73333569D01*
X101280000Y-73282560D01*
X99380000Y-73282560D01*
X99144683Y-73326838D01*
X98928559Y-73465910D01*
X98783569Y-73678110D01*
X98732560Y-73930000D01*
X98732560Y-75930000D01*
X98776838Y-76165317D01*
X98915910Y-76381441D01*
X99128110Y-76526431D01*
X99380000Y-76577440D01*
X101280000Y-76577440D01*
X101515317Y-76533162D01*
X101731441Y-76394090D01*
X101876431Y-76181890D01*
X101877055Y-76178808D01*
X101970997Y-76272914D01*
X102553341Y-76514724D01*
X102625056Y-76514787D01*
X97174842Y-81965000D01*
X69537506Y-81965000D01*
X69530327Y-81957808D01*
X69186799Y-81815162D01*
X68814833Y-81814838D01*
X68471057Y-81956883D01*
X68207808Y-82219673D01*
X68065162Y-82563201D01*
X68064838Y-82935167D01*
X68206883Y-83278943D01*
X68469673Y-83542192D01*
X68524572Y-83564988D01*
X68230888Y-83564988D01*
X67930481Y-83624743D01*
X67675809Y-83794909D01*
X67535000Y-83935718D01*
X67535000Y-81787506D01*
X67542192Y-81780327D01*
X67684838Y-81436799D01*
X67685162Y-81064833D01*
X67543117Y-80721057D01*
X67280327Y-80457808D01*
X66936799Y-80315162D01*
X66564833Y-80314838D01*
X66535000Y-80327165D01*
X66535000Y-79435275D01*
X67744331Y-79435275D01*
X67806169Y-79671042D01*
X68307122Y-79847419D01*
X68837440Y-79818664D01*
X69193831Y-79671042D01*
X69255669Y-79435275D01*
X68500000Y-78679605D01*
X67744331Y-79435275D01*
X66535000Y-79435275D01*
X66535000Y-78307122D01*
X67152581Y-78307122D01*
X67181336Y-78837440D01*
X67328958Y-79193831D01*
X67564725Y-79255669D01*
X68320395Y-78500000D01*
X68679605Y-78500000D01*
X69435275Y-79255669D01*
X69671042Y-79193831D01*
X69847419Y-78692878D01*
X69818664Y-78162560D01*
X69671042Y-77806169D01*
X69435275Y-77744331D01*
X68679605Y-78500000D01*
X68320395Y-78500000D01*
X67564725Y-77744331D01*
X67328958Y-77806169D01*
X67152581Y-78307122D01*
X66535000Y-78307122D01*
X66535000Y-77564725D01*
X67744331Y-77564725D01*
X68500000Y-78320395D01*
X69255669Y-77564725D01*
X69193831Y-77328958D01*
X68692878Y-77152581D01*
X68162560Y-77181336D01*
X67806169Y-77328958D01*
X67744331Y-77564725D01*
X66535000Y-77564725D01*
X66535000Y-73500005D01*
X66535001Y-73500000D01*
X66475245Y-73199594D01*
X66415948Y-73110849D01*
X66305079Y-72944921D01*
X66305076Y-72944919D01*
X64834805Y-71474647D01*
X64835231Y-70985617D01*
X64655239Y-70550000D01*
X67152560Y-70550000D01*
X67152560Y-71950000D01*
X67196838Y-72185317D01*
X67335910Y-72401441D01*
X67548110Y-72546431D01*
X67800000Y-72597440D01*
X69200000Y-72597440D01*
X69435317Y-72553162D01*
X69592110Y-72452268D01*
X69965000Y-72825158D01*
X69965000Y-79962494D01*
X69957808Y-79969673D01*
X69815162Y-80313201D01*
X69814838Y-80685167D01*
X69956883Y-81028943D01*
X70219673Y-81292192D01*
X70563201Y-81434838D01*
X70935167Y-81435162D01*
X71278943Y-81293117D01*
X71542192Y-81030327D01*
X71684838Y-80686799D01*
X71685162Y-80314833D01*
X71543117Y-79971057D01*
X71535000Y-79962926D01*
X71535000Y-72500000D01*
X71475245Y-72199594D01*
X71475245Y-72199593D01*
X71305079Y-71944921D01*
X70055079Y-70694921D01*
X69847440Y-70556181D01*
X69847440Y-70550000D01*
X69803162Y-70314683D01*
X69664090Y-70098559D01*
X69451890Y-69953569D01*
X69200000Y-69902560D01*
X67800000Y-69902560D01*
X67564683Y-69946838D01*
X67348559Y-70085910D01*
X67203569Y-70298110D01*
X67152560Y-70550000D01*
X64655239Y-70550000D01*
X64632418Y-70494771D01*
X64257204Y-70118902D01*
X63766713Y-69915232D01*
X63235617Y-69914769D01*
X62744771Y-70117582D01*
X62368902Y-70492796D01*
X62302713Y-70652196D01*
X62191041Y-70382577D01*
X62190307Y-70381767D01*
X62305079Y-70305079D01*
X66325158Y-66285000D01*
X109111760Y-66285000D01*
X109412167Y-66225245D01*
X109666839Y-66055079D01*
X111152831Y-64569087D01*
X111533053Y-64949972D01*
G36*
X62132659Y-59765377D02*
X62302330Y-60175000D01*
X62156291Y-60175000D01*
X62002811Y-59945302D01*
X61620725Y-59690000D01*
X62002811Y-59434698D01*
X62114240Y-59267933D01*
X62132659Y-59765377D01*
X62132659Y-59765377D01*
G37*
X62132659Y-59765377D02*
X62302330Y-60175000D01*
X62156291Y-60175000D01*
X62002811Y-59945302D01*
X61620725Y-59690000D01*
X62002811Y-59434698D01*
X62114240Y-59267933D01*
X62132659Y-59765377D01*
G36*
X101536732Y-59169587D02*
X101536269Y-59700086D01*
X101732499Y-60175000D01*
X65202297Y-60175000D01*
X65399401Y-59644418D01*
X65375341Y-58994623D01*
X65259729Y-58715509D01*
X101725282Y-58715509D01*
X101536732Y-59169587D01*
X101536732Y-59169587D01*
G37*
X101536732Y-59169587D02*
X101536269Y-59700086D01*
X101732499Y-60175000D01*
X65202297Y-60175000D01*
X65399401Y-59644418D01*
X65375341Y-58994623D01*
X65259729Y-58715509D01*
X101725282Y-58715509D01*
X101536732Y-59169587D01*
G36*
X63947748Y-59365858D02*
X63933605Y-59380000D01*
X63947748Y-59394142D01*
X63768142Y-59573748D01*
X63754000Y-59559605D01*
X63739858Y-59573748D01*
X63560252Y-59394142D01*
X63574395Y-59380000D01*
X63560252Y-59365858D01*
X63739858Y-59186253D01*
X63754000Y-59200395D01*
X63768143Y-59186253D01*
X63947748Y-59365858D01*
X63947748Y-59365858D01*
G37*
X63947748Y-59365858D02*
X63933605Y-59380000D01*
X63947748Y-59394142D01*
X63768142Y-59573748D01*
X63754000Y-59559605D01*
X63739858Y-59573748D01*
X63560252Y-59394142D01*
X63574395Y-59380000D01*
X63560252Y-59365858D01*
X63739858Y-59186253D01*
X63754000Y-59200395D01*
X63768143Y-59186253D01*
X63947748Y-59365858D01*
M02*
