G04 #@! TF.FileFunction,Legend,Top*
%FSLAX46Y46*%
G04 Gerber Fmt 4.6, Leading zero omitted, Abs format (unit mm)*
G04 Created by KiCad (PCBNEW (2015-08-30 BZR 6134, Git 4e94d52)-product) date 10/20/2015 9:06:24 PM*
%MOMM*%
G01*
G04 APERTURE LIST*
%ADD10C,0.100000*%
%ADD11C,0.400000*%
%ADD12C,0.250000*%
%ADD13C,0.010000*%
%ADD14C,0.150000*%
G04 APERTURE END LIST*
D10*
D11*
X138090463Y-81280993D02*
X138080782Y-81445563D01*
X137993656Y-81687580D01*
X137606431Y-82074805D01*
X137383777Y-82142568D01*
X137238567Y-82132888D01*
X137025594Y-82036082D01*
X136890065Y-81861831D01*
X136764217Y-81523008D01*
X136880384Y-79548160D01*
X135873599Y-80554946D01*
X135050746Y-84630490D02*
X134895855Y-84785381D01*
X134673201Y-84853145D01*
X134527991Y-84843464D01*
X134315018Y-84746658D01*
X133966515Y-84475600D01*
X133627693Y-84039971D01*
X133434081Y-83614024D01*
X133375997Y-83362327D01*
X133385677Y-83197758D01*
X133472803Y-82955742D01*
X133627693Y-82800851D01*
X133850348Y-82733087D01*
X133995557Y-82742767D01*
X134208531Y-82839573D01*
X134557034Y-83110631D01*
X134895855Y-83546259D01*
X135089468Y-83972208D01*
X135147551Y-84223904D01*
X135137871Y-84388475D01*
X135050746Y-84630490D01*
X130297557Y-86130988D02*
X131226897Y-85201647D01*
X130762227Y-85666318D02*
X132185280Y-87495956D01*
X132136877Y-87079688D01*
X132156238Y-86750548D01*
X132243363Y-86508532D01*
X129010034Y-90671202D02*
X129784484Y-89896752D01*
X129184285Y-88948050D01*
X129174605Y-89112621D01*
X129087478Y-89354637D01*
X128700253Y-89741862D01*
X128477600Y-89809626D01*
X128332390Y-89799946D01*
X128119416Y-89703139D01*
X127780594Y-89267511D01*
X127722510Y-89015814D01*
X127732191Y-88851244D01*
X127819316Y-88609229D01*
X128206541Y-88222004D01*
X128429196Y-88154239D01*
X128574406Y-88163918D01*
X127077300Y-59319415D02*
X127851750Y-60093865D01*
X126399657Y-59571112D02*
X128771411Y-58690175D01*
X127483887Y-60655342D01*
X129623307Y-59542071D02*
X128335783Y-61507238D01*
X130707537Y-60626301D01*
X131017317Y-60936082D02*
X131946657Y-61865421D01*
X129652348Y-62823804D02*
X131481987Y-61400751D01*
X132798553Y-62717317D02*
X133108333Y-63027097D01*
X133176097Y-63249751D01*
X133156736Y-63540171D01*
X132885678Y-63888673D01*
X132275799Y-64363024D01*
X131849851Y-64556637D01*
X131520710Y-64537275D01*
X131278695Y-64450150D01*
X130968914Y-64140369D01*
X130901150Y-63917715D01*
X130920510Y-63627296D01*
X131191568Y-63278794D01*
X131801447Y-62804442D01*
X132227395Y-62610830D01*
X132556537Y-62630191D01*
X132798553Y-62717317D01*
X132362925Y-65534380D02*
X134192564Y-64111328D01*
X133292265Y-66463721D02*
X133640767Y-64953541D01*
X135121904Y-65040668D02*
X133147055Y-64924500D01*
X135170306Y-66792861D02*
X134299050Y-67470506D01*
X135586574Y-65505338D02*
X135170306Y-66792861D01*
X136670804Y-66589569D01*
X137522700Y-67441464D02*
X137832481Y-67751245D01*
X137900244Y-67973898D01*
X137880883Y-68264318D01*
X137609825Y-68612820D01*
X136999946Y-69087172D01*
X136573998Y-69280784D01*
X136244857Y-69261422D01*
X136002842Y-69174297D01*
X135693061Y-68864516D01*
X135625297Y-68641862D01*
X135644658Y-68351443D01*
X135915715Y-68002941D01*
X136525594Y-67528589D01*
X136951542Y-67334977D01*
X137280684Y-67354339D01*
X137522700Y-67441464D01*
D12*
X136845714Y-96731905D02*
X136845714Y-98031905D01*
X136536190Y-98031905D01*
X136350476Y-97970000D01*
X136226667Y-97846190D01*
X136164762Y-97722381D01*
X136102857Y-97474762D01*
X136102857Y-97289048D01*
X136164762Y-97041429D01*
X136226667Y-96917619D01*
X136350476Y-96793810D01*
X136536190Y-96731905D01*
X136845714Y-96731905D01*
X135545714Y-96731905D02*
X135545714Y-98031905D01*
X134679047Y-97350952D02*
X134679047Y-96731905D01*
X135112380Y-98031905D02*
X134679047Y-97350952D01*
X134245714Y-98031905D01*
X133812380Y-97227143D02*
X132821904Y-97227143D01*
X132264761Y-96793810D02*
X132079047Y-96731905D01*
X131769523Y-96731905D01*
X131645713Y-96793810D01*
X131583809Y-96855714D01*
X131521904Y-96979524D01*
X131521904Y-97103333D01*
X131583809Y-97227143D01*
X131645713Y-97289048D01*
X131769523Y-97350952D01*
X132017142Y-97412857D01*
X132140951Y-97474762D01*
X132202856Y-97536667D01*
X132264761Y-97660476D01*
X132264761Y-97784286D01*
X132202856Y-97908095D01*
X132140951Y-97970000D01*
X132017142Y-98031905D01*
X131707618Y-98031905D01*
X131521904Y-97970000D01*
X130407618Y-96793810D02*
X130531428Y-96731905D01*
X130779047Y-96731905D01*
X130902856Y-96793810D01*
X130964761Y-96855714D01*
X131026666Y-96979524D01*
X131026666Y-97350952D01*
X130964761Y-97474762D01*
X130902856Y-97536667D01*
X130779047Y-97598571D01*
X130531428Y-97598571D01*
X130407618Y-97536667D01*
X129850475Y-96731905D02*
X129850475Y-97598571D01*
X129850475Y-98031905D02*
X129912380Y-97970000D01*
X129850475Y-97908095D01*
X129788570Y-97970000D01*
X129850475Y-98031905D01*
X129850475Y-97908095D01*
X128798094Y-97412857D02*
X128612380Y-97350952D01*
X128550475Y-97289048D01*
X128488570Y-97165238D01*
X128488570Y-96979524D01*
X128550475Y-96855714D01*
X128612380Y-96793810D01*
X128736189Y-96731905D01*
X129231427Y-96731905D01*
X129231427Y-98031905D01*
X128798094Y-98031905D01*
X128674284Y-97970000D01*
X128612380Y-97908095D01*
X128550475Y-97784286D01*
X128550475Y-97660476D01*
X128612380Y-97536667D01*
X128674284Y-97474762D01*
X128798094Y-97412857D01*
X129231427Y-97412857D01*
X127931427Y-96855714D02*
X127869522Y-96793810D01*
X127931427Y-96731905D01*
X127993332Y-96793810D01*
X127931427Y-96855714D01*
X127931427Y-96731905D01*
X127126665Y-96731905D02*
X127250474Y-96793810D01*
X127312379Y-96855714D01*
X127374284Y-96979524D01*
X127374284Y-97350952D01*
X127312379Y-97474762D01*
X127250474Y-97536667D01*
X127126665Y-97598571D01*
X126940951Y-97598571D01*
X126817141Y-97536667D01*
X126755236Y-97474762D01*
X126693332Y-97350952D01*
X126693332Y-96979524D01*
X126755236Y-96855714D01*
X126817141Y-96793810D01*
X126940951Y-96731905D01*
X127126665Y-96731905D01*
X126136189Y-96731905D02*
X126136189Y-97598571D01*
X126136189Y-97350952D02*
X126074284Y-97474762D01*
X126012380Y-97536667D01*
X125888570Y-97598571D01*
X125764761Y-97598571D01*
X124774284Y-97598571D02*
X124774284Y-96546190D01*
X124836189Y-96422381D01*
X124898094Y-96360476D01*
X125021903Y-96298571D01*
X125207618Y-96298571D01*
X125331427Y-96360476D01*
X124774284Y-96793810D02*
X124898094Y-96731905D01*
X125145713Y-96731905D01*
X125269522Y-96793810D01*
X125331427Y-96855714D01*
X125393332Y-96979524D01*
X125393332Y-97350952D01*
X125331427Y-97474762D01*
X125269522Y-97536667D01*
X125145713Y-97598571D01*
X124898094Y-97598571D01*
X124774284Y-97536667D01*
X138517142Y-95528571D02*
X138269523Y-94661905D01*
X138021904Y-95280952D01*
X137774285Y-94661905D01*
X137526666Y-95528571D01*
X137155237Y-95528571D02*
X136907618Y-94661905D01*
X136659999Y-95280952D01*
X136412380Y-94661905D01*
X136164761Y-95528571D01*
X135793332Y-95528571D02*
X135545713Y-94661905D01*
X135298094Y-95280952D01*
X135050475Y-94661905D01*
X134802856Y-95528571D01*
X134307617Y-94785714D02*
X134245712Y-94723810D01*
X134307617Y-94661905D01*
X134369522Y-94723810D01*
X134307617Y-94785714D01*
X134307617Y-94661905D01*
X133131426Y-94661905D02*
X133131426Y-95342857D01*
X133193331Y-95466667D01*
X133317141Y-95528571D01*
X133564760Y-95528571D01*
X133688569Y-95466667D01*
X133131426Y-94723810D02*
X133255236Y-94661905D01*
X133564760Y-94661905D01*
X133688569Y-94723810D01*
X133750474Y-94847619D01*
X133750474Y-94971429D01*
X133688569Y-95095238D01*
X133564760Y-95157143D01*
X133255236Y-95157143D01*
X133131426Y-95219048D01*
X132636189Y-95528571D02*
X132326665Y-94661905D01*
X132017141Y-95528571D01*
X131707617Y-95528571D02*
X131212379Y-95528571D01*
X131521903Y-95961905D02*
X131521903Y-94847619D01*
X131459998Y-94723810D01*
X131336189Y-94661905D01*
X131212379Y-94661905D01*
X130593332Y-94661905D02*
X130717141Y-94723810D01*
X130779046Y-94785714D01*
X130840951Y-94909524D01*
X130840951Y-95280952D01*
X130779046Y-95404762D01*
X130717141Y-95466667D01*
X130593332Y-95528571D01*
X130407618Y-95528571D01*
X130283808Y-95466667D01*
X130221903Y-95404762D01*
X130159999Y-95280952D01*
X130159999Y-94909524D01*
X130221903Y-94785714D01*
X130283808Y-94723810D01*
X130407618Y-94661905D01*
X130593332Y-94661905D01*
X129602856Y-94661905D02*
X129602856Y-95961905D01*
X129479047Y-95157143D02*
X129107618Y-94661905D01*
X129107618Y-95528571D02*
X129602856Y-95033333D01*
X128674285Y-95528571D02*
X128364761Y-94661905D01*
X128055237Y-95528571D02*
X128364761Y-94661905D01*
X128488570Y-94352381D01*
X128550475Y-94290476D01*
X128674285Y-94228571D01*
X127374285Y-94661905D02*
X127498094Y-94723810D01*
X127559999Y-94785714D01*
X127621904Y-94909524D01*
X127621904Y-95280952D01*
X127559999Y-95404762D01*
X127498094Y-95466667D01*
X127374285Y-95528571D01*
X127188571Y-95528571D01*
X127064761Y-95466667D01*
X127002856Y-95404762D01*
X126940952Y-95280952D01*
X126940952Y-94909524D01*
X127002856Y-94785714D01*
X127064761Y-94723810D01*
X127188571Y-94661905D01*
X127374285Y-94661905D01*
X126383809Y-94785714D02*
X126321904Y-94723810D01*
X126383809Y-94661905D01*
X126445714Y-94723810D01*
X126383809Y-94785714D01*
X126383809Y-94661905D01*
X125579047Y-94661905D02*
X125702856Y-94723810D01*
X125764761Y-94785714D01*
X125826666Y-94909524D01*
X125826666Y-95280952D01*
X125764761Y-95404762D01*
X125702856Y-95466667D01*
X125579047Y-95528571D01*
X125393333Y-95528571D01*
X125269523Y-95466667D01*
X125207618Y-95404762D01*
X125145714Y-95280952D01*
X125145714Y-94909524D01*
X125207618Y-94785714D01*
X125269523Y-94723810D01*
X125393333Y-94661905D01*
X125579047Y-94661905D01*
X124588571Y-94661905D02*
X124588571Y-95528571D01*
X124588571Y-95280952D02*
X124526666Y-95404762D01*
X124464762Y-95466667D01*
X124340952Y-95528571D01*
X124217143Y-95528571D01*
X123226666Y-95528571D02*
X123226666Y-94476190D01*
X123288571Y-94352381D01*
X123350476Y-94290476D01*
X123474285Y-94228571D01*
X123660000Y-94228571D01*
X123783809Y-94290476D01*
X123226666Y-94723810D02*
X123350476Y-94661905D01*
X123598095Y-94661905D01*
X123721904Y-94723810D01*
X123783809Y-94785714D01*
X123845714Y-94909524D01*
X123845714Y-95280952D01*
X123783809Y-95404762D01*
X123721904Y-95466667D01*
X123598095Y-95528571D01*
X123350476Y-95528571D01*
X123226666Y-95466667D01*
X141488570Y-93891905D02*
X140745713Y-93891905D01*
X141117142Y-92591905D02*
X141117142Y-93891905D01*
X140126666Y-92591905D02*
X140250475Y-92653810D01*
X140312380Y-92715714D01*
X140374285Y-92839524D01*
X140374285Y-93210952D01*
X140312380Y-93334762D01*
X140250475Y-93396667D01*
X140126666Y-93458571D01*
X139940952Y-93458571D01*
X139817142Y-93396667D01*
X139755237Y-93334762D01*
X139693333Y-93210952D01*
X139693333Y-92839524D01*
X139755237Y-92715714D01*
X139817142Y-92653810D01*
X139940952Y-92591905D01*
X140126666Y-92591905D01*
X139136190Y-92591905D02*
X139136190Y-93891905D01*
X139012381Y-93087143D02*
X138640952Y-92591905D01*
X138640952Y-93458571D02*
X139136190Y-92963333D01*
X138207619Y-93458571D02*
X137898095Y-92591905D01*
X137588571Y-93458571D02*
X137898095Y-92591905D01*
X138021904Y-92282381D01*
X138083809Y-92220476D01*
X138207619Y-92158571D01*
X136907619Y-92591905D02*
X137031428Y-92653810D01*
X137093333Y-92715714D01*
X137155238Y-92839524D01*
X137155238Y-93210952D01*
X137093333Y-93334762D01*
X137031428Y-93396667D01*
X136907619Y-93458571D01*
X136721905Y-93458571D01*
X136598095Y-93396667D01*
X136536190Y-93334762D01*
X136474286Y-93210952D01*
X136474286Y-92839524D01*
X136536190Y-92715714D01*
X136598095Y-92653810D01*
X136721905Y-92591905D01*
X136907619Y-92591905D01*
X135917143Y-92591905D02*
X135917143Y-93891905D01*
X135917143Y-93272857D02*
X135174286Y-93272857D01*
X135174286Y-92591905D02*
X135174286Y-93891905D01*
X133998095Y-92591905D02*
X133998095Y-93272857D01*
X134060000Y-93396667D01*
X134183810Y-93458571D01*
X134431429Y-93458571D01*
X134555238Y-93396667D01*
X133998095Y-92653810D02*
X134121905Y-92591905D01*
X134431429Y-92591905D01*
X134555238Y-92653810D01*
X134617143Y-92777619D01*
X134617143Y-92901429D01*
X134555238Y-93025238D01*
X134431429Y-93087143D01*
X134121905Y-93087143D01*
X133998095Y-93149048D01*
X132821905Y-92653810D02*
X132945715Y-92591905D01*
X133193334Y-92591905D01*
X133317143Y-92653810D01*
X133379048Y-92715714D01*
X133440953Y-92839524D01*
X133440953Y-93210952D01*
X133379048Y-93334762D01*
X133317143Y-93396667D01*
X133193334Y-93458571D01*
X132945715Y-93458571D01*
X132821905Y-93396667D01*
X132264762Y-92591905D02*
X132264762Y-93891905D01*
X132140953Y-93087143D02*
X131769524Y-92591905D01*
X131769524Y-93458571D02*
X132264762Y-92963333D01*
X130717143Y-92653810D02*
X130840953Y-92591905D01*
X131088572Y-92591905D01*
X131212381Y-92653810D01*
X131274286Y-92777619D01*
X131274286Y-93272857D01*
X131212381Y-93396667D01*
X131088572Y-93458571D01*
X130840953Y-93458571D01*
X130717143Y-93396667D01*
X130655238Y-93272857D01*
X130655238Y-93149048D01*
X131274286Y-93025238D01*
X130098095Y-92591905D02*
X130098095Y-93458571D01*
X130098095Y-93210952D02*
X130036190Y-93334762D01*
X129974286Y-93396667D01*
X129850476Y-93458571D01*
X129726667Y-93458571D01*
X129355238Y-92653810D02*
X129169524Y-92591905D01*
X128860000Y-92591905D01*
X128736190Y-92653810D01*
X128674286Y-92715714D01*
X128612381Y-92839524D01*
X128612381Y-92963333D01*
X128674286Y-93087143D01*
X128736190Y-93149048D01*
X128860000Y-93210952D01*
X129107619Y-93272857D01*
X129231428Y-93334762D01*
X129293333Y-93396667D01*
X129355238Y-93520476D01*
X129355238Y-93644286D01*
X129293333Y-93768095D01*
X129231428Y-93830000D01*
X129107619Y-93891905D01*
X128798095Y-93891905D01*
X128612381Y-93830000D01*
X128055238Y-93458571D02*
X128055238Y-92158571D01*
X128055238Y-93396667D02*
X127931429Y-93458571D01*
X127683810Y-93458571D01*
X127560000Y-93396667D01*
X127498095Y-93334762D01*
X127436191Y-93210952D01*
X127436191Y-92839524D01*
X127498095Y-92715714D01*
X127560000Y-92653810D01*
X127683810Y-92591905D01*
X127931429Y-92591905D01*
X128055238Y-92653810D01*
X126321905Y-92591905D02*
X126321905Y-93272857D01*
X126383810Y-93396667D01*
X126507620Y-93458571D01*
X126755239Y-93458571D01*
X126879048Y-93396667D01*
X126321905Y-92653810D02*
X126445715Y-92591905D01*
X126755239Y-92591905D01*
X126879048Y-92653810D01*
X126940953Y-92777619D01*
X126940953Y-92901429D01*
X126879048Y-93025238D01*
X126755239Y-93087143D01*
X126445715Y-93087143D01*
X126321905Y-93149048D01*
X125145715Y-92653810D02*
X125269525Y-92591905D01*
X125517144Y-92591905D01*
X125640953Y-92653810D01*
X125702858Y-92715714D01*
X125764763Y-92839524D01*
X125764763Y-93210952D01*
X125702858Y-93334762D01*
X125640953Y-93396667D01*
X125517144Y-93458571D01*
X125269525Y-93458571D01*
X125145715Y-93396667D01*
X124093334Y-92653810D02*
X124217144Y-92591905D01*
X124464763Y-92591905D01*
X124588572Y-92653810D01*
X124650477Y-92777619D01*
X124650477Y-93272857D01*
X124588572Y-93396667D01*
X124464763Y-93458571D01*
X124217144Y-93458571D01*
X124093334Y-93396667D01*
X124031429Y-93272857D01*
X124031429Y-93149048D01*
X124650477Y-93025238D01*
X123474286Y-92715714D02*
X123412381Y-92653810D01*
X123474286Y-92591905D01*
X123536191Y-92653810D01*
X123474286Y-92715714D01*
X123474286Y-92591905D01*
X122669524Y-92591905D02*
X122793333Y-92653810D01*
X122855238Y-92715714D01*
X122917143Y-92839524D01*
X122917143Y-93210952D01*
X122855238Y-93334762D01*
X122793333Y-93396667D01*
X122669524Y-93458571D01*
X122483810Y-93458571D01*
X122360000Y-93396667D01*
X122298095Y-93334762D01*
X122236191Y-93210952D01*
X122236191Y-92839524D01*
X122298095Y-92715714D01*
X122360000Y-92653810D01*
X122483810Y-92591905D01*
X122669524Y-92591905D01*
X121679048Y-92591905D02*
X121679048Y-93458571D01*
X121679048Y-93210952D02*
X121617143Y-93334762D01*
X121555239Y-93396667D01*
X121431429Y-93458571D01*
X121307620Y-93458571D01*
X120317143Y-93458571D02*
X120317143Y-92406190D01*
X120379048Y-92282381D01*
X120440953Y-92220476D01*
X120564762Y-92158571D01*
X120750477Y-92158571D01*
X120874286Y-92220476D01*
X120317143Y-92653810D02*
X120440953Y-92591905D01*
X120688572Y-92591905D01*
X120812381Y-92653810D01*
X120874286Y-92715714D01*
X120936191Y-92839524D01*
X120936191Y-93210952D01*
X120874286Y-93334762D01*
X120812381Y-93396667D01*
X120688572Y-93458571D01*
X120440953Y-93458571D01*
X120317143Y-93396667D01*
D13*
G36*
X97039546Y-76161515D02*
X97039546Y-80856667D01*
X99348637Y-80856667D01*
X99348637Y-88014849D01*
X101657728Y-88014849D01*
X101657728Y-97790000D01*
X99117728Y-97790000D01*
X99117728Y-95403939D01*
X96808637Y-95403939D01*
X96808637Y-90631818D01*
X94499546Y-90631818D01*
X94499546Y-88245758D01*
X92190455Y-88245758D01*
X92190455Y-85859697D01*
X87572273Y-85859697D01*
X87572273Y-83473636D01*
X78566819Y-83473636D01*
X78566819Y-85859697D01*
X73948637Y-85859697D01*
X73948637Y-88245758D01*
X71639546Y-88245758D01*
X71639546Y-90631818D01*
X69330455Y-90631818D01*
X69330455Y-95403939D01*
X67021364Y-95403939D01*
X67021364Y-97790000D01*
X64481364Y-97790000D01*
X64481364Y-88014849D01*
X66790455Y-88014849D01*
X66790455Y-80856667D01*
X69099546Y-80856667D01*
X69099546Y-76315455D01*
X62172273Y-76315455D01*
X62172273Y-73698485D01*
X69099546Y-73698485D01*
X69099546Y-69003333D01*
X66944394Y-69003333D01*
X66944394Y-61999091D01*
X64481364Y-61999091D01*
X64481364Y-52223939D01*
X67021364Y-52223939D01*
X67021364Y-54610000D01*
X69330455Y-54610000D01*
X69330455Y-59382121D01*
X71408637Y-59382121D01*
X71408637Y-73929394D01*
X62403182Y-73929394D01*
X62403182Y-76084545D01*
X71408637Y-76084545D01*
X71408637Y-73929394D01*
X71408637Y-59382121D01*
X71639546Y-59382121D01*
X71639546Y-61768182D01*
X73948637Y-61768182D01*
X73948637Y-64154242D01*
X78566819Y-64154242D01*
X78566819Y-66540303D01*
X78566819Y-68926364D01*
X76026819Y-68926364D01*
X76026819Y-71543333D01*
X78566819Y-71543333D01*
X78566819Y-73698485D01*
X76026819Y-73698485D01*
X76026819Y-76315455D01*
X78566819Y-76315455D01*
X78566819Y-78470606D01*
X76026819Y-78470606D01*
X76026819Y-81087576D01*
X78566819Y-81087576D01*
X78566819Y-78470606D01*
X78566819Y-76315455D01*
X78566819Y-73698485D01*
X78566819Y-71543333D01*
X78566819Y-68926364D01*
X78566819Y-66540303D01*
X87572273Y-66540303D01*
X87572273Y-64154242D01*
X92190455Y-64154242D01*
X92190455Y-61768182D01*
X94499546Y-61768182D01*
X94499546Y-59382121D01*
X96808637Y-59382121D01*
X96808637Y-54610000D01*
X99117728Y-54610000D01*
X99117728Y-52223939D01*
X101426819Y-52223939D01*
X101426819Y-52454849D01*
X99348637Y-52454849D01*
X99348637Y-54840909D01*
X97039546Y-54840909D01*
X97039546Y-59613030D01*
X94730455Y-59613030D01*
X94730455Y-61999091D01*
X92421364Y-61999091D01*
X92421364Y-64385152D01*
X87803182Y-64385152D01*
X87803182Y-66771212D01*
X83108031Y-66771212D01*
X83108031Y-69003333D01*
X85417122Y-69003333D01*
X85417122Y-71389394D01*
X92344394Y-71389394D01*
X92344394Y-73775455D01*
X96808637Y-73775455D01*
X96808637Y-76161515D01*
X92344394Y-76161515D01*
X92344394Y-78547576D01*
X85417122Y-78547576D01*
X85417122Y-80933636D01*
X83108031Y-80933636D01*
X83108031Y-83242727D01*
X87803182Y-83242727D01*
X87803182Y-85628788D01*
X92421364Y-85628788D01*
X92421364Y-88014849D01*
X94730455Y-88014849D01*
X94730455Y-90400909D01*
X97039546Y-90400909D01*
X97039546Y-95173030D01*
X99348637Y-95173030D01*
X99348637Y-97559091D01*
X101426819Y-97559091D01*
X101426819Y-88245758D01*
X99117728Y-88245758D01*
X99117728Y-81087576D01*
X96808637Y-81087576D01*
X96808637Y-76161515D01*
X96808637Y-73775455D01*
X96808637Y-68926364D01*
X99117728Y-68926364D01*
X99117728Y-61768182D01*
X101426819Y-61768182D01*
X101426819Y-52454849D01*
X101426819Y-52223939D01*
X101657728Y-52223939D01*
X101657728Y-61999091D01*
X99348637Y-61999091D01*
X99348637Y-69157273D01*
X97039546Y-69157273D01*
X97039546Y-73775455D01*
X103889849Y-73775455D01*
X103889849Y-76161515D01*
X97039546Y-76161515D01*
X97039546Y-76161515D01*
G37*
X97039546Y-76161515D02*
X97039546Y-80856667D01*
X99348637Y-80856667D01*
X99348637Y-88014849D01*
X101657728Y-88014849D01*
X101657728Y-97790000D01*
X99117728Y-97790000D01*
X99117728Y-95403939D01*
X96808637Y-95403939D01*
X96808637Y-90631818D01*
X94499546Y-90631818D01*
X94499546Y-88245758D01*
X92190455Y-88245758D01*
X92190455Y-85859697D01*
X87572273Y-85859697D01*
X87572273Y-83473636D01*
X78566819Y-83473636D01*
X78566819Y-85859697D01*
X73948637Y-85859697D01*
X73948637Y-88245758D01*
X71639546Y-88245758D01*
X71639546Y-90631818D01*
X69330455Y-90631818D01*
X69330455Y-95403939D01*
X67021364Y-95403939D01*
X67021364Y-97790000D01*
X64481364Y-97790000D01*
X64481364Y-88014849D01*
X66790455Y-88014849D01*
X66790455Y-80856667D01*
X69099546Y-80856667D01*
X69099546Y-76315455D01*
X62172273Y-76315455D01*
X62172273Y-73698485D01*
X69099546Y-73698485D01*
X69099546Y-69003333D01*
X66944394Y-69003333D01*
X66944394Y-61999091D01*
X64481364Y-61999091D01*
X64481364Y-52223939D01*
X67021364Y-52223939D01*
X67021364Y-54610000D01*
X69330455Y-54610000D01*
X69330455Y-59382121D01*
X71408637Y-59382121D01*
X71408637Y-73929394D01*
X62403182Y-73929394D01*
X62403182Y-76084545D01*
X71408637Y-76084545D01*
X71408637Y-73929394D01*
X71408637Y-59382121D01*
X71639546Y-59382121D01*
X71639546Y-61768182D01*
X73948637Y-61768182D01*
X73948637Y-64154242D01*
X78566819Y-64154242D01*
X78566819Y-66540303D01*
X78566819Y-68926364D01*
X76026819Y-68926364D01*
X76026819Y-71543333D01*
X78566819Y-71543333D01*
X78566819Y-73698485D01*
X76026819Y-73698485D01*
X76026819Y-76315455D01*
X78566819Y-76315455D01*
X78566819Y-78470606D01*
X76026819Y-78470606D01*
X76026819Y-81087576D01*
X78566819Y-81087576D01*
X78566819Y-78470606D01*
X78566819Y-76315455D01*
X78566819Y-73698485D01*
X78566819Y-71543333D01*
X78566819Y-68926364D01*
X78566819Y-66540303D01*
X87572273Y-66540303D01*
X87572273Y-64154242D01*
X92190455Y-64154242D01*
X92190455Y-61768182D01*
X94499546Y-61768182D01*
X94499546Y-59382121D01*
X96808637Y-59382121D01*
X96808637Y-54610000D01*
X99117728Y-54610000D01*
X99117728Y-52223939D01*
X101426819Y-52223939D01*
X101426819Y-52454849D01*
X99348637Y-52454849D01*
X99348637Y-54840909D01*
X97039546Y-54840909D01*
X97039546Y-59613030D01*
X94730455Y-59613030D01*
X94730455Y-61999091D01*
X92421364Y-61999091D01*
X92421364Y-64385152D01*
X87803182Y-64385152D01*
X87803182Y-66771212D01*
X83108031Y-66771212D01*
X83108031Y-69003333D01*
X85417122Y-69003333D01*
X85417122Y-71389394D01*
X92344394Y-71389394D01*
X92344394Y-73775455D01*
X96808637Y-73775455D01*
X96808637Y-76161515D01*
X92344394Y-76161515D01*
X92344394Y-78547576D01*
X85417122Y-78547576D01*
X85417122Y-80933636D01*
X83108031Y-80933636D01*
X83108031Y-83242727D01*
X87803182Y-83242727D01*
X87803182Y-85628788D01*
X92421364Y-85628788D01*
X92421364Y-88014849D01*
X94730455Y-88014849D01*
X94730455Y-90400909D01*
X97039546Y-90400909D01*
X97039546Y-95173030D01*
X99348637Y-95173030D01*
X99348637Y-97559091D01*
X101426819Y-97559091D01*
X101426819Y-88245758D01*
X99117728Y-88245758D01*
X99117728Y-81087576D01*
X96808637Y-81087576D01*
X96808637Y-76161515D01*
X96808637Y-73775455D01*
X96808637Y-68926364D01*
X99117728Y-68926364D01*
X99117728Y-61768182D01*
X101426819Y-61768182D01*
X101426819Y-52454849D01*
X101426819Y-52223939D01*
X101657728Y-52223939D01*
X101657728Y-61999091D01*
X99348637Y-61999091D01*
X99348637Y-69157273D01*
X97039546Y-69157273D01*
X97039546Y-73775455D01*
X103889849Y-73775455D01*
X103889849Y-76161515D01*
X97039546Y-76161515D01*
G36*
X106264387Y-77968559D02*
X106263639Y-80006388D01*
X106262511Y-81986190D01*
X106261003Y-83884413D01*
X106259114Y-85677507D01*
X106256845Y-87341919D01*
X106256665Y-87456818D01*
X106255207Y-88315668D01*
X106253776Y-89023017D01*
X106252377Y-89581304D01*
X106251014Y-89992966D01*
X106249690Y-90260442D01*
X106248410Y-90386170D01*
X106247177Y-90372589D01*
X106245996Y-90222138D01*
X106244869Y-89937253D01*
X106243800Y-89520375D01*
X106242795Y-88973941D01*
X106241856Y-88300389D01*
X106240987Y-87502158D01*
X106240192Y-86581686D01*
X106239475Y-85541412D01*
X106238839Y-84383773D01*
X106238290Y-83111209D01*
X106237830Y-81726158D01*
X106237463Y-80231057D01*
X106237193Y-78628346D01*
X106237024Y-76920463D01*
X106236960Y-75109845D01*
X106236959Y-74930000D01*
X106237013Y-73109610D01*
X106237172Y-71391719D01*
X106237432Y-69778765D01*
X106237790Y-68273187D01*
X106238241Y-66877423D01*
X106238783Y-65593911D01*
X106239410Y-64425090D01*
X106240119Y-63373398D01*
X106240907Y-62441273D01*
X106241769Y-61631154D01*
X106242701Y-60945480D01*
X106243701Y-60386688D01*
X106244763Y-59957216D01*
X106245884Y-59659504D01*
X106247061Y-59495990D01*
X106248289Y-59469111D01*
X106249565Y-59581307D01*
X106250885Y-59835015D01*
X106252244Y-60232674D01*
X106253640Y-60776723D01*
X106255068Y-61469599D01*
X106256524Y-62313741D01*
X106256665Y-62403182D01*
X106258963Y-64057361D01*
X106260879Y-65841927D01*
X106262415Y-67733329D01*
X106263570Y-69708014D01*
X106264345Y-71742432D01*
X106264740Y-73813030D01*
X106264753Y-75896256D01*
X106264387Y-77968559D01*
X106264387Y-77968559D01*
G37*
X106264387Y-77968559D02*
X106263639Y-80006388D01*
X106262511Y-81986190D01*
X106261003Y-83884413D01*
X106259114Y-85677507D01*
X106256845Y-87341919D01*
X106256665Y-87456818D01*
X106255207Y-88315668D01*
X106253776Y-89023017D01*
X106252377Y-89581304D01*
X106251014Y-89992966D01*
X106249690Y-90260442D01*
X106248410Y-90386170D01*
X106247177Y-90372589D01*
X106245996Y-90222138D01*
X106244869Y-89937253D01*
X106243800Y-89520375D01*
X106242795Y-88973941D01*
X106241856Y-88300389D01*
X106240987Y-87502158D01*
X106240192Y-86581686D01*
X106239475Y-85541412D01*
X106238839Y-84383773D01*
X106238290Y-83111209D01*
X106237830Y-81726158D01*
X106237463Y-80231057D01*
X106237193Y-78628346D01*
X106237024Y-76920463D01*
X106236960Y-75109845D01*
X106236959Y-74930000D01*
X106237013Y-73109610D01*
X106237172Y-71391719D01*
X106237432Y-69778765D01*
X106237790Y-68273187D01*
X106238241Y-66877423D01*
X106238783Y-65593911D01*
X106239410Y-64425090D01*
X106240119Y-63373398D01*
X106240907Y-62441273D01*
X106241769Y-61631154D01*
X106242701Y-60945480D01*
X106243701Y-60386688D01*
X106244763Y-59957216D01*
X106245884Y-59659504D01*
X106247061Y-59495990D01*
X106248289Y-59469111D01*
X106249565Y-59581307D01*
X106250885Y-59835015D01*
X106252244Y-60232674D01*
X106253640Y-60776723D01*
X106255068Y-61469599D01*
X106256524Y-62313741D01*
X106256665Y-62403182D01*
X106258963Y-64057361D01*
X106260879Y-65841927D01*
X106262415Y-67733329D01*
X106263570Y-69708014D01*
X106264345Y-71742432D01*
X106264740Y-73813030D01*
X106264753Y-75896256D01*
X106264387Y-77968559D01*
D14*
X53475000Y-51045000D02*
X53475000Y-52315000D01*
X60825000Y-51045000D02*
X60825000Y-52315000D01*
X60825000Y-88655000D02*
X60825000Y-87385000D01*
X53475000Y-88655000D02*
X53475000Y-87385000D01*
X53475000Y-51045000D02*
X60825000Y-51045000D01*
X53475000Y-88655000D02*
X60825000Y-88655000D01*
X53475000Y-52315000D02*
X52540000Y-52315000D01*
X99115112Y-76454904D02*
G75*
G03X99100000Y-73430000I2484888J1524904D01*
G01*
X99100000Y-76430000D02*
X99100000Y-73430000D01*
X104117936Y-74930000D02*
G75*
G03X104117936Y-74930000I-2517936J0D01*
G01*
X105465112Y-76454904D02*
G75*
G03X105450000Y-73430000I2484888J1524904D01*
G01*
X105450000Y-76430000D02*
X105450000Y-73430000D01*
X110467936Y-74930000D02*
G75*
G03X110467936Y-74930000I-2517936J0D01*
G01*
X111815112Y-76454904D02*
G75*
G03X111800000Y-73430000I2484888J1524904D01*
G01*
X111800000Y-76430000D02*
X111800000Y-73430000D01*
X116817936Y-74930000D02*
G75*
G03X116817936Y-74930000I-2517936J0D01*
G01*
X118165112Y-76454904D02*
G75*
G03X118150000Y-73430000I2484888J1524904D01*
G01*
X118150000Y-76430000D02*
X118150000Y-73430000D01*
X123167936Y-74930000D02*
G75*
G03X123167936Y-74930000I-2517936J0D01*
G01*
X124515112Y-76454904D02*
G75*
G03X124500000Y-73430000I2484888J1524904D01*
G01*
X124500000Y-76430000D02*
X124500000Y-73430000D01*
X129517936Y-74930000D02*
G75*
G03X129517936Y-74930000I-2517936J0D01*
G01*
X130865112Y-76454904D02*
G75*
G03X130850000Y-73430000I2484888J1524904D01*
G01*
X130850000Y-76430000D02*
X130850000Y-73430000D01*
X135867936Y-74930000D02*
G75*
G03X135867936Y-74930000I-2517936J0D01*
G01*
X137215112Y-76454904D02*
G75*
G03X137200000Y-73430000I2484888J1524904D01*
G01*
X137200000Y-76430000D02*
X137200000Y-73430000D01*
X142217936Y-74930000D02*
G75*
G03X142217936Y-74930000I-2517936J0D01*
G01*
X143565112Y-76454904D02*
G75*
G03X143550000Y-73430000I2484888J1524904D01*
G01*
X143550000Y-76430000D02*
X143550000Y-73430000D01*
X148567936Y-74930000D02*
G75*
G03X148567936Y-74930000I-2517936J0D01*
G01*
X84074000Y-88900000D02*
X78994000Y-88900000D01*
X86894000Y-88620000D02*
X86894000Y-90170000D01*
X86614000Y-91440000D02*
X84074000Y-91440000D01*
X84074000Y-91440000D02*
X84074000Y-88900000D01*
X78994000Y-88900000D02*
X78994000Y-93980000D01*
X78994000Y-93980000D02*
X84074000Y-93980000D01*
X86894000Y-88620000D02*
X85344000Y-88620000D01*
X86614000Y-93980000D02*
X86614000Y-91440000D01*
X84074000Y-93980000D02*
X86614000Y-93980000D01*
X78232000Y-96266000D02*
X90932000Y-96266000D01*
X90932000Y-96266000D02*
X90932000Y-98806000D01*
X90932000Y-98806000D02*
X78232000Y-98806000D01*
X75412000Y-95986000D02*
X76962000Y-95986000D01*
X78232000Y-96266000D02*
X78232000Y-98806000D01*
X76962000Y-99086000D02*
X75412000Y-99086000D01*
X75412000Y-99086000D02*
X75412000Y-95986000D01*
X109220000Y-56896000D02*
G75*
G03X109220000Y-56896000I-2540000J0D01*
G01*
X102870000Y-53086000D02*
X110490000Y-53086000D01*
X110490000Y-53086000D02*
X110490000Y-60706000D01*
X110490000Y-60706000D02*
X102870000Y-60706000D01*
X102870000Y-53086000D02*
X102870000Y-60706000D01*
X109220000Y-92964000D02*
G75*
G03X109220000Y-92964000I-2540000J0D01*
G01*
X110490000Y-96774000D02*
X102870000Y-96774000D01*
X102870000Y-96774000D02*
X102870000Y-89154000D01*
X102870000Y-89154000D02*
X110490000Y-89154000D01*
X110490000Y-96774000D02*
X110490000Y-89154000D01*
X52301000Y-92750760D02*
X52100340Y-92349440D01*
X52100340Y-92349440D02*
X51998740Y-91750000D01*
X51998740Y-91750000D02*
X52100340Y-91249620D01*
X52100340Y-91249620D02*
X52499120Y-90551120D01*
X52499120Y-90551120D02*
X53101100Y-90149800D01*
X53101100Y-90149800D02*
X53700540Y-89949140D01*
X53700540Y-89949140D02*
X60299460Y-89949140D01*
X60299460Y-89949140D02*
X61000500Y-90149800D01*
X61000500Y-90149800D02*
X61399280Y-90449520D01*
X61399280Y-90449520D02*
X61800600Y-90949900D01*
X61800600Y-90949900D02*
X62001260Y-91549340D01*
X62001260Y-91549340D02*
X62001260Y-92049720D01*
X62001260Y-92049720D02*
X61800600Y-92550100D01*
X61800600Y-92550100D02*
X61300220Y-93149540D01*
X61300220Y-93149540D02*
X60799840Y-93449260D01*
X60799840Y-93449260D02*
X60299460Y-93550860D01*
X60200400Y-93550860D02*
X53598940Y-93550860D01*
X53598940Y-93550860D02*
X53200160Y-93449260D01*
X53200160Y-93449260D02*
X52699780Y-93149540D01*
X52699780Y-93149540D02*
X52199400Y-92649160D01*
X60190240Y-94079180D02*
X60649980Y-94030920D01*
X60649980Y-94030920D02*
X61048760Y-93919160D01*
X61048760Y-93919160D02*
X61480560Y-93700720D01*
X61480560Y-93700720D02*
X61770120Y-93469580D01*
X61770120Y-93469580D02*
X62100320Y-93119060D01*
X62100320Y-93119060D02*
X62389880Y-92580580D01*
X62389880Y-92580580D02*
X62519420Y-91981140D01*
X62519420Y-91981140D02*
X62519420Y-91470600D01*
X62519420Y-91470600D02*
X62349240Y-90769560D01*
X62349240Y-90769560D02*
X61950460Y-90180280D01*
X61950460Y-90180280D02*
X61490720Y-89809440D01*
X61490720Y-89809440D02*
X61069080Y-89601160D01*
X61069080Y-89601160D02*
X60619500Y-89441140D01*
X60619500Y-89441140D02*
X60180080Y-89410660D01*
X52839480Y-89629100D02*
X52461020Y-89850080D01*
X52461020Y-89850080D02*
X52140980Y-90129480D01*
X52140980Y-90129480D02*
X51889520Y-90459680D01*
X51889520Y-90459680D02*
X51589800Y-91010860D01*
X51589800Y-91010860D02*
X51480580Y-91480760D01*
X51480580Y-91480760D02*
X51460260Y-91940500D01*
X51460260Y-91940500D02*
X51549160Y-92400240D01*
X51549160Y-92400240D02*
X51739660Y-92849820D01*
X51739660Y-92849820D02*
X52100340Y-93319720D01*
X52100340Y-93319720D02*
X52450860Y-93639760D01*
X52450860Y-93639760D02*
X52839480Y-93870900D01*
X52839480Y-93870900D02*
X53268740Y-94010600D01*
X53268740Y-94010600D02*
X53710700Y-94079180D01*
X60200400Y-89420820D02*
X53748800Y-89420820D01*
X53748800Y-89420820D02*
X53329700Y-89458920D01*
X53329700Y-89458920D02*
X52839480Y-89629100D01*
X60200400Y-94079180D02*
X53748800Y-94079180D01*
X63000000Y-76250000D02*
X69000000Y-76250000D01*
X69000000Y-80750000D02*
X63000000Y-80750000D01*
X69000000Y-73500000D02*
X63000000Y-73500000D01*
X63000000Y-69000000D02*
X69000000Y-69000000D01*
X66000000Y-99250000D02*
X60000000Y-99250000D01*
X60000000Y-94750000D02*
X66000000Y-94750000D01*
X52750000Y-94750000D02*
X58750000Y-94750000D01*
X58750000Y-99250000D02*
X52750000Y-99250000D01*
X103133026Y-68734077D02*
X99540923Y-65141974D01*
X99540923Y-65141974D02*
X101336974Y-63345923D01*
X101336974Y-63345923D02*
X104929077Y-66938026D01*
X104929077Y-66938026D02*
X103133026Y-68734077D01*
X104929077Y-82921974D02*
X101336974Y-86514077D01*
X101336974Y-86514077D02*
X99540923Y-84718026D01*
X99540923Y-84718026D02*
X103133026Y-81125923D01*
X103133026Y-81125923D02*
X104929077Y-82921974D01*
X115833026Y-68734077D02*
X112240923Y-65141974D01*
X112240923Y-65141974D02*
X114036974Y-63345923D01*
X114036974Y-63345923D02*
X117629077Y-66938026D01*
X117629077Y-66938026D02*
X115833026Y-68734077D01*
X117629077Y-82921974D02*
X114036974Y-86514077D01*
X114036974Y-86514077D02*
X112240923Y-84718026D01*
X112240923Y-84718026D02*
X115833026Y-81125923D01*
X115833026Y-81125923D02*
X117629077Y-82921974D01*
X128533026Y-68734077D02*
X124940923Y-65141974D01*
X124940923Y-65141974D02*
X126736974Y-63345923D01*
X126736974Y-63345923D02*
X130329077Y-66938026D01*
X130329077Y-66938026D02*
X128533026Y-68734077D01*
X130329077Y-82921974D02*
X126736974Y-86514077D01*
X126736974Y-86514077D02*
X124940923Y-84718026D01*
X124940923Y-84718026D02*
X128533026Y-81125923D01*
X128533026Y-81125923D02*
X130329077Y-82921974D01*
X141233026Y-69369077D02*
X137640923Y-65776974D01*
X137640923Y-65776974D02*
X139436974Y-63980923D01*
X139436974Y-63980923D02*
X143029077Y-67573026D01*
X143029077Y-67573026D02*
X141233026Y-69369077D01*
X143029077Y-82921974D02*
X139436974Y-86514077D01*
X139436974Y-86514077D02*
X137640923Y-84718026D01*
X137640923Y-84718026D02*
X141233026Y-81125923D01*
X141233026Y-81125923D02*
X143029077Y-82921974D01*
X62484000Y-58420000D02*
X62484000Y-53340000D01*
X62484000Y-53340000D02*
X65024000Y-53340000D01*
X65024000Y-53340000D02*
X65024000Y-58420000D01*
X65024000Y-58420000D02*
X62484000Y-58420000D01*
X114046000Y-50800000D02*
X119126000Y-50800000D01*
X119126000Y-50800000D02*
X119126000Y-53340000D01*
X119126000Y-53340000D02*
X114046000Y-53340000D01*
X114046000Y-53340000D02*
X114046000Y-50800000D01*
X114960000Y-94230000D02*
X120040000Y-94230000D01*
X120040000Y-94230000D02*
X120040000Y-96770000D01*
X120040000Y-96770000D02*
X114960000Y-96770000D01*
X114960000Y-96770000D02*
X114960000Y-94230000D01*
X133550000Y-52490000D02*
X125930000Y-52490000D01*
X125930000Y-52490000D02*
X125930000Y-57570000D01*
X125930000Y-57570000D02*
X136090000Y-57570000D01*
X136090000Y-57570000D02*
X136090000Y-55030000D01*
X136370000Y-53760000D02*
X136370000Y-52210000D01*
X136090000Y-55030000D02*
X133550000Y-55030000D01*
X133550000Y-55030000D02*
X133550000Y-52490000D01*
X136370000Y-52210000D02*
X134820000Y-52210000D01*
X100861905Y-77152381D02*
X100861905Y-76152381D01*
X101100000Y-76152381D01*
X101242858Y-76200000D01*
X101338096Y-76295238D01*
X101385715Y-76390476D01*
X101433334Y-76580952D01*
X101433334Y-76723810D01*
X101385715Y-76914286D01*
X101338096Y-77009524D01*
X101242858Y-77104762D01*
X101100000Y-77152381D01*
X100861905Y-77152381D01*
X102385715Y-77152381D02*
X101814286Y-77152381D01*
X102100000Y-77152381D02*
X102100000Y-76152381D01*
X102004762Y-76295238D01*
X101909524Y-76390476D01*
X101814286Y-76438095D01*
X100520667Y-70540619D02*
X100568286Y-70493000D01*
X100663524Y-70445381D01*
X100901620Y-70445381D01*
X100996858Y-70493000D01*
X101044477Y-70540619D01*
X101092096Y-70635857D01*
X101092096Y-70731095D01*
X101044477Y-70873952D01*
X100473048Y-71445381D01*
X101092096Y-71445381D01*
X101711143Y-70445381D02*
X101806382Y-70445381D01*
X101901620Y-70493000D01*
X101949239Y-70540619D01*
X101996858Y-70635857D01*
X102044477Y-70826333D01*
X102044477Y-71064429D01*
X101996858Y-71254905D01*
X101949239Y-71350143D01*
X101901620Y-71397762D01*
X101806382Y-71445381D01*
X101711143Y-71445381D01*
X101615905Y-71397762D01*
X101568286Y-71350143D01*
X101520667Y-71254905D01*
X101473048Y-71064429D01*
X101473048Y-70826333D01*
X101520667Y-70635857D01*
X101568286Y-70540619D01*
X101615905Y-70493000D01*
X101711143Y-70445381D01*
X102663524Y-70445381D02*
X102758763Y-70445381D01*
X102854001Y-70493000D01*
X102901620Y-70540619D01*
X102949239Y-70635857D01*
X102996858Y-70826333D01*
X102996858Y-71064429D01*
X102949239Y-71254905D01*
X102901620Y-71350143D01*
X102854001Y-71397762D01*
X102758763Y-71445381D01*
X102663524Y-71445381D01*
X102568286Y-71397762D01*
X102520667Y-71350143D01*
X102473048Y-71254905D01*
X102425429Y-71064429D01*
X102425429Y-70826333D01*
X102473048Y-70635857D01*
X102520667Y-70540619D01*
X102568286Y-70493000D01*
X102663524Y-70445381D01*
X103568286Y-70873952D02*
X103473048Y-70826333D01*
X103425429Y-70778714D01*
X103377810Y-70683476D01*
X103377810Y-70635857D01*
X103425429Y-70540619D01*
X103473048Y-70493000D01*
X103568286Y-70445381D01*
X103758763Y-70445381D01*
X103854001Y-70493000D01*
X103901620Y-70540619D01*
X103949239Y-70635857D01*
X103949239Y-70683476D01*
X103901620Y-70778714D01*
X103854001Y-70826333D01*
X103758763Y-70873952D01*
X103568286Y-70873952D01*
X103473048Y-70921571D01*
X103425429Y-70969190D01*
X103377810Y-71064429D01*
X103377810Y-71254905D01*
X103425429Y-71350143D01*
X103473048Y-71397762D01*
X103568286Y-71445381D01*
X103758763Y-71445381D01*
X103854001Y-71397762D01*
X103901620Y-71350143D01*
X103949239Y-71254905D01*
X103949239Y-71064429D01*
X103901620Y-70969190D01*
X103854001Y-70921571D01*
X103758763Y-70873952D01*
X107161905Y-77152381D02*
X107161905Y-76152381D01*
X107400000Y-76152381D01*
X107542858Y-76200000D01*
X107638096Y-76295238D01*
X107685715Y-76390476D01*
X107733334Y-76580952D01*
X107733334Y-76723810D01*
X107685715Y-76914286D01*
X107638096Y-77009524D01*
X107542858Y-77104762D01*
X107400000Y-77152381D01*
X107161905Y-77152381D01*
X108114286Y-76247619D02*
X108161905Y-76200000D01*
X108257143Y-76152381D01*
X108495239Y-76152381D01*
X108590477Y-76200000D01*
X108638096Y-76247619D01*
X108685715Y-76342857D01*
X108685715Y-76438095D01*
X108638096Y-76580952D01*
X108066667Y-77152381D01*
X108685715Y-77152381D01*
X106489714Y-70540619D02*
X106537333Y-70493000D01*
X106632571Y-70445381D01*
X106870667Y-70445381D01*
X106965905Y-70493000D01*
X107013524Y-70540619D01*
X107061143Y-70635857D01*
X107061143Y-70731095D01*
X107013524Y-70873952D01*
X106442095Y-71445381D01*
X107061143Y-71445381D01*
X107680190Y-70445381D02*
X107775429Y-70445381D01*
X107870667Y-70493000D01*
X107918286Y-70540619D01*
X107965905Y-70635857D01*
X108013524Y-70826333D01*
X108013524Y-71064429D01*
X107965905Y-71254905D01*
X107918286Y-71350143D01*
X107870667Y-71397762D01*
X107775429Y-71445381D01*
X107680190Y-71445381D01*
X107584952Y-71397762D01*
X107537333Y-71350143D01*
X107489714Y-71254905D01*
X107442095Y-71064429D01*
X107442095Y-70826333D01*
X107489714Y-70635857D01*
X107537333Y-70540619D01*
X107584952Y-70493000D01*
X107680190Y-70445381D01*
X108632571Y-70445381D02*
X108727810Y-70445381D01*
X108823048Y-70493000D01*
X108870667Y-70540619D01*
X108918286Y-70635857D01*
X108965905Y-70826333D01*
X108965905Y-71064429D01*
X108918286Y-71254905D01*
X108870667Y-71350143D01*
X108823048Y-71397762D01*
X108727810Y-71445381D01*
X108632571Y-71445381D01*
X108537333Y-71397762D01*
X108489714Y-71350143D01*
X108442095Y-71254905D01*
X108394476Y-71064429D01*
X108394476Y-70826333D01*
X108442095Y-70635857D01*
X108489714Y-70540619D01*
X108537333Y-70493000D01*
X108632571Y-70445381D01*
X109442095Y-71445381D02*
X109632571Y-71445381D01*
X109727810Y-71397762D01*
X109775429Y-71350143D01*
X109870667Y-71207286D01*
X109918286Y-71016810D01*
X109918286Y-70635857D01*
X109870667Y-70540619D01*
X109823048Y-70493000D01*
X109727810Y-70445381D01*
X109537333Y-70445381D01*
X109442095Y-70493000D01*
X109394476Y-70540619D01*
X109346857Y-70635857D01*
X109346857Y-70873952D01*
X109394476Y-70969190D01*
X109442095Y-71016810D01*
X109537333Y-71064429D01*
X109727810Y-71064429D01*
X109823048Y-71016810D01*
X109870667Y-70969190D01*
X109918286Y-70873952D01*
X113561905Y-77152381D02*
X113561905Y-76152381D01*
X113800000Y-76152381D01*
X113942858Y-76200000D01*
X114038096Y-76295238D01*
X114085715Y-76390476D01*
X114133334Y-76580952D01*
X114133334Y-76723810D01*
X114085715Y-76914286D01*
X114038096Y-77009524D01*
X113942858Y-77104762D01*
X113800000Y-77152381D01*
X113561905Y-77152381D01*
X114466667Y-76152381D02*
X115085715Y-76152381D01*
X114752381Y-76533333D01*
X114895239Y-76533333D01*
X114990477Y-76580952D01*
X115038096Y-76628571D01*
X115085715Y-76723810D01*
X115085715Y-76961905D01*
X115038096Y-77057143D01*
X114990477Y-77104762D01*
X114895239Y-77152381D01*
X114609524Y-77152381D01*
X114514286Y-77104762D01*
X114466667Y-77057143D01*
X112839714Y-70540619D02*
X112887333Y-70493000D01*
X112982571Y-70445381D01*
X113220667Y-70445381D01*
X113315905Y-70493000D01*
X113363524Y-70540619D01*
X113411143Y-70635857D01*
X113411143Y-70731095D01*
X113363524Y-70873952D01*
X112792095Y-71445381D01*
X113411143Y-71445381D01*
X114030190Y-70445381D02*
X114125429Y-70445381D01*
X114220667Y-70493000D01*
X114268286Y-70540619D01*
X114315905Y-70635857D01*
X114363524Y-70826333D01*
X114363524Y-71064429D01*
X114315905Y-71254905D01*
X114268286Y-71350143D01*
X114220667Y-71397762D01*
X114125429Y-71445381D01*
X114030190Y-71445381D01*
X113934952Y-71397762D01*
X113887333Y-71350143D01*
X113839714Y-71254905D01*
X113792095Y-71064429D01*
X113792095Y-70826333D01*
X113839714Y-70635857D01*
X113887333Y-70540619D01*
X113934952Y-70493000D01*
X114030190Y-70445381D01*
X115315905Y-71445381D02*
X114744476Y-71445381D01*
X115030190Y-71445381D02*
X115030190Y-70445381D01*
X114934952Y-70588238D01*
X114839714Y-70683476D01*
X114744476Y-70731095D01*
X115934952Y-70445381D02*
X116030191Y-70445381D01*
X116125429Y-70493000D01*
X116173048Y-70540619D01*
X116220667Y-70635857D01*
X116268286Y-70826333D01*
X116268286Y-71064429D01*
X116220667Y-71254905D01*
X116173048Y-71350143D01*
X116125429Y-71397762D01*
X116030191Y-71445381D01*
X115934952Y-71445381D01*
X115839714Y-71397762D01*
X115792095Y-71350143D01*
X115744476Y-71254905D01*
X115696857Y-71064429D01*
X115696857Y-70826333D01*
X115744476Y-70635857D01*
X115792095Y-70540619D01*
X115839714Y-70493000D01*
X115934952Y-70445381D01*
X119861905Y-77152381D02*
X119861905Y-76152381D01*
X120100000Y-76152381D01*
X120242858Y-76200000D01*
X120338096Y-76295238D01*
X120385715Y-76390476D01*
X120433334Y-76580952D01*
X120433334Y-76723810D01*
X120385715Y-76914286D01*
X120338096Y-77009524D01*
X120242858Y-77104762D01*
X120100000Y-77152381D01*
X119861905Y-77152381D01*
X121290477Y-76485714D02*
X121290477Y-77152381D01*
X121052381Y-76104762D02*
X120814286Y-76819048D01*
X121433334Y-76819048D01*
X119189714Y-70540619D02*
X119237333Y-70493000D01*
X119332571Y-70445381D01*
X119570667Y-70445381D01*
X119665905Y-70493000D01*
X119713524Y-70540619D01*
X119761143Y-70635857D01*
X119761143Y-70731095D01*
X119713524Y-70873952D01*
X119142095Y-71445381D01*
X119761143Y-71445381D01*
X120380190Y-70445381D02*
X120475429Y-70445381D01*
X120570667Y-70493000D01*
X120618286Y-70540619D01*
X120665905Y-70635857D01*
X120713524Y-70826333D01*
X120713524Y-71064429D01*
X120665905Y-71254905D01*
X120618286Y-71350143D01*
X120570667Y-71397762D01*
X120475429Y-71445381D01*
X120380190Y-71445381D01*
X120284952Y-71397762D01*
X120237333Y-71350143D01*
X120189714Y-71254905D01*
X120142095Y-71064429D01*
X120142095Y-70826333D01*
X120189714Y-70635857D01*
X120237333Y-70540619D01*
X120284952Y-70493000D01*
X120380190Y-70445381D01*
X121665905Y-71445381D02*
X121094476Y-71445381D01*
X121380190Y-71445381D02*
X121380190Y-70445381D01*
X121284952Y-70588238D01*
X121189714Y-70683476D01*
X121094476Y-70731095D01*
X122618286Y-71445381D02*
X122046857Y-71445381D01*
X122332571Y-71445381D02*
X122332571Y-70445381D01*
X122237333Y-70588238D01*
X122142095Y-70683476D01*
X122046857Y-70731095D01*
X126261905Y-77152381D02*
X126261905Y-76152381D01*
X126500000Y-76152381D01*
X126642858Y-76200000D01*
X126738096Y-76295238D01*
X126785715Y-76390476D01*
X126833334Y-76580952D01*
X126833334Y-76723810D01*
X126785715Y-76914286D01*
X126738096Y-77009524D01*
X126642858Y-77104762D01*
X126500000Y-77152381D01*
X126261905Y-77152381D01*
X127738096Y-76152381D02*
X127261905Y-76152381D01*
X127214286Y-76628571D01*
X127261905Y-76580952D01*
X127357143Y-76533333D01*
X127595239Y-76533333D01*
X127690477Y-76580952D01*
X127738096Y-76628571D01*
X127785715Y-76723810D01*
X127785715Y-76961905D01*
X127738096Y-77057143D01*
X127690477Y-77104762D01*
X127595239Y-77152381D01*
X127357143Y-77152381D01*
X127261905Y-77104762D01*
X127214286Y-77057143D01*
X125539714Y-70540619D02*
X125587333Y-70493000D01*
X125682571Y-70445381D01*
X125920667Y-70445381D01*
X126015905Y-70493000D01*
X126063524Y-70540619D01*
X126111143Y-70635857D01*
X126111143Y-70731095D01*
X126063524Y-70873952D01*
X125492095Y-71445381D01*
X126111143Y-71445381D01*
X126730190Y-70445381D02*
X126825429Y-70445381D01*
X126920667Y-70493000D01*
X126968286Y-70540619D01*
X127015905Y-70635857D01*
X127063524Y-70826333D01*
X127063524Y-71064429D01*
X127015905Y-71254905D01*
X126968286Y-71350143D01*
X126920667Y-71397762D01*
X126825429Y-71445381D01*
X126730190Y-71445381D01*
X126634952Y-71397762D01*
X126587333Y-71350143D01*
X126539714Y-71254905D01*
X126492095Y-71064429D01*
X126492095Y-70826333D01*
X126539714Y-70635857D01*
X126587333Y-70540619D01*
X126634952Y-70493000D01*
X126730190Y-70445381D01*
X128015905Y-71445381D02*
X127444476Y-71445381D01*
X127730190Y-71445381D02*
X127730190Y-70445381D01*
X127634952Y-70588238D01*
X127539714Y-70683476D01*
X127444476Y-70731095D01*
X128396857Y-70540619D02*
X128444476Y-70493000D01*
X128539714Y-70445381D01*
X128777810Y-70445381D01*
X128873048Y-70493000D01*
X128920667Y-70540619D01*
X128968286Y-70635857D01*
X128968286Y-70731095D01*
X128920667Y-70873952D01*
X128349238Y-71445381D01*
X128968286Y-71445381D01*
X132561905Y-77352381D02*
X132561905Y-76352381D01*
X132800000Y-76352381D01*
X132942858Y-76400000D01*
X133038096Y-76495238D01*
X133085715Y-76590476D01*
X133133334Y-76780952D01*
X133133334Y-76923810D01*
X133085715Y-77114286D01*
X133038096Y-77209524D01*
X132942858Y-77304762D01*
X132800000Y-77352381D01*
X132561905Y-77352381D01*
X133990477Y-76352381D02*
X133800000Y-76352381D01*
X133704762Y-76400000D01*
X133657143Y-76447619D01*
X133561905Y-76590476D01*
X133514286Y-76780952D01*
X133514286Y-77161905D01*
X133561905Y-77257143D01*
X133609524Y-77304762D01*
X133704762Y-77352381D01*
X133895239Y-77352381D01*
X133990477Y-77304762D01*
X134038096Y-77257143D01*
X134085715Y-77161905D01*
X134085715Y-76923810D01*
X134038096Y-76828571D01*
X133990477Y-76780952D01*
X133895239Y-76733333D01*
X133704762Y-76733333D01*
X133609524Y-76780952D01*
X133561905Y-76828571D01*
X133514286Y-76923810D01*
X131889714Y-70540619D02*
X131937333Y-70493000D01*
X132032571Y-70445381D01*
X132270667Y-70445381D01*
X132365905Y-70493000D01*
X132413524Y-70540619D01*
X132461143Y-70635857D01*
X132461143Y-70731095D01*
X132413524Y-70873952D01*
X131842095Y-71445381D01*
X132461143Y-71445381D01*
X133080190Y-70445381D02*
X133175429Y-70445381D01*
X133270667Y-70493000D01*
X133318286Y-70540619D01*
X133365905Y-70635857D01*
X133413524Y-70826333D01*
X133413524Y-71064429D01*
X133365905Y-71254905D01*
X133318286Y-71350143D01*
X133270667Y-71397762D01*
X133175429Y-71445381D01*
X133080190Y-71445381D01*
X132984952Y-71397762D01*
X132937333Y-71350143D01*
X132889714Y-71254905D01*
X132842095Y-71064429D01*
X132842095Y-70826333D01*
X132889714Y-70635857D01*
X132937333Y-70540619D01*
X132984952Y-70493000D01*
X133080190Y-70445381D01*
X134365905Y-71445381D02*
X133794476Y-71445381D01*
X134080190Y-71445381D02*
X134080190Y-70445381D01*
X133984952Y-70588238D01*
X133889714Y-70683476D01*
X133794476Y-70731095D01*
X134699238Y-70445381D02*
X135318286Y-70445381D01*
X134984952Y-70826333D01*
X135127810Y-70826333D01*
X135223048Y-70873952D01*
X135270667Y-70921571D01*
X135318286Y-71016810D01*
X135318286Y-71254905D01*
X135270667Y-71350143D01*
X135223048Y-71397762D01*
X135127810Y-71445381D01*
X134842095Y-71445381D01*
X134746857Y-71397762D01*
X134699238Y-71350143D01*
X138861905Y-77152381D02*
X138861905Y-76152381D01*
X139100000Y-76152381D01*
X139242858Y-76200000D01*
X139338096Y-76295238D01*
X139385715Y-76390476D01*
X139433334Y-76580952D01*
X139433334Y-76723810D01*
X139385715Y-76914286D01*
X139338096Y-77009524D01*
X139242858Y-77104762D01*
X139100000Y-77152381D01*
X138861905Y-77152381D01*
X139766667Y-76152381D02*
X140433334Y-76152381D01*
X140004762Y-77152381D01*
X138239714Y-70540619D02*
X138287333Y-70493000D01*
X138382571Y-70445381D01*
X138620667Y-70445381D01*
X138715905Y-70493000D01*
X138763524Y-70540619D01*
X138811143Y-70635857D01*
X138811143Y-70731095D01*
X138763524Y-70873952D01*
X138192095Y-71445381D01*
X138811143Y-71445381D01*
X139430190Y-70445381D02*
X139525429Y-70445381D01*
X139620667Y-70493000D01*
X139668286Y-70540619D01*
X139715905Y-70635857D01*
X139763524Y-70826333D01*
X139763524Y-71064429D01*
X139715905Y-71254905D01*
X139668286Y-71350143D01*
X139620667Y-71397762D01*
X139525429Y-71445381D01*
X139430190Y-71445381D01*
X139334952Y-71397762D01*
X139287333Y-71350143D01*
X139239714Y-71254905D01*
X139192095Y-71064429D01*
X139192095Y-70826333D01*
X139239714Y-70635857D01*
X139287333Y-70540619D01*
X139334952Y-70493000D01*
X139430190Y-70445381D01*
X140715905Y-71445381D02*
X140144476Y-71445381D01*
X140430190Y-71445381D02*
X140430190Y-70445381D01*
X140334952Y-70588238D01*
X140239714Y-70683476D01*
X140144476Y-70731095D01*
X141573048Y-70778714D02*
X141573048Y-71445381D01*
X141334952Y-70397762D02*
X141096857Y-71112048D01*
X141715905Y-71112048D01*
X145561905Y-76852381D02*
X145561905Y-75852381D01*
X145800000Y-75852381D01*
X145942858Y-75900000D01*
X146038096Y-75995238D01*
X146085715Y-76090476D01*
X146133334Y-76280952D01*
X146133334Y-76423810D01*
X146085715Y-76614286D01*
X146038096Y-76709524D01*
X145942858Y-76804762D01*
X145800000Y-76852381D01*
X145561905Y-76852381D01*
X146704762Y-76280952D02*
X146609524Y-76233333D01*
X146561905Y-76185714D01*
X146514286Y-76090476D01*
X146514286Y-76042857D01*
X146561905Y-75947619D01*
X146609524Y-75900000D01*
X146704762Y-75852381D01*
X146895239Y-75852381D01*
X146990477Y-75900000D01*
X147038096Y-75947619D01*
X147085715Y-76042857D01*
X147085715Y-76090476D01*
X147038096Y-76185714D01*
X146990477Y-76233333D01*
X146895239Y-76280952D01*
X146704762Y-76280952D01*
X146609524Y-76328571D01*
X146561905Y-76376190D01*
X146514286Y-76471429D01*
X146514286Y-76661905D01*
X146561905Y-76757143D01*
X146609524Y-76804762D01*
X146704762Y-76852381D01*
X146895239Y-76852381D01*
X146990477Y-76804762D01*
X147038096Y-76757143D01*
X147085715Y-76661905D01*
X147085715Y-76471429D01*
X147038096Y-76376190D01*
X146990477Y-76328571D01*
X146895239Y-76280952D01*
X144589714Y-70540619D02*
X144637333Y-70493000D01*
X144732571Y-70445381D01*
X144970667Y-70445381D01*
X145065905Y-70493000D01*
X145113524Y-70540619D01*
X145161143Y-70635857D01*
X145161143Y-70731095D01*
X145113524Y-70873952D01*
X144542095Y-71445381D01*
X145161143Y-71445381D01*
X145780190Y-70445381D02*
X145875429Y-70445381D01*
X145970667Y-70493000D01*
X146018286Y-70540619D01*
X146065905Y-70635857D01*
X146113524Y-70826333D01*
X146113524Y-71064429D01*
X146065905Y-71254905D01*
X146018286Y-71350143D01*
X145970667Y-71397762D01*
X145875429Y-71445381D01*
X145780190Y-71445381D01*
X145684952Y-71397762D01*
X145637333Y-71350143D01*
X145589714Y-71254905D01*
X145542095Y-71064429D01*
X145542095Y-70826333D01*
X145589714Y-70635857D01*
X145637333Y-70540619D01*
X145684952Y-70493000D01*
X145780190Y-70445381D01*
X147065905Y-71445381D02*
X146494476Y-71445381D01*
X146780190Y-71445381D02*
X146780190Y-70445381D01*
X146684952Y-70588238D01*
X146589714Y-70683476D01*
X146494476Y-70731095D01*
X147970667Y-70445381D02*
X147494476Y-70445381D01*
X147446857Y-70921571D01*
X147494476Y-70873952D01*
X147589714Y-70826333D01*
X147827810Y-70826333D01*
X147923048Y-70873952D01*
X147970667Y-70921571D01*
X148018286Y-71016810D01*
X148018286Y-71254905D01*
X147970667Y-71350143D01*
X147923048Y-71397762D01*
X147827810Y-71445381D01*
X147589714Y-71445381D01*
X147494476Y-71397762D01*
X147446857Y-71350143D01*
X79847619Y-88052381D02*
X79847619Y-87052381D01*
X80895238Y-87957143D02*
X80847619Y-88004762D01*
X80704762Y-88052381D01*
X80609524Y-88052381D01*
X80466666Y-88004762D01*
X80371428Y-87909524D01*
X80323809Y-87814286D01*
X80276190Y-87623810D01*
X80276190Y-87480952D01*
X80323809Y-87290476D01*
X80371428Y-87195238D01*
X80466666Y-87100000D01*
X80609524Y-87052381D01*
X80704762Y-87052381D01*
X80847619Y-87100000D01*
X80895238Y-87147619D01*
X81276190Y-88004762D02*
X81419047Y-88052381D01*
X81657143Y-88052381D01*
X81752381Y-88004762D01*
X81800000Y-87957143D01*
X81847619Y-87861905D01*
X81847619Y-87766667D01*
X81800000Y-87671429D01*
X81752381Y-87623810D01*
X81657143Y-87576190D01*
X81466666Y-87528571D01*
X81371428Y-87480952D01*
X81323809Y-87433333D01*
X81276190Y-87338095D01*
X81276190Y-87242857D01*
X81323809Y-87147619D01*
X81371428Y-87100000D01*
X81466666Y-87052381D01*
X81704762Y-87052381D01*
X81847619Y-87100000D01*
X82276190Y-88052381D02*
X82276190Y-87052381D01*
X82657143Y-87052381D01*
X82752381Y-87100000D01*
X82800000Y-87147619D01*
X82847619Y-87242857D01*
X82847619Y-87385714D01*
X82800000Y-87480952D01*
X82752381Y-87528571D01*
X82657143Y-87576190D01*
X82276190Y-87576190D01*
X83800000Y-88052381D02*
X83228571Y-88052381D01*
X83514285Y-88052381D02*
X83514285Y-87052381D01*
X83419047Y-87195238D01*
X83323809Y-87290476D01*
X83228571Y-87338095D01*
X74204762Y-94552381D02*
X74204762Y-95361905D01*
X74252381Y-95457143D01*
X74300000Y-95504762D01*
X74395238Y-95552381D01*
X74585715Y-95552381D01*
X74680953Y-95504762D01*
X74728572Y-95457143D01*
X74776191Y-95361905D01*
X74776191Y-94552381D01*
X75204762Y-95266667D02*
X75680953Y-95266667D01*
X75109524Y-95552381D02*
X75442857Y-94552381D01*
X75776191Y-95552381D01*
X76680953Y-95552381D02*
X76347619Y-95076190D01*
X76109524Y-95552381D02*
X76109524Y-94552381D01*
X76490477Y-94552381D01*
X76585715Y-94600000D01*
X76633334Y-94647619D01*
X76680953Y-94742857D01*
X76680953Y-94885714D01*
X76633334Y-94980952D01*
X76585715Y-95028571D01*
X76490477Y-95076190D01*
X76109524Y-95076190D01*
X76966667Y-94552381D02*
X77538096Y-94552381D01*
X77252381Y-95552381D02*
X77252381Y-94552381D01*
X105346667Y-56538762D02*
X105489524Y-56586381D01*
X105727620Y-56586381D01*
X105822858Y-56538762D01*
X105870477Y-56491143D01*
X105918096Y-56395905D01*
X105918096Y-56300667D01*
X105870477Y-56205429D01*
X105822858Y-56157810D01*
X105727620Y-56110190D01*
X105537143Y-56062571D01*
X105441905Y-56014952D01*
X105394286Y-55967333D01*
X105346667Y-55872095D01*
X105346667Y-55776857D01*
X105394286Y-55681619D01*
X105441905Y-55634000D01*
X105537143Y-55586381D01*
X105775239Y-55586381D01*
X105918096Y-55634000D01*
X106251429Y-55586381D02*
X106489524Y-56586381D01*
X106680001Y-55872095D01*
X106870477Y-56586381D01*
X107108572Y-55586381D01*
X107441905Y-55681619D02*
X107489524Y-55634000D01*
X107584762Y-55586381D01*
X107822858Y-55586381D01*
X107918096Y-55634000D01*
X107965715Y-55681619D01*
X108013334Y-55776857D01*
X108013334Y-55872095D01*
X107965715Y-56014952D01*
X107394286Y-56586381D01*
X108013334Y-56586381D01*
X104940476Y-62202381D02*
X104940476Y-61202381D01*
X105273810Y-61916667D01*
X105607143Y-61202381D01*
X105607143Y-62202381D01*
X106273809Y-61202381D02*
X106464286Y-61202381D01*
X106559524Y-61250000D01*
X106654762Y-61345238D01*
X106702381Y-61535714D01*
X106702381Y-61869048D01*
X106654762Y-62059524D01*
X106559524Y-62154762D01*
X106464286Y-62202381D01*
X106273809Y-62202381D01*
X106178571Y-62154762D01*
X106083333Y-62059524D01*
X106035714Y-61869048D01*
X106035714Y-61535714D01*
X106083333Y-61345238D01*
X106178571Y-61250000D01*
X106273809Y-61202381D01*
X107130952Y-62202381D02*
X107130952Y-61202381D01*
X107369047Y-61202381D01*
X107511905Y-61250000D01*
X107607143Y-61345238D01*
X107654762Y-61440476D01*
X107702381Y-61630952D01*
X107702381Y-61773810D01*
X107654762Y-61964286D01*
X107607143Y-62059524D01*
X107511905Y-62154762D01*
X107369047Y-62202381D01*
X107130952Y-62202381D01*
X108130952Y-61678571D02*
X108464286Y-61678571D01*
X108607143Y-62202381D02*
X108130952Y-62202381D01*
X108130952Y-61202381D01*
X108607143Y-61202381D01*
X105346667Y-94130762D02*
X105489524Y-94178381D01*
X105727620Y-94178381D01*
X105822858Y-94130762D01*
X105870477Y-94083143D01*
X105918096Y-93987905D01*
X105918096Y-93892667D01*
X105870477Y-93797429D01*
X105822858Y-93749810D01*
X105727620Y-93702190D01*
X105537143Y-93654571D01*
X105441905Y-93606952D01*
X105394286Y-93559333D01*
X105346667Y-93464095D01*
X105346667Y-93368857D01*
X105394286Y-93273619D01*
X105441905Y-93226000D01*
X105537143Y-93178381D01*
X105775239Y-93178381D01*
X105918096Y-93226000D01*
X106251429Y-93178381D02*
X106489524Y-94178381D01*
X106680001Y-93464095D01*
X106870477Y-94178381D01*
X107108572Y-93178381D01*
X107394286Y-93178381D02*
X108013334Y-93178381D01*
X107680000Y-93559333D01*
X107822858Y-93559333D01*
X107918096Y-93606952D01*
X107965715Y-93654571D01*
X108013334Y-93749810D01*
X108013334Y-93987905D01*
X107965715Y-94083143D01*
X107918096Y-94130762D01*
X107822858Y-94178381D01*
X107537143Y-94178381D01*
X107441905Y-94130762D01*
X107394286Y-94083143D01*
X104345238Y-88416667D02*
X104821429Y-88416667D01*
X104250000Y-88702381D02*
X104583333Y-87702381D01*
X104916667Y-88702381D01*
X105821429Y-88607143D02*
X105773810Y-88654762D01*
X105630953Y-88702381D01*
X105535715Y-88702381D01*
X105392857Y-88654762D01*
X105297619Y-88559524D01*
X105250000Y-88464286D01*
X105202381Y-88273810D01*
X105202381Y-88130952D01*
X105250000Y-87940476D01*
X105297619Y-87845238D01*
X105392857Y-87750000D01*
X105535715Y-87702381D01*
X105630953Y-87702381D01*
X105773810Y-87750000D01*
X105821429Y-87797619D01*
X106107143Y-87702381D02*
X106678572Y-87702381D01*
X106392857Y-88702381D02*
X106392857Y-87702381D01*
X107011905Y-88702381D02*
X107011905Y-87702381D01*
X107678571Y-87702381D02*
X107869048Y-87702381D01*
X107964286Y-87750000D01*
X108059524Y-87845238D01*
X108107143Y-88035714D01*
X108107143Y-88369048D01*
X108059524Y-88559524D01*
X107964286Y-88654762D01*
X107869048Y-88702381D01*
X107678571Y-88702381D01*
X107583333Y-88654762D01*
X107488095Y-88559524D01*
X107440476Y-88369048D01*
X107440476Y-88035714D01*
X107488095Y-87845238D01*
X107583333Y-87750000D01*
X107678571Y-87702381D01*
X108535714Y-88702381D02*
X108535714Y-87702381D01*
X109107143Y-88702381D01*
X109107143Y-87702381D01*
X56523809Y-92071190D02*
X56523809Y-92547381D01*
X56190476Y-91547381D02*
X56523809Y-92071190D01*
X56857143Y-91547381D01*
X57714286Y-92547381D02*
X57142857Y-92547381D01*
X57428571Y-92547381D02*
X57428571Y-91547381D01*
X57333333Y-91690238D01*
X57238095Y-91785476D01*
X57142857Y-91833095D01*
X65833334Y-77479143D02*
X65785715Y-77526762D01*
X65642858Y-77574381D01*
X65547620Y-77574381D01*
X65404762Y-77526762D01*
X65309524Y-77431524D01*
X65261905Y-77336286D01*
X65214286Y-77145810D01*
X65214286Y-77002952D01*
X65261905Y-76812476D01*
X65309524Y-76717238D01*
X65404762Y-76622000D01*
X65547620Y-76574381D01*
X65642858Y-76574381D01*
X65785715Y-76622000D01*
X65833334Y-76669619D01*
X66785715Y-77574381D02*
X66214286Y-77574381D01*
X66500000Y-77574381D02*
X66500000Y-76574381D01*
X66404762Y-76717238D01*
X66309524Y-76812476D01*
X66214286Y-76860095D01*
X65757334Y-72871143D02*
X65709715Y-72918762D01*
X65566858Y-72966381D01*
X65471620Y-72966381D01*
X65328762Y-72918762D01*
X65233524Y-72823524D01*
X65185905Y-72728286D01*
X65138286Y-72537810D01*
X65138286Y-72394952D01*
X65185905Y-72204476D01*
X65233524Y-72109238D01*
X65328762Y-72014000D01*
X65471620Y-71966381D01*
X65566858Y-71966381D01*
X65709715Y-72014000D01*
X65757334Y-72061619D01*
X66138286Y-72061619D02*
X66185905Y-72014000D01*
X66281143Y-71966381D01*
X66519239Y-71966381D01*
X66614477Y-72014000D01*
X66662096Y-72061619D01*
X66709715Y-72156857D01*
X66709715Y-72252095D01*
X66662096Y-72394952D01*
X66090667Y-72966381D01*
X66709715Y-72966381D01*
X62833334Y-98932143D02*
X62785715Y-98979762D01*
X62642858Y-99027381D01*
X62547620Y-99027381D01*
X62404762Y-98979762D01*
X62309524Y-98884524D01*
X62261905Y-98789286D01*
X62214286Y-98598810D01*
X62214286Y-98455952D01*
X62261905Y-98265476D01*
X62309524Y-98170238D01*
X62404762Y-98075000D01*
X62547620Y-98027381D01*
X62642858Y-98027381D01*
X62785715Y-98075000D01*
X62833334Y-98122619D01*
X63166667Y-98027381D02*
X63785715Y-98027381D01*
X63452381Y-98408333D01*
X63595239Y-98408333D01*
X63690477Y-98455952D01*
X63738096Y-98503571D01*
X63785715Y-98598810D01*
X63785715Y-98836905D01*
X63738096Y-98932143D01*
X63690477Y-98979762D01*
X63595239Y-99027381D01*
X63309524Y-99027381D01*
X63214286Y-98979762D01*
X63166667Y-98932143D01*
X55583334Y-98932143D02*
X55535715Y-98979762D01*
X55392858Y-99027381D01*
X55297620Y-99027381D01*
X55154762Y-98979762D01*
X55059524Y-98884524D01*
X55011905Y-98789286D01*
X54964286Y-98598810D01*
X54964286Y-98455952D01*
X55011905Y-98265476D01*
X55059524Y-98170238D01*
X55154762Y-98075000D01*
X55297620Y-98027381D01*
X55392858Y-98027381D01*
X55535715Y-98075000D01*
X55583334Y-98122619D01*
X56440477Y-98360714D02*
X56440477Y-99027381D01*
X56202381Y-97979762D02*
X55964286Y-98694048D01*
X56583334Y-98694048D01*
X101862268Y-66302030D02*
X101963283Y-65729609D01*
X101458206Y-65897969D02*
X102165313Y-65190862D01*
X102434688Y-65460236D01*
X102468359Y-65561252D01*
X102468359Y-65628595D01*
X102434688Y-65729610D01*
X102333672Y-65830625D01*
X102232657Y-65864297D01*
X102165314Y-65864297D01*
X102064299Y-65830625D01*
X101794924Y-65561251D01*
X102535703Y-66975465D02*
X102131641Y-66571404D01*
X102333672Y-66773434D02*
X103040778Y-66066327D01*
X102872420Y-66099999D01*
X102737733Y-66099999D01*
X102636718Y-66066327D01*
X102502031Y-84237732D02*
X101929610Y-84136717D01*
X102097970Y-84641794D02*
X101390863Y-83934687D01*
X101660237Y-83665312D01*
X101761253Y-83631641D01*
X101828596Y-83631641D01*
X101929611Y-83665312D01*
X102030626Y-83766328D01*
X102064298Y-83867343D01*
X102064298Y-83934686D01*
X102030626Y-84035701D01*
X101761252Y-84305076D01*
X102131641Y-83328595D02*
X102131641Y-83261252D01*
X102165313Y-83160237D01*
X102333672Y-82991877D01*
X102434688Y-82958206D01*
X102502031Y-82958206D01*
X102603046Y-82991877D01*
X102670390Y-83059221D01*
X102737733Y-83193908D01*
X102737733Y-84002030D01*
X103175466Y-83564297D01*
X114362268Y-66302031D02*
X114463283Y-65729610D01*
X113958206Y-65897970D02*
X114665313Y-65190863D01*
X114934688Y-65460237D01*
X114968359Y-65561253D01*
X114968359Y-65628596D01*
X114934688Y-65729611D01*
X114833672Y-65830626D01*
X114732657Y-65864298D01*
X114665314Y-65864298D01*
X114564299Y-65830626D01*
X114294924Y-65561252D01*
X115305076Y-65830626D02*
X115742810Y-66268359D01*
X115237733Y-66302030D01*
X115338749Y-66403046D01*
X115372421Y-66504061D01*
X115372421Y-66571405D01*
X115338748Y-66672421D01*
X115170390Y-66840779D01*
X115069374Y-66874451D01*
X115002031Y-66874451D01*
X114901016Y-66840779D01*
X114698985Y-66638748D01*
X114665313Y-66537733D01*
X114665313Y-66470390D01*
X115002031Y-84137732D02*
X114429610Y-84036717D01*
X114597970Y-84541794D02*
X113890863Y-83834687D01*
X114160237Y-83565312D01*
X114261253Y-83531641D01*
X114328596Y-83531641D01*
X114429611Y-83565312D01*
X114530626Y-83666328D01*
X114564298Y-83767343D01*
X114564298Y-83834686D01*
X114530626Y-83935701D01*
X114261252Y-84205076D01*
X115136718Y-83060236D02*
X115608123Y-83531641D01*
X114698985Y-82959222D02*
X115035703Y-83632657D01*
X115473436Y-83194924D01*
X127262268Y-66302030D02*
X127363283Y-65729609D01*
X126858206Y-65897969D02*
X127565313Y-65190862D01*
X127834688Y-65460236D01*
X127868359Y-65561252D01*
X127868359Y-65628595D01*
X127834688Y-65729610D01*
X127733672Y-65830625D01*
X127632657Y-65864297D01*
X127565314Y-65864297D01*
X127464299Y-65830625D01*
X127194924Y-65561251D01*
X128609138Y-66234687D02*
X128272420Y-65897969D01*
X127902031Y-66201014D01*
X127969374Y-66201014D01*
X128070390Y-66234686D01*
X128238749Y-66403045D01*
X128272421Y-66504060D01*
X128272421Y-66571404D01*
X128238748Y-66672420D01*
X128070390Y-66840778D01*
X127969374Y-66874450D01*
X127902031Y-66874450D01*
X127801016Y-66840778D01*
X127632657Y-66672419D01*
X127598985Y-66571404D01*
X127598985Y-66504060D01*
X127802031Y-84137732D02*
X127229610Y-84036717D01*
X127397970Y-84541794D02*
X126690863Y-83834687D01*
X126960237Y-83565312D01*
X127061253Y-83531641D01*
X127128596Y-83531641D01*
X127229611Y-83565312D01*
X127330626Y-83666328D01*
X127364298Y-83767343D01*
X127364298Y-83834686D01*
X127330626Y-83935701D01*
X127061252Y-84205076D01*
X127701016Y-82824534D02*
X127566328Y-82959222D01*
X127532657Y-83060237D01*
X127532657Y-83127580D01*
X127566328Y-83295939D01*
X127667343Y-83464297D01*
X127936718Y-83733672D01*
X128037733Y-83767343D01*
X128105076Y-83767343D01*
X128206092Y-83733672D01*
X128340779Y-83598984D01*
X128374451Y-83497969D01*
X128374451Y-83430626D01*
X128340779Y-83329610D01*
X128172421Y-83161252D01*
X128071405Y-83127579D01*
X128004061Y-83127579D01*
X127903046Y-83161251D01*
X127768359Y-83295939D01*
X127734687Y-83396954D01*
X127734687Y-83464297D01*
X127768359Y-83565313D01*
X139962268Y-66902031D02*
X140063283Y-66329610D01*
X139558206Y-66497970D02*
X140265313Y-65790863D01*
X140534688Y-66060237D01*
X140568359Y-66161253D01*
X140568359Y-66228596D01*
X140534688Y-66329611D01*
X140433672Y-66430626D01*
X140332657Y-66464298D01*
X140265314Y-66464298D01*
X140164299Y-66430626D01*
X139894924Y-66161252D01*
X140905076Y-66430626D02*
X141376481Y-66902031D01*
X140366328Y-67306092D01*
X140502031Y-84237732D02*
X139929610Y-84136717D01*
X140097970Y-84641794D02*
X139390863Y-83934687D01*
X139660237Y-83665312D01*
X139761253Y-83631641D01*
X139828596Y-83631641D01*
X139929611Y-83665312D01*
X140030626Y-83766328D01*
X140064298Y-83867343D01*
X140064298Y-83934686D01*
X140030626Y-84035701D01*
X139761252Y-84305076D01*
X140502030Y-83429610D02*
X140401015Y-83463282D01*
X140333672Y-83463282D01*
X140232657Y-83429610D01*
X140198985Y-83395939D01*
X140165313Y-83294924D01*
X140165313Y-83227580D01*
X140198985Y-83126565D01*
X140333672Y-82991877D01*
X140434688Y-82958206D01*
X140502031Y-82958206D01*
X140603046Y-82991877D01*
X140636718Y-83025549D01*
X140670390Y-83126564D01*
X140670390Y-83193908D01*
X140636718Y-83294923D01*
X140502030Y-83429610D01*
X140468359Y-83530626D01*
X140468359Y-83597969D01*
X140502031Y-83698985D01*
X140636718Y-83833672D01*
X140737733Y-83867343D01*
X140805076Y-83867343D01*
X140906092Y-83833672D01*
X141040779Y-83698984D01*
X141074451Y-83597969D01*
X141074451Y-83530626D01*
X141040779Y-83429610D01*
X140906092Y-83294924D01*
X140805076Y-83261251D01*
X140737733Y-83261251D01*
X140636718Y-83294923D01*
X66289181Y-56049206D02*
X65812990Y-56382540D01*
X66289181Y-56620635D02*
X65289181Y-56620635D01*
X65289181Y-56239682D01*
X65336800Y-56144444D01*
X65384419Y-56096825D01*
X65479657Y-56049206D01*
X65622514Y-56049206D01*
X65717752Y-56096825D01*
X65765371Y-56144444D01*
X65812990Y-56239682D01*
X65812990Y-56620635D01*
X66289181Y-55573016D02*
X66289181Y-55382540D01*
X66241562Y-55287301D01*
X66193943Y-55239682D01*
X66051086Y-55144444D01*
X65860610Y-55096825D01*
X65479657Y-55096825D01*
X65384419Y-55144444D01*
X65336800Y-55192063D01*
X65289181Y-55287301D01*
X65289181Y-55477778D01*
X65336800Y-55573016D01*
X65384419Y-55620635D01*
X65479657Y-55668254D01*
X65717752Y-55668254D01*
X65812990Y-55620635D01*
X65860610Y-55573016D01*
X65908229Y-55477778D01*
X65908229Y-55287301D01*
X65860610Y-55192063D01*
X65812990Y-55144444D01*
X65717752Y-55096825D01*
X115857143Y-52652381D02*
X115523809Y-52176190D01*
X115285714Y-52652381D02*
X115285714Y-51652381D01*
X115666667Y-51652381D01*
X115761905Y-51700000D01*
X115809524Y-51747619D01*
X115857143Y-51842857D01*
X115857143Y-51985714D01*
X115809524Y-52080952D01*
X115761905Y-52128571D01*
X115666667Y-52176190D01*
X115285714Y-52176190D01*
X116809524Y-52652381D02*
X116238095Y-52652381D01*
X116523809Y-52652381D02*
X116523809Y-51652381D01*
X116428571Y-51795238D01*
X116333333Y-51890476D01*
X116238095Y-51938095D01*
X117428571Y-51652381D02*
X117523810Y-51652381D01*
X117619048Y-51700000D01*
X117666667Y-51747619D01*
X117714286Y-51842857D01*
X117761905Y-52033333D01*
X117761905Y-52271429D01*
X117714286Y-52461905D01*
X117666667Y-52557143D01*
X117619048Y-52604762D01*
X117523810Y-52652381D01*
X117428571Y-52652381D01*
X117333333Y-52604762D01*
X117285714Y-52557143D01*
X117238095Y-52461905D01*
X117190476Y-52271429D01*
X117190476Y-52033333D01*
X117238095Y-51842857D01*
X117285714Y-51747619D01*
X117333333Y-51700000D01*
X117428571Y-51652381D01*
X116657143Y-95852381D02*
X116323809Y-95376190D01*
X116085714Y-95852381D02*
X116085714Y-94852381D01*
X116466667Y-94852381D01*
X116561905Y-94900000D01*
X116609524Y-94947619D01*
X116657143Y-95042857D01*
X116657143Y-95185714D01*
X116609524Y-95280952D01*
X116561905Y-95328571D01*
X116466667Y-95376190D01*
X116085714Y-95376190D01*
X117609524Y-95852381D02*
X117038095Y-95852381D01*
X117323809Y-95852381D02*
X117323809Y-94852381D01*
X117228571Y-94995238D01*
X117133333Y-95090476D01*
X117038095Y-95138095D01*
X118561905Y-95852381D02*
X117990476Y-95852381D01*
X118276190Y-95852381D02*
X118276190Y-94852381D01*
X118180952Y-94995238D01*
X118085714Y-95090476D01*
X117990476Y-95138095D01*
X134931905Y-59362381D02*
X134931905Y-58362381D01*
X135312858Y-58362381D01*
X135408096Y-58410000D01*
X135455715Y-58457619D01*
X135503334Y-58552857D01*
X135503334Y-58695714D01*
X135455715Y-58790952D01*
X135408096Y-58838571D01*
X135312858Y-58886190D01*
X134931905Y-58886190D01*
X135884286Y-58457619D02*
X135931905Y-58410000D01*
X136027143Y-58362381D01*
X136265239Y-58362381D01*
X136360477Y-58410000D01*
X136408096Y-58457619D01*
X136455715Y-58552857D01*
X136455715Y-58648095D01*
X136408096Y-58790952D01*
X135836667Y-59362381D01*
X136455715Y-59362381D01*
M02*
